{"glyphs":{"0":{"ha":850,"x_min":83,"x_max":767,"o":"m 83 594 q 174 888 83 783 q 425 992 264 992 q 676 888 586 992 q 767 594 767 783 l 767 378 q 676 82 767 183 q 425 -19 586 -19 q 174 82 264 -19 q 83 378 83 183 l 83 594 m 425 86 q 594 165 538 86 q 650 386 650 243 l 650 586 q 636 708 650 653 q 594 802 622 763 q 523 864 565 842 q 425 886 481 886 q 326 864 368 886 q 256 802 285 842 q 214 708 228 763 q 200 586 200 653 l 200 386 q 256 165 200 243 q 425 86 313 86 m 336 486 q 363 549 336 522 q 425 575 389 575 q 488 549 461 575 q 514 486 514 522 q 488 424 514 450 q 425 397 461 397 q 363 424 389 397 q 336 486 336 450 z "},"1":{"ha":850,"x_min":82,"x_max":765,"o":"m 374 108 l 374 921 l 357 921 l 197 556 l 82 556 l 82 564 l 264 972 l 490 972 l 490 108 l 765 108 l 765 0 l 99 0 l 99 108 l 374 108 z "},"2":{"ha":850,"x_min":89,"x_max":764,"o":"m 756 108 l 756 0 l 97 0 l 97 167 q 119 283 97 233 q 183 367 142 332 q 282 426 224 403 q 414 467 340 450 q 592 546 538 494 q 647 672 647 597 l 647 681 q 635 754 647 718 q 596 819 622 790 q 528 866 569 849 q 431 883 488 883 q 265 818 324 883 q 206 644 206 753 l 206 583 l 89 583 l 89 653 q 111 781 89 719 q 176 889 133 842 q 283 964 219 936 q 431 992 347 992 q 578 966 515 992 q 682 898 640 940 q 744 802 724 856 q 764 693 764 749 l 764 668 q 694 478 764 557 q 472 367 625 400 q 276 290 339 338 q 214 150 214 242 l 214 108 l 756 108 z "},"3":{"ha":850,"x_min":88,"x_max":771,"o":"m 329 483 l 329 644 l 646 847 l 646 864 l 96 864 l 96 972 l 746 972 l 746 794 l 429 592 l 429 575 l 485 575 q 592 557 540 575 q 683 504 643 539 q 747 419 722 469 q 771 301 771 368 l 771 276 q 746 160 771 214 q 676 66 721 106 q 572 3 632 26 q 440 -19 511 -19 q 293 6 358 -19 q 182 74 228 31 q 112 177 136 118 q 88 303 88 236 l 88 378 l 204 378 l 204 311 q 222 217 204 258 q 270 148 239 176 q 344 104 301 119 q 438 89 388 89 q 523 104 483 89 q 592 147 563 119 q 638 210 621 174 q 654 289 654 247 l 654 297 q 599 434 654 385 q 460 483 543 483 l 329 483 z "},"4":{"ha":850,"x_min":68,"x_max":785,"o":"m 408 972 l 635 972 l 635 292 l 785 292 l 785 183 l 635 183 l 635 0 l 518 0 l 518 183 l 68 183 l 68 344 l 408 972 m 168 308 l 168 292 l 518 292 l 518 922 l 501 922 l 168 308 z "},"5":{"ha":850,"x_min":92,"x_max":783,"o":"m 108 458 l 108 972 l 717 972 l 717 864 l 222 864 l 222 517 l 239 517 q 275 570 253 544 q 327 615 297 596 q 394 647 357 635 q 478 658 432 658 q 601 636 544 658 q 697 574 657 614 q 760 476 738 533 q 783 350 783 419 l 783 325 q 761 194 783 256 q 696 84 739 132 q 589 8 653 36 q 442 -19 525 -19 q 292 6 357 -19 q 182 75 226 31 q 115 180 138 119 q 92 311 92 240 l 92 350 l 208 350 l 208 319 q 273 147 208 204 q 442 89 338 89 q 540 109 497 89 q 610 163 582 129 q 653 242 639 197 q 667 336 667 288 l 667 344 q 652 425 667 388 q 612 490 638 463 q 549 534 586 518 q 469 550 513 550 q 416 542 440 550 q 374 520 392 533 q 344 490 356 507 q 328 458 332 474 l 108 458 z "},"6":{"ha":850,"x_min":88,"x_max":763,"o":"m 629 689 q 574 834 629 779 q 419 889 518 889 q 333 872 372 889 q 265 824 293 856 q 220 750 236 793 q 204 656 204 707 l 204 511 l 221 511 q 316 607 254 572 q 454 642 378 642 q 578 620 521 642 q 676 557 635 599 q 740 456 717 515 q 763 322 763 397 l 763 306 q 737 174 763 233 q 666 71 711 114 q 559 4 621 28 q 425 -19 497 -19 q 291 4 353 -19 q 184 70 229 28 q 113 172 139 113 q 88 301 88 231 l 88 656 q 114 794 88 732 q 186 901 140 857 q 292 968 232 944 q 422 992 353 992 q 551 971 492 992 q 654 910 611 950 q 722 815 697 871 q 746 689 746 758 l 629 689 m 425 83 q 516 99 475 83 q 586 144 557 115 q 631 214 615 174 q 646 303 646 254 l 646 319 q 629 408 646 368 q 583 478 613 449 q 513 523 554 507 q 425 539 472 539 q 338 522 378 539 q 267 476 297 506 q 221 408 238 447 q 204 325 204 369 l 204 299 q 219 213 204 253 q 264 144 235 174 q 334 99 293 115 q 425 83 375 83 z "},"7":{"ha":850,"x_min":100,"x_max":750,"o":"m 100 972 l 750 972 l 750 803 l 340 183 q 296 107 311 139 q 281 42 281 75 l 281 0 l 167 0 l 167 50 q 172 97 167 75 q 187 142 176 119 q 213 191 197 165 q 251 250 229 217 l 650 847 l 650 864 l 100 864 l 100 972 z "},"8":{"ha":850,"x_min":88,"x_max":763,"o":"m 413 -19 q 279 1 339 -19 q 176 56 219 21 q 110 140 133 92 q 88 244 88 188 l 88 261 q 103 350 88 311 q 143 418 118 389 q 201 467 168 447 q 268 496 233 486 l 268 513 q 208 542 236 522 q 159 588 181 561 q 125 648 138 614 q 113 722 113 682 l 113 739 q 135 841 113 794 q 198 921 157 888 q 295 973 239 954 q 421 992 351 992 l 429 992 q 554 973 497 992 q 652 921 611 954 q 715 841 693 888 q 738 739 738 794 l 738 722 q 725 648 738 682 q 691 588 713 614 q 641 542 669 561 q 582 513 613 522 l 582 496 q 649 467 617 486 q 707 418 682 447 q 747 350 732 389 q 763 261 763 311 l 763 244 q 740 140 763 188 q 674 56 717 92 q 571 1 631 21 q 438 -19 511 -19 l 413 -19 m 433 86 q 587 135 528 86 q 646 261 646 183 l 646 269 q 585 403 646 356 q 429 450 525 450 l 421 450 q 265 403 325 450 q 204 269 204 356 l 204 261 q 263 135 204 183 q 417 86 322 86 l 433 86 m 425 558 q 567 604 513 558 q 621 719 621 650 l 621 728 q 567 842 621 799 q 425 886 514 886 q 283 842 336 886 q 229 728 229 799 l 229 719 q 283 604 229 650 q 425 558 338 558 z "},"9":{"ha":850,"x_min":88,"x_max":763,"o":"m 221 283 q 276 138 221 193 q 431 83 332 83 q 517 100 478 83 q 585 148 557 117 q 630 222 614 179 q 646 317 646 264 l 646 461 l 629 461 q 538 365 597 400 q 399 331 478 331 q 274 351 331 331 q 175 413 217 372 q 110 513 133 454 q 88 646 88 571 l 88 663 q 113 795 88 735 q 183 899 138 856 q 290 967 228 943 q 425 992 351 992 q 560 967 499 992 q 667 900 622 943 q 738 797 713 857 q 763 667 763 738 l 763 317 q 737 177 763 239 q 666 72 711 115 q 560 4 621 28 q 428 -19 499 -19 q 297 1 357 -19 q 194 62 238 22 q 128 158 151 101 q 104 283 104 214 l 221 283 m 425 889 q 334 872 375 889 q 264 825 293 856 q 219 753 235 794 q 204 665 204 713 l 204 649 q 221 560 204 600 q 267 492 238 521 q 336 449 296 464 q 425 433 376 433 q 513 449 472 433 q 583 493 553 465 q 629 560 613 521 q 646 643 646 599 l 646 669 q 631 756 646 715 q 586 826 615 796 q 516 872 557 856 q 425 889 475 889 z "},"\u0000":{"ha":850,"x_min":0,"x_max":0,"o":""}," ":{"ha":850,"x_min":0,"x_max":0,"o":""},"A":{"ha":850,"x_min":21,"x_max":829,"o":"m 633 242 l 217 242 l 146 0 l 21 0 l 315 972 l 535 972 l 829 0 l 704 0 l 633 242 m 417 922 l 249 350 l 601 350 l 433 922 l 417 922 z "},"B":{"ha":850,"x_min":79,"x_max":760,"o":"m 79 108 l 163 108 l 163 864 l 79 864 l 79 972 l 472 972 q 595 953 542 972 q 685 900 649 933 q 741 820 722 867 q 760 719 760 774 l 760 703 q 747 629 760 663 q 713 569 735 596 q 660 524 690 543 q 596 496 631 506 l 596 479 q 713 405 665 460 q 760 271 760 350 l 760 254 q 741 153 760 200 q 685 73 722 107 q 595 19 649 39 q 472 0 542 0 l 79 0 l 79 108 m 279 108 l 464 108 q 597 149 546 108 q 649 263 649 190 l 649 271 q 600 390 649 346 q 468 433 551 433 l 279 433 l 279 108 m 279 542 l 468 542 q 600 585 551 542 q 649 703 649 628 l 649 711 q 597 823 649 782 q 464 864 546 864 l 279 864 l 279 542 z "},"C":{"ha":850,"x_min":89,"x_max":772,"o":"m 431 89 q 533 109 490 89 q 602 163 575 129 q 642 241 629 197 q 656 333 656 285 l 656 350 l 772 350 l 772 333 q 750 195 772 260 q 685 83 728 131 q 578 8 642 35 q 431 -19 514 -19 q 179 82 269 -19 q 89 378 89 183 l 89 594 q 179 888 89 783 q 431 992 269 992 q 578 965 514 992 q 685 890 642 938 q 750 777 728 842 q 772 639 772 713 l 772 622 l 656 622 l 656 639 q 641 731 654 686 q 601 809 628 775 q 532 863 574 843 q 431 883 490 883 q 262 801 318 883 q 206 586 206 719 l 206 386 q 262 166 206 243 q 431 89 318 89 z "},"D":{"ha":850,"x_min":101,"x_max":768,"o":"m 101 972 l 421 972 q 685 886 601 972 q 768 611 768 800 l 768 361 q 685 86 768 172 q 421 0 601 0 l 101 0 l 101 110 l 185 110 l 185 864 l 101 864 l 101 972 m 404 108 q 515 121 468 108 q 592 163 561 133 q 637 243 622 193 q 651 369 651 293 l 651 603 q 637 729 651 679 q 592 809 622 779 q 515 851 561 839 q 404 864 468 864 l 301 864 l 301 108 l 404 108 z "},"E":{"ha":850,"x_min":131,"x_max":728,"o":"m 131 972 l 719 972 l 719 864 l 247 864 l 247 542 l 711 542 l 711 433 l 247 433 l 247 108 l 728 108 l 728 0 l 131 0 l 131 972 z "},"F":{"ha":850,"x_min":132,"x_max":729,"o":"m 132 972 l 729 972 l 729 864 l 249 864 l 249 542 l 721 542 l 721 433 l 249 433 l 249 0 l 132 0 l 132 972 z "},"G":{"ha":850,"x_min":82,"x_max":765,"o":"m 332 467 l 765 467 l 765 0 l 657 0 l 657 117 l 640 117 q 557 18 617 56 q 418 -19 497 -19 q 172 82 261 -19 q 82 378 82 183 l 82 594 q 172 888 82 783 q 424 992 263 992 q 571 965 507 992 q 678 890 635 938 q 743 777 721 842 q 765 639 765 713 l 765 622 l 649 622 l 649 639 q 635 731 649 686 q 595 809 622 775 q 526 863 568 843 q 424 883 483 883 q 255 801 311 883 q 199 586 199 719 l 199 386 q 255 166 199 243 q 426 89 311 89 q 590 156 531 89 q 649 342 649 222 l 649 358 l 332 358 l 332 467 z "},"H":{"ha":850,"x_min":101,"x_max":749,"o":"m 101 972 l 218 972 l 218 542 l 632 542 l 632 972 l 749 972 l 749 0 l 632 0 l 632 433 l 218 433 l 218 0 l 101 0 l 101 972 z "},"I":{"ha":850,"x_min":117,"x_max":733,"o":"m 117 972 l 733 972 l 733 864 l 483 864 l 483 108 l 733 108 l 733 0 l 117 0 l 117 108 l 367 108 l 367 864 l 117 864 l 117 972 z "},"J":{"ha":850,"x_min":101,"x_max":785,"o":"m 701 292 q 627 60 701 140 q 410 -19 553 -19 q 184 60 267 -19 q 101 292 101 140 l 101 367 l 218 367 l 218 292 q 265 144 218 200 q 410 89 313 89 q 546 144 507 89 q 585 292 585 200 l 585 864 l 485 864 l 485 972 l 785 972 l 785 864 l 701 864 l 701 292 z "},"K":{"ha":850,"x_min":124,"x_max":807,"o":"m 240 0 l 124 0 l 124 972 l 240 972 l 240 542 l 272 542 l 646 972 l 790 972 l 790 964 l 388 494 l 388 478 l 807 8 l 807 0 l 660 0 l 272 433 l 240 433 l 240 0 z "},"L":{"ha":850,"x_min":121,"x_max":746,"o":"m 121 972 l 238 972 l 238 108 l 746 108 l 746 0 l 121 0 l 121 972 z "},"M":{"ha":850,"x_min":64,"x_max":786,"o":"m 64 972 l 286 972 l 417 50 l 433 50 l 564 972 l 786 972 l 786 0 l 678 0 l 678 922 l 661 922 l 531 0 l 319 0 l 189 922 l 172 922 l 172 0 l 64 0 l 64 972 z "},"N":{"ha":850,"x_min":101,"x_max":749,"o":"m 615 50 l 632 50 l 632 972 l 749 972 l 749 0 l 515 0 l 235 922 l 218 922 l 218 0 l 101 0 l 101 972 l 335 972 l 615 50 z "},"O":{"ha":850,"x_min":83,"x_max":767,"o":"m 83 594 q 174 888 83 783 q 425 992 264 992 q 676 888 586 992 q 767 594 767 783 l 767 378 q 676 82 767 183 q 425 -19 586 -19 q 174 82 264 -19 q 83 378 83 183 l 83 594 m 425 89 q 594 166 538 89 q 650 386 650 243 l 650 586 q 594 801 650 719 q 425 883 538 883 q 256 801 313 883 q 200 586 200 719 l 200 386 q 256 166 200 243 q 425 89 313 89 z "},"P":{"ha":850,"x_min":118,"x_max":763,"o":"m 235 400 l 235 0 l 118 0 l 118 972 l 465 972 q 596 951 540 972 q 688 893 651 929 q 744 809 725 857 q 763 708 763 761 l 763 667 q 744 565 763 614 q 688 480 725 517 q 594 422 650 443 q 465 400 539 400 l 235 400 m 235 508 l 451 508 q 646 675 646 508 l 646 700 q 598 819 646 774 q 451 864 550 864 l 235 864 l 235 508 z "},"Q":{"ha":850,"x_min":83,"x_max":767,"o":"m 83 594 q 174 888 83 783 q 425 992 264 992 q 676 888 586 992 q 767 594 767 783 l 767 378 q 691 99 767 200 q 479 -17 615 -1 l 479 -75 q 517 -117 479 -117 l 633 -117 l 633 -217 l 478 -217 q 401 -186 431 -217 q 371 -108 371 -156 l 371 -17 q 158 100 233 0 q 83 378 83 200 l 83 594 m 425 89 q 594 166 538 89 q 650 386 650 243 l 650 586 q 594 801 650 719 q 425 883 538 883 q 256 801 313 883 q 200 586 200 719 l 200 386 q 256 166 200 243 q 425 89 313 89 z "},"R":{"ha":850,"x_min":118,"x_max":763,"o":"m 729 0 l 613 0 l 613 325 q 596 381 613 361 q 538 400 579 400 l 235 400 l 235 0 l 118 0 l 118 972 l 465 972 q 596 951 540 972 q 688 893 651 929 q 744 809 725 857 q 763 708 763 761 l 763 667 q 733 558 763 613 q 640 475 703 504 l 640 458 q 706 425 682 451 q 729 350 729 399 l 729 0 m 235 508 l 451 508 q 598 551 550 508 q 646 675 646 593 l 646 700 q 598 819 646 774 q 451 864 550 864 l 235 864 l 235 508 z "},"S":{"ha":850,"x_min":63,"x_max":779,"o":"m 654 692 q 635 775 654 739 q 585 835 617 811 q 511 871 553 858 q 424 883 469 883 q 347 873 383 883 q 283 843 311 863 q 238 795 254 824 q 221 729 221 767 l 221 721 q 238 652 221 681 q 287 603 254 624 q 368 570 319 583 q 482 547 417 557 q 707 458 635 524 q 779 281 779 392 l 779 264 q 758 149 779 201 q 694 60 736 97 q 589 1 651 22 q 444 -19 526 -19 q 280 8 351 -19 q 160 83 208 35 q 88 195 113 131 q 63 336 63 260 l 63 378 l 179 378 l 179 344 q 249 153 179 217 q 444 89 319 89 q 608 137 553 89 q 663 264 663 185 l 663 272 q 606 389 663 349 q 424 447 550 429 q 291 477 350 457 q 190 530 232 497 q 126 608 149 563 q 104 717 104 654 l 104 733 q 128 838 104 790 q 194 919 151 885 q 295 973 236 954 q 425 992 354 992 q 572 968 507 992 q 681 905 636 944 q 748 812 725 865 q 771 700 771 758 l 771 642 l 654 642 l 654 692 z "},"T":{"ha":850,"x_min":83,"x_max":767,"o":"m 83 972 l 767 972 l 767 864 l 483 864 l 483 0 l 367 0 l 367 864 l 83 864 l 83 972 z "},"U":{"ha":850,"x_min":92,"x_max":758,"o":"m 208 972 l 208 328 q 263 149 208 210 q 425 89 318 89 q 587 149 532 89 q 642 328 642 210 l 642 972 l 758 972 l 758 328 q 669 69 758 158 q 425 -19 581 -19 q 181 69 269 -19 q 92 328 92 158 l 92 972 l 208 972 z "},"V":{"ha":850,"x_min":38,"x_max":813,"o":"m 38 972 l 163 972 l 417 50 l 433 50 l 688 972 l 813 972 l 538 0 l 313 0 l 38 972 z "},"W":{"ha":850,"x_min":15,"x_max":835,"o":"m 736 0 l 524 0 l 433 922 l 417 922 l 326 0 l 114 0 l 15 972 l 121 972 l 214 50 l 231 50 l 318 972 l 532 972 l 619 50 l 636 50 l 729 972 l 835 972 l 736 0 z "},"X":{"ha":850,"x_min":67,"x_max":783,"o":"m 194 972 l 413 542 l 438 542 l 656 972 l 783 972 l 540 496 l 540 479 l 783 0 l 656 0 l 438 433 l 413 433 l 194 0 l 67 0 l 310 479 l 310 496 l 67 972 l 194 972 z "},"Y":{"ha":850,"x_min":38,"x_max":813,"o":"m 367 342 l 342 342 l 38 972 l 168 972 l 417 442 l 433 442 l 682 972 l 813 972 l 508 342 l 483 342 l 483 0 l 367 0 l 367 342 z "},"Z":{"ha":850,"x_min":74,"x_max":774,"o":"m 107 972 l 757 972 l 757 797 l 174 125 l 174 108 l 774 108 l 774 0 l 74 0 l 74 175 l 657 847 l 657 864 l 107 864 l 107 972 z "},"a":{"ha":850,"x_min":65,"x_max":801,"o":"m 621 117 l 604 117 q 512 14 571 47 q 388 -19 453 -19 q 261 3 319 -19 q 159 72 203 26 q 90 182 115 117 q 65 333 65 247 l 65 356 q 90 506 65 440 q 159 616 115 571 q 261 685 203 661 q 385 708 319 708 q 513 677 456 708 q 604 581 571 646 l 621 581 l 621 689 l 729 689 l 729 142 q 767 100 729 100 l 801 100 l 801 0 l 728 0 q 651 31 681 0 q 621 108 621 61 l 621 117 m 399 83 q 488 101 447 83 q 558 153 529 119 q 604 233 588 186 q 621 336 621 279 l 621 353 q 604 455 621 408 q 558 535 588 501 q 487 587 528 568 q 399 606 446 606 q 310 588 350 606 q 240 537 269 569 q 193 458 210 504 q 176 356 176 411 l 176 333 q 238 149 176 215 q 399 83 300 83 z "},"b":{"ha":850,"x_min":96,"x_max":776,"o":"m 204 0 l 96 0 l 96 972 l 204 972 l 204 581 l 221 581 q 321 676 257 643 q 460 708 385 708 q 581 685 524 708 q 681 617 638 661 q 751 507 725 572 q 776 358 776 442 l 776 331 q 751 181 776 246 q 683 71 726 115 q 581 3 639 26 q 457 -19 522 -19 q 389 -12 424 -19 q 323 12 354 -4 q 265 51 292 28 q 221 106 239 74 l 204 106 l 204 0 m 435 83 q 526 101 485 83 q 599 150 568 118 q 648 228 631 182 q 665 331 665 274 l 665 358 q 648 459 665 414 q 599 537 631 504 q 526 588 568 569 q 435 606 483 606 q 344 587 386 606 q 272 535 303 568 q 222 455 240 501 q 204 353 204 408 l 204 336 q 222 233 204 279 q 272 153 240 186 q 344 101 303 119 q 435 83 386 83 z "},"c":{"ha":850,"x_min":82,"x_max":765,"o":"m 765 244 q 727 139 754 188 q 658 55 700 90 q 561 0 617 19 q 438 -19 506 -19 q 301 4 365 -19 q 188 73 236 28 q 110 183 139 118 q 82 333 82 249 l 82 350 q 110 500 82 433 q 188 613 139 567 q 301 683 236 658 q 438 708 365 708 q 558 689 503 708 q 656 634 614 669 q 726 550 699 599 q 763 444 753 501 l 654 419 q 634 490 650 456 q 591 549 618 524 q 525 590 564 575 q 435 606 486 606 q 341 587 385 606 q 264 534 297 568 q 212 453 231 500 q 193 350 193 406 l 193 333 q 212 228 193 275 q 264 150 231 182 q 342 101 297 118 q 438 83 386 83 q 527 99 489 83 q 592 141 565 115 q 635 200 619 167 q 657 269 651 233 l 765 244 z "},"d":{"ha":850,"x_min":82,"x_max":763,"o":"m 654 106 l 638 106 q 595 50 621 74 q 540 11 569 26 q 476 -12 510 -4 q 413 -19 443 -19 q 283 4 343 -19 q 178 72 224 28 q 108 183 133 117 q 82 333 82 249 l 82 356 q 108 505 82 439 q 179 616 135 571 q 283 685 224 661 q 410 708 343 708 q 542 677 481 708 q 638 581 604 646 l 654 581 l 654 972 l 763 972 l 763 0 l 654 0 l 654 106 m 424 83 q 514 101 472 83 q 587 153 556 119 q 636 233 618 186 q 654 336 654 279 l 654 353 q 636 455 654 408 q 587 535 618 501 q 513 587 556 568 q 424 606 471 606 q 333 588 375 606 q 259 536 290 569 q 210 457 228 503 q 193 356 193 411 l 193 333 q 210 229 193 275 q 259 151 228 183 q 332 101 290 118 q 424 83 374 83 z "},"e":{"ha":850,"x_min":92,"x_max":756,"o":"m 200 311 q 264 146 204 208 q 431 83 324 83 q 515 94 479 83 q 577 125 551 106 q 619 170 603 144 q 644 225 635 196 l 747 197 q 640 41 718 101 q 428 -19 561 -19 q 292 6 354 -19 q 186 79 231 32 q 117 192 142 126 q 92 336 92 257 l 92 369 q 117 504 92 442 q 189 612 143 567 q 297 683 235 657 q 431 708 358 708 q 577 677 515 708 q 678 600 639 646 q 737 500 718 554 q 756 400 756 446 l 756 311 l 200 311 m 431 606 q 345 591 385 606 q 276 550 306 576 q 227 488 246 524 q 203 411 208 453 l 647 411 q 626 492 644 456 q 577 553 607 528 q 509 592 547 578 q 431 606 471 606 z "},"f":{"ha":850,"x_min":114,"x_max":722,"o":"m 114 689 l 326 689 l 326 864 q 356 942 326 911 q 433 972 386 972 l 706 972 l 706 872 l 472 872 q 435 831 435 872 l 435 689 l 722 689 l 722 589 l 435 589 l 435 0 l 326 0 l 326 589 l 114 589 l 114 689 z "},"g":{"ha":850,"x_min":72,"x_max":753,"o":"m 644 106 l 628 106 q 537 12 594 43 q 411 -19 479 -19 q 281 4 342 -19 q 173 72 219 28 q 99 183 126 117 q 72 333 72 249 l 72 356 q 100 505 72 439 q 174 616 128 571 q 281 685 219 661 q 408 708 342 708 q 540 676 483 708 q 628 581 596 643 l 644 581 l 644 689 l 753 689 l 753 -169 q 723 -247 753 -217 q 646 -278 693 -278 l 197 -278 l 197 -178 l 607 -178 q 644 -136 644 -178 l 644 106 m 414 83 q 504 101 463 83 q 577 153 546 119 q 626 233 608 186 q 644 336 644 279 l 644 353 q 626 455 644 408 q 577 535 608 501 q 503 587 546 568 q 414 606 461 606 q 323 588 365 606 q 249 536 281 569 q 201 457 218 503 q 183 356 183 411 l 183 333 q 201 229 183 275 q 249 151 218 183 q 322 101 281 118 q 414 83 364 83 z "},"h":{"ha":850,"x_min":121,"x_max":729,"o":"m 229 0 l 121 0 l 121 972 l 229 972 l 229 564 l 246 564 q 335 669 278 631 q 476 708 393 708 q 659 634 589 708 q 729 411 729 560 l 729 0 l 621 0 l 621 389 q 572 551 621 497 q 440 606 524 606 q 285 538 342 606 q 229 358 229 471 l 229 0 z "},"i":{"ha":850,"x_min":138,"x_max":713,"o":"m 335 894 q 363 963 335 935 q 432 992 392 992 q 501 963 472 992 q 529 894 529 935 q 501 826 529 854 q 432 797 472 797 q 363 826 392 797 q 335 894 335 854 m 138 100 l 379 100 l 379 589 l 163 589 l 163 689 l 488 689 l 488 100 l 713 100 l 713 0 l 138 0 l 138 100 z "},"j":{"ha":850,"x_min":163,"x_max":621,"o":"m 426 894 q 455 963 426 935 q 524 992 483 992 q 592 963 564 992 q 621 894 621 935 q 592 826 621 854 q 524 797 564 797 q 455 826 483 797 q 426 894 426 854 m 196 689 l 579 689 l 579 -169 q 549 -247 579 -217 q 472 -278 519 -278 l 163 -278 l 163 -178 l 433 -178 q 471 -136 471 -178 l 471 589 l 196 589 l 196 689 z "},"k":{"ha":850,"x_min":190,"x_max":751,"o":"m 299 403 l 322 403 l 585 689 l 718 689 l 718 681 l 432 365 l 432 340 l 751 8 l 751 0 l 618 0 l 325 303 l 299 303 l 299 0 l 190 0 l 190 972 l 299 972 l 299 403 z "},"l":{"ha":850,"x_min":121,"x_max":729,"o":"m 121 100 l 371 100 l 371 872 l 129 872 l 129 972 l 479 972 l 479 100 l 729 100 l 729 0 l 121 0 l 121 100 z "},"m":{"ha":850,"x_min":67,"x_max":783,"o":"m 783 0 l 675 0 l 675 494 q 653 574 675 543 q 582 606 631 606 q 508 572 536 606 q 479 467 479 538 l 479 0 l 371 0 l 371 500 q 346 576 371 546 q 279 606 321 606 q 202 569 229 606 q 175 475 175 533 l 175 0 l 67 0 l 67 689 l 175 689 l 175 614 l 192 614 q 244 685 210 663 q 326 708 279 708 q 409 682 376 708 q 454 614 442 656 l 471 614 q 621 708 518 708 q 741 659 699 708 q 783 531 783 610 l 783 0 z "},"n":{"ha":850,"x_min":121,"x_max":729,"o":"m 229 0 l 121 0 l 121 689 l 229 689 l 229 572 l 246 572 q 468 708 310 708 q 658 634 588 708 q 729 411 729 560 l 729 0 l 621 0 l 621 389 q 572 551 621 497 q 440 606 524 606 q 285 538 342 606 q 229 358 229 471 l 229 0 z "},"o":{"ha":850,"x_min":79,"x_max":771,"o":"m 771 336 q 742 184 771 250 q 667 73 714 118 q 556 4 619 28 q 425 -19 493 -19 q 293 4 356 -19 q 183 73 231 28 q 108 184 136 118 q 79 336 79 250 l 79 353 q 108 503 79 438 q 184 615 136 569 q 294 685 232 661 q 425 708 357 708 q 556 685 493 708 q 666 615 618 661 q 742 503 714 569 q 771 353 771 438 l 771 336 m 425 83 q 517 101 475 83 q 592 151 560 118 q 642 231 624 185 q 660 336 660 278 l 660 353 q 642 455 660 408 q 592 535 624 501 q 517 587 560 568 q 425 606 474 606 q 333 587 376 606 q 258 535 290 568 q 208 455 226 501 q 190 353 190 408 l 190 336 q 208 231 190 278 q 258 151 226 185 q 333 101 290 118 q 425 83 375 83 z "},"p":{"ha":850,"x_min":96,"x_max":776,"o":"m 204 -278 l 96 -278 l 96 689 l 204 689 l 204 581 l 221 581 q 321 676 257 643 q 460 708 385 708 q 581 685 524 708 q 681 617 638 661 q 751 507 725 572 q 776 358 776 442 l 776 331 q 751 181 776 246 q 683 71 726 115 q 581 3 639 26 q 457 -19 522 -19 q 389 -12 424 -19 q 323 12 354 -4 q 265 51 292 28 q 221 106 239 74 l 204 106 l 204 -278 m 435 83 q 526 101 485 83 q 599 150 568 118 q 648 228 631 182 q 665 331 665 274 l 665 358 q 648 459 665 414 q 599 537 631 504 q 526 588 568 569 q 435 606 483 606 q 344 587 386 606 q 272 535 303 568 q 222 455 240 501 q 204 353 204 408 l 204 336 q 222 233 204 279 q 272 153 240 186 q 344 101 303 119 q 435 83 386 83 z "},"q":{"ha":850,"x_min":76,"x_max":757,"o":"m 649 106 l 632 106 q 588 51 614 74 q 533 12 563 28 q 470 -12 503 -4 q 407 -19 438 -19 q 278 4 338 -19 q 173 72 218 28 q 102 183 128 117 q 76 333 76 249 l 76 356 q 103 505 76 439 q 174 616 129 571 q 278 685 218 661 q 404 708 338 708 q 535 676 475 708 q 632 581 596 643 l 649 581 l 649 689 l 757 689 l 757 -278 l 649 -278 l 649 106 m 418 83 q 508 101 467 83 q 581 153 550 119 q 631 233 613 186 q 649 336 649 279 l 649 353 q 631 455 649 408 q 581 535 613 501 q 508 587 550 568 q 418 606 465 606 q 327 588 369 606 q 253 536 285 569 q 205 457 222 503 q 188 356 188 411 l 188 333 q 205 229 188 275 q 253 151 222 183 q 326 101 285 118 q 418 83 368 83 z "},"r":{"ha":850,"x_min":65,"x_max":771,"o":"m 82 689 l 332 689 l 332 597 l 349 597 q 424 681 375 654 q 535 708 472 708 q 703 640 639 708 q 771 442 767 572 l 657 425 q 611 563 657 521 q 499 606 565 606 q 424 589 456 606 q 372 543 393 572 q 342 475 351 514 q 332 392 332 436 l 332 100 l 507 100 l 507 0 l 65 0 l 65 100 l 224 100 l 224 589 l 82 589 l 82 689 z "},"s":{"ha":850,"x_min":122,"x_max":708,"o":"m 264 511 q 306 435 264 461 q 461 400 349 408 q 645 342 582 390 q 708 203 708 294 l 708 194 q 688 105 708 144 q 633 38 668 65 q 547 -5 597 10 q 436 -19 496 -19 q 298 2 356 -19 q 202 59 240 24 q 144 140 164 94 q 122 231 125 185 l 225 256 q 286 128 232 176 q 431 81 340 81 q 553 110 507 81 q 600 194 600 140 q 554 278 600 253 q 406 310 508 303 q 222 365 286 318 q 158 503 158 413 l 158 511 q 179 597 158 560 q 235 658 200 633 q 315 696 271 683 q 408 708 360 708 q 528 690 476 708 q 614 641 579 671 q 667 572 649 611 q 692 494 686 533 l 589 469 q 535 574 582 536 q 414 611 489 611 q 358 605 385 611 q 310 586 331 599 q 276 555 289 574 q 264 511 264 536 z "},"t":{"ha":850,"x_min":97,"x_max":689,"o":"m 97 689 l 314 689 l 314 972 l 422 972 l 422 689 l 689 689 l 689 589 l 422 589 l 422 142 q 460 100 422 100 l 656 100 l 656 0 l 421 0 q 344 31 374 0 q 314 108 314 61 l 314 589 l 97 589 l 97 689 z "},"u":{"ha":850,"x_min":113,"x_max":721,"o":"m 613 689 l 721 689 l 721 0 l 613 0 l 613 125 l 596 125 q 508 19 563 58 q 371 -19 454 -19 q 266 -1 314 -19 q 184 56 218 18 q 131 149 150 93 q 113 278 113 204 l 113 689 l 221 689 l 221 292 q 265 133 221 183 q 401 83 310 83 q 556 151 500 83 q 613 331 613 218 l 613 689 z "},"v":{"ha":850,"x_min":76,"x_max":771,"o":"m 531 0 l 317 0 l 76 689 l 204 689 l 415 50 l 432 50 l 643 689 l 771 689 l 531 0 z "},"w":{"ha":850,"x_min":25,"x_max":825,"o":"m 717 0 l 517 0 l 433 639 l 417 639 l 333 0 l 133 0 l 25 689 l 136 689 l 228 50 l 244 50 l 325 689 l 525 689 l 606 50 l 622 50 l 714 689 l 825 689 l 717 0 z "},"x":{"ha":850,"x_min":99,"x_max":751,"o":"m 611 689 l 735 689 l 532 361 l 532 344 l 751 0 l 625 0 l 438 303 l 413 303 l 225 0 l 99 0 l 318 344 l 318 361 l 115 689 l 239 689 l 413 403 l 438 403 l 611 689 z "},"y":{"ha":850,"x_min":121,"x_max":729,"o":"m 621 125 l 604 125 q 517 19 571 58 q 379 -19 463 -19 q 274 -1 322 -19 q 192 56 226 18 q 140 149 158 93 q 121 278 121 204 l 121 689 l 229 689 l 229 292 q 274 133 229 183 q 410 83 318 83 q 565 151 508 83 q 621 331 621 218 l 621 689 l 729 689 l 729 -169 q 699 -247 729 -217 q 622 -278 669 -278 l 229 -278 l 229 -178 l 583 -178 q 621 -136 621 -178 l 621 125 z "},"z":{"ha":850,"x_min":126,"x_max":726,"o":"m 726 100 l 726 0 l 126 0 l 126 172 l 618 572 l 618 589 l 135 589 l 135 689 l 710 689 l 710 522 l 215 117 l 215 100 l 726 100 z "},"[":{"ha":850,"x_min":367,"x_max":608,"o":"m 367 1081 q 397 1158 367 1128 q 474 1189 426 1189 l 608 1189 l 608 1089 l 513 1089 q 475 1047 475 1089 l 475 -75 q 513 -117 475 -117 l 608 -117 l 608 -217 l 474 -217 q 397 -186 426 -217 q 367 -108 367 -156 l 367 1081 z "},"]":{"ha":850,"x_min":242,"x_max":483,"o":"m 483 -108 q 453 -186 483 -156 q 376 -217 424 -217 l 242 -217 l 242 -117 l 338 -117 q 375 -75 375 -117 l 375 1047 q 338 1089 375 1089 l 242 1089 l 242 1189 l 376 1189 q 453 1158 424 1189 q 483 1081 483 1128 l 483 -108 z "},"{":{"ha":850,"x_min":278,"x_max":628,"o":"m 386 1081 q 416 1158 386 1128 q 493 1189 446 1189 l 628 1189 l 628 1089 l 532 1089 q 494 1047 494 1089 l 494 603 q 465 525 494 556 q 386 494 435 494 l 369 494 l 369 478 l 386 478 q 465 447 435 478 q 494 369 494 417 l 494 -75 q 532 -117 494 -117 l 628 -117 l 628 -217 l 493 -217 q 416 -186 446 -217 q 386 -108 386 -156 l 386 371 q 349 411 386 411 l 278 411 l 278 561 l 349 561 q 386 601 386 561 l 386 1081 z "},"}":{"ha":850,"x_min":222,"x_max":572,"o":"m 464 601 q 501 561 464 561 l 572 561 l 572 411 l 501 411 q 464 371 464 411 l 464 -108 q 434 -186 464 -156 q 357 -217 404 -217 l 222 -217 l 222 -117 l 318 -117 q 356 -75 356 -117 l 356 369 q 385 447 356 417 q 464 478 415 478 l 481 478 l 481 494 l 464 494 q 385 525 415 494 q 356 603 356 556 l 356 1047 q 318 1089 356 1089 l 222 1089 l 222 1189 l 357 1189 q 434 1158 404 1189 q 464 1081 464 1128 l 464 601 z "},"(":{"ha":850,"x_min":217,"x_max":758,"o":"m 758 -114 l 758 -217 l 708 -217 q 522 -181 611 -217 q 365 -76 433 -144 q 257 90 297 -7 q 217 311 217 188 l 217 661 q 257 881 217 783 q 365 1048 297 979 q 522 1153 433 1117 q 708 1189 611 1189 l 758 1189 l 758 1086 l 708 1086 q 564 1056 633 1086 q 442 971 494 1026 q 357 835 389 915 q 325 656 325 756 l 325 317 q 357 137 325 217 q 442 1 389 57 q 564 -84 494 -54 q 708 -114 633 -114 l 758 -114 z "},")":{"ha":850,"x_min":92,"x_max":633,"o":"m 142 -114 q 286 -84 217 -114 q 408 1 356 -54 q 493 137 461 57 q 525 317 525 217 l 525 656 q 493 835 525 756 q 408 971 461 915 q 286 1056 356 1026 q 142 1086 217 1086 l 92 1086 l 92 1189 l 142 1189 q 328 1153 239 1189 q 485 1048 417 1117 q 593 881 553 979 q 633 661 633 783 l 633 311 q 593 90 633 188 q 485 -76 553 -7 q 328 -181 417 -144 q 142 -217 239 -217 l 92 -217 l 92 -114 l 142 -114 z "},"/":{"ha":850,"x_min":174,"x_max":676,"o":"m 579 1119 l 676 1089 l 272 -147 l 174 -117 l 579 1119 z "},"|":{"ha":850,"x_min":375,"x_max":475,"o":"m 475 -217 l 375 -217 l 375 1189 l 475 1189 l 475 -217 z "},"¦":{"ha":850,"x_min":375,"x_max":475,"o":"m 475 436 l 475 -217 l 375 -217 l 375 436 l 475 436 m 375 536 l 375 1189 l 475 1189 l 475 536 l 375 536 z "},"\\":{"ha":850,"x_min":174,"x_max":676,"o":"m 676 -117 l 578 -147 l 174 1089 l 271 1119 l 676 -117 z "},"'":{"ha":850,"x_min":328,"x_max":522,"o":"m 328 894 q 356 963 328 935 q 425 992 385 992 q 494 963 465 992 q 522 894 522 935 q 506 840 522 864 q 463 804 489 815 l 463 650 l 388 650 l 388 804 q 344 840 361 815 q 328 894 328 864 z "},"\"":{"ha":850,"x_min":201,"x_max":649,"o":"m 454 894 q 483 963 454 935 q 551 992 511 992 q 620 963 592 992 q 649 894 649 935 q 632 840 649 864 q 589 804 615 815 l 589 650 l 514 650 l 514 804 q 471 840 488 815 q 454 894 454 864 m 201 894 q 230 963 201 935 q 299 992 258 992 q 367 963 339 992 q 396 894 396 935 q 379 840 396 864 q 336 804 363 815 l 336 650 l 261 650 l 261 804 q 218 840 235 815 q 201 894 201 864 z "},"‘":{"ha":850,"x_min":328,"x_max":522,"o":"m 522 747 q 494 678 522 707 q 425 650 465 650 q 356 678 385 650 q 328 747 328 707 l 328 883 q 358 961 328 931 q 435 992 388 992 l 506 992 l 506 917 l 440 917 q 403 875 403 917 l 403 840 q 426 844 413 844 q 494 816 465 844 q 522 747 522 788 z "},"’":{"ha":850,"x_min":328,"x_max":522,"o":"m 328 894 q 356 963 328 935 q 425 992 385 992 q 494 963 465 992 q 522 894 522 935 l 522 758 q 492 681 522 711 q 415 650 463 650 l 344 650 l 344 725 l 410 725 q 447 767 447 725 l 447 801 q 424 797 436 797 q 356 826 385 797 q 328 894 328 854 z "},"“":{"ha":850,"x_min":201,"x_max":649,"o":"m 396 747 q 367 678 396 707 q 299 650 339 650 q 230 678 258 650 q 201 747 201 707 l 201 883 q 231 961 201 931 q 308 992 261 992 l 379 992 l 379 917 l 314 917 q 276 875 276 917 l 276 840 q 300 844 286 844 q 367 816 339 844 q 396 747 396 788 m 649 747 q 620 678 649 707 q 551 650 592 650 q 483 678 511 650 q 454 747 454 707 l 454 883 q 484 961 454 931 q 561 992 514 992 l 632 992 l 632 917 l 567 917 q 529 875 529 917 l 529 840 q 553 844 539 844 q 620 816 592 844 q 649 747 649 788 z "},"”":{"ha":850,"x_min":201,"x_max":649,"o":"m 454 894 q 483 963 454 935 q 551 992 511 992 q 620 963 592 992 q 649 894 649 935 l 649 758 q 619 681 649 711 q 542 650 589 650 l 471 650 l 471 725 l 536 725 q 574 767 574 725 l 574 801 q 550 797 563 797 q 483 826 511 797 q 454 894 454 854 m 201 894 q 230 963 201 935 q 299 992 258 992 q 367 963 339 992 q 396 894 396 935 l 396 758 q 366 681 396 711 q 289 650 336 650 l 218 650 l 218 725 l 283 725 q 321 767 321 725 l 321 801 q 297 797 310 797 q 230 826 258 797 q 201 894 201 854 z "},"‚":{"ha":850,"x_min":328,"x_max":522,"o":"m 328 97 q 356 166 328 138 q 425 194 385 194 q 494 166 465 194 q 522 97 522 138 l 522 -39 q 492 -117 522 -86 q 415 -147 463 -147 l 344 -147 l 344 -72 l 410 -72 q 447 -31 447 -72 l 447 4 q 424 0 436 0 q 356 28 385 0 q 328 97 328 57 z "},"„":{"ha":850,"x_min":201,"x_max":649,"o":"m 454 97 q 483 166 454 138 q 551 194 511 194 q 620 166 592 194 q 649 97 649 138 l 649 -39 q 619 -117 649 -86 q 542 -147 589 -147 l 471 -147 l 471 -72 l 536 -72 q 574 -31 574 -72 l 574 4 q 550 0 563 0 q 483 28 511 0 q 454 97 454 57 m 201 97 q 230 166 201 138 q 299 194 258 194 q 367 166 339 194 q 396 97 396 138 l 396 -39 q 366 -117 396 -86 q 289 -147 336 -147 l 218 -147 l 218 -72 l 283 -72 q 321 -31 321 -72 l 321 4 q 297 0 310 0 q 230 28 258 0 q 201 97 201 57 z "},".":{"ha":850,"x_min":328,"x_max":522,"o":"m 328 78 q 356 147 328 118 q 425 175 385 175 q 494 147 465 175 q 522 78 522 118 q 494 9 522 38 q 425 -19 465 -19 q 356 9 385 -19 q 328 78 328 38 z "},",":{"ha":850,"x_min":328,"x_max":522,"o":"m 328 78 q 356 147 328 118 q 425 175 385 175 q 494 147 465 175 q 522 78 522 118 l 522 -58 q 492 -136 522 -106 q 415 -167 463 -167 l 344 -167 l 344 -92 l 410 -92 q 447 -50 447 -92 l 447 -15 q 424 -19 436 -19 q 356 9 385 -19 q 328 78 328 38 z "},":":{"ha":850,"x_min":328,"x_max":522,"o":"m 328 78 q 356 147 328 118 q 425 175 385 175 q 494 147 465 175 q 522 78 522 118 q 494 9 522 38 q 425 -19 465 -19 q 356 9 385 -19 q 328 78 328 38 m 328 611 q 356 680 328 651 q 425 708 385 708 q 494 680 465 708 q 522 611 522 651 q 494 542 522 571 q 425 514 465 514 q 356 542 385 514 q 328 611 328 571 z "},";":{"ha":850,"x_min":328,"x_max":522,"o":"m 328 78 q 356 147 328 118 q 425 175 385 175 q 494 147 465 175 q 522 78 522 118 l 522 -58 q 492 -136 522 -106 q 415 -167 463 -167 l 344 -167 l 344 -92 l 410 -92 q 447 -50 447 -92 l 447 -15 q 424 -19 436 -19 q 356 9 385 -19 q 328 78 328 38 m 328 611 q 356 680 328 651 q 425 708 385 708 q 494 680 465 708 q 522 611 522 651 q 494 542 522 571 q 425 514 465 514 q 356 542 385 514 q 328 611 328 571 z "},"…":{"ha":850,"x_min":83,"x_max":767,"o":"m 83 78 q 112 147 83 118 q 181 175 140 175 q 249 147 221 175 q 278 78 278 118 q 249 9 278 38 q 181 -19 221 -19 q 112 9 140 -19 q 83 78 83 38 m 328 78 q 356 147 328 118 q 425 175 385 175 q 494 147 465 175 q 522 78 522 118 q 494 9 522 38 q 425 -19 465 -19 q 356 9 385 -19 q 328 78 328 38 m 572 78 q 601 147 572 118 q 669 175 629 175 q 738 147 710 175 q 767 78 767 118 q 738 9 767 38 q 669 -19 710 -19 q 601 9 629 -19 q 572 78 572 38 z "},"!":{"ha":850,"x_min":328,"x_max":522,"o":"m 328 78 q 356 147 328 118 q 425 175 385 175 q 494 147 465 175 q 522 78 522 118 q 494 9 522 38 q 425 -19 465 -19 q 356 9 385 -19 q 328 78 328 38 m 481 972 l 481 258 l 369 258 l 369 972 l 481 972 z "},"¡":{"ha":850,"x_min":328,"x_max":522,"o":"m 328 617 q 356 548 328 576 q 425 519 385 519 q 494 548 465 519 q 522 617 522 576 q 494 685 522 657 q 425 714 465 714 q 356 685 385 714 q 328 617 328 657 m 481 -278 l 481 436 l 369 436 l 369 -278 l 481 -278 z "},"?":{"ha":850,"x_min":100,"x_max":750,"o":"m 489 508 q 592 554 551 508 q 633 675 633 600 l 633 683 q 619 761 633 725 q 578 824 604 797 q 514 867 551 851 q 431 883 476 883 q 274 822 331 883 q 217 661 217 761 l 217 603 l 100 603 l 100 669 q 122 792 100 733 q 185 894 143 850 q 289 965 226 939 q 433 992 351 992 q 561 968 503 992 q 661 903 619 944 q 726 809 703 863 q 750 696 750 756 l 750 671 q 731 567 750 617 q 679 482 713 518 q 601 424 646 446 q 503 403 556 403 l 483 403 q 444 361 444 403 l 444 258 l 333 258 l 333 389 q 367 475 333 442 q 453 508 400 508 l 489 508 m 293 78 q 322 147 293 118 q 390 175 350 175 q 459 147 431 175 q 488 78 488 118 q 459 9 488 38 q 390 -19 431 -19 q 322 9 350 -19 q 293 78 293 38 z "},"¿":{"ha":850,"x_min":100,"x_max":751,"o":"m 361 189 q 258 143 299 189 q 217 22 217 97 l 217 14 q 231 -64 217 -28 q 272 -127 246 -100 q 336 -170 299 -154 q 419 -186 374 -186 q 576 -125 519 -186 q 633 36 633 -64 l 633 94 l 750 94 l 750 28 q 728 -94 750 -36 q 665 -197 707 -153 q 561 -268 624 -242 q 417 -294 499 -294 q 289 -271 347 -294 q 189 -206 231 -247 q 124 -112 147 -165 q 100 1 100 -58 l 100 26 q 119 130 100 81 q 171 215 138 179 q 249 273 204 251 q 347 294 294 294 l 367 294 q 406 336 406 294 l 406 439 l 517 439 l 517 308 q 483 222 517 256 q 397 189 450 189 l 361 189 m 557 619 q 528 551 557 579 q 460 522 500 522 q 391 551 419 522 q 363 619 363 579 q 391 688 363 660 q 460 717 419 717 q 528 688 500 717 q 557 619 557 660 z "},"‹":{"ha":850,"x_min":258,"x_max":592,"o":"m 583 17 l 258 236 l 258 453 l 583 672 l 592 672 l 592 550 l 300 353 l 300 336 l 592 139 l 592 17 l 583 17 z "},"›":{"ha":850,"x_min":258,"x_max":592,"o":"m 258 17 l 258 139 l 550 336 l 550 353 l 258 550 l 258 672 l 267 672 l 592 453 l 592 236 l 267 17 l 258 17 z "},"«":{"ha":850,"x_min":108,"x_max":742,"o":"m 433 17 l 108 236 l 108 453 l 433 672 l 442 672 l 442 550 l 150 353 l 150 336 l 442 139 l 442 17 l 433 17 m 733 17 l 408 236 l 408 453 l 733 672 l 742 672 l 742 550 l 450 353 l 450 336 l 742 139 l 742 17 l 733 17 z "},"»":{"ha":850,"x_min":108,"x_max":742,"o":"m 408 17 l 408 139 l 700 336 l 700 353 l 408 550 l 408 672 l 417 672 l 742 453 l 742 236 l 417 17 l 408 17 m 108 17 l 108 139 l 400 336 l 400 353 l 108 550 l 108 672 l 117 672 l 442 453 l 442 236 l 117 17 l 108 17 z "},"-":{"ha":850,"x_min":217,"x_max":633,"o":"m 217 411 l 633 411 l 633 311 l 217 311 l 217 411 z "},"–":{"ha":850,"x_min":101,"x_max":749,"o":"m 101 411 l 749 411 l 749 311 l 101 311 l 101 411 z "},"—":{"ha":850,"x_min":17,"x_max":833,"o":"m 17 411 l 833 411 l 833 311 l 17 311 l 17 411 z "},"·":{"ha":850,"x_min":328,"x_max":522,"o":"m 328 486 q 356 555 328 526 q 425 583 385 583 q 494 555 465 583 q 522 486 522 526 q 494 417 522 446 q 425 389 465 389 q 356 417 385 389 q 328 486 328 446 z "},"•":{"ha":850,"x_min":261,"x_max":589,"o":"m 261 486 q 274 549 261 519 q 310 601 288 579 q 362 637 332 624 q 425 650 392 650 q 488 637 458 650 q 540 601 518 624 q 576 549 563 579 q 589 486 589 519 q 576 423 589 453 q 540 371 563 393 q 488 335 518 349 q 425 322 458 322 q 362 335 392 322 q 310 371 332 349 q 274 423 288 393 q 261 486 261 453 z "},"_":{"ha":850,"x_min":101,"x_max":749,"o":"m 101 -67 l 749 -67 l 749 -167 l 101 -167 l 101 -67 z "},"@":{"ha":850,"x_min":53,"x_max":783,"o":"m 108 708 l 108 808 l 511 808 q 711 742 639 808 q 783 536 783 675 l 783 108 q 753 31 783 61 q 676 0 724 0 l 565 0 q 490 27 514 0 q 467 92 467 54 l 450 92 q 394 10 433 39 q 289 -19 354 -19 q 194 1 238 -19 q 120 61 151 22 q 71 156 89 100 q 53 282 53 213 l 53 307 q 71 432 53 376 q 120 527 89 488 q 194 588 151 567 q 286 608 238 608 q 384 584 350 608 q 442 514 418 560 l 458 514 l 458 589 l 567 589 l 567 142 q 604 100 567 100 l 638 100 q 675 142 675 100 l 675 525 q 633 662 675 615 q 500 708 590 708 l 108 708 m 310 83 q 380 99 351 83 q 426 141 408 114 q 451 204 443 168 q 458 282 458 240 l 458 307 q 451 382 458 346 q 426 446 443 418 q 380 490 408 474 q 310 506 351 506 q 247 490 275 506 q 201 448 219 475 q 172 385 182 421 q 161 307 161 349 l 161 282 q 200 139 161 194 q 310 83 239 83 z "},"&":{"ha":850,"x_min":72,"x_max":806,"o":"m 806 433 l 671 433 l 671 0 l 360 0 q 236 19 290 0 q 146 73 182 39 q 91 153 110 107 q 72 254 72 200 l 72 271 q 119 405 72 350 q 236 479 167 460 l 236 496 q 119 569 167 514 q 72 703 72 624 l 72 719 q 91 820 72 774 q 146 900 110 867 q 236 953 182 933 q 360 972 290 972 l 538 972 l 538 864 l 368 864 q 235 823 286 864 q 183 711 183 782 l 183 703 q 232 585 183 628 q 364 542 281 542 l 554 542 l 554 689 l 671 689 l 671 542 l 806 542 l 806 433 m 554 108 l 554 433 l 364 433 q 232 390 281 433 q 183 271 183 346 l 183 263 q 235 149 183 190 q 368 108 286 108 l 554 108 z "},"*":{"ha":850,"x_min":81,"x_max":769,"o":"m 704 694 l 582 572 l 513 533 l 519 517 l 582 536 l 769 536 l 769 436 l 582 436 l 519 456 l 513 439 l 582 400 l 704 278 l 633 207 l 511 329 l 472 399 l 456 392 l 475 329 l 475 142 l 375 142 l 375 329 l 394 392 l 378 399 l 339 329 l 217 207 l 146 278 l 268 400 l 338 439 l 331 456 l 268 436 l 81 436 l 81 536 l 268 536 l 331 517 l 338 533 l 268 572 l 146 694 l 217 765 l 339 643 l 378 574 l 394 581 l 375 643 l 375 831 l 475 831 l 475 643 l 456 581 l 472 574 l 511 643 l 633 765 l 704 694 z "},"À":{"ha":850,"x_min":21,"x_max":829,"o":"m 633 242 l 217 242 l 146 0 l 21 0 l 315 972 l 535 972 l 829 0 l 704 0 l 633 242 m 417 922 l 249 350 l 601 350 l 433 922 l 417 922 m 376 1239 l 468 1075 l 368 1075 l 251 1239 l 376 1239 z "},"Á":{"ha":850,"x_min":21,"x_max":829,"o":"m 633 242 l 217 242 l 146 0 l 21 0 l 315 972 l 535 972 l 829 0 l 704 0 l 633 242 m 417 922 l 249 350 l 601 350 l 433 922 l 417 922 m 599 1239 l 482 1075 l 382 1075 l 474 1239 l 599 1239 z "},"Â":{"ha":850,"x_min":21,"x_max":829,"o":"m 633 242 l 217 242 l 146 0 l 21 0 l 315 972 l 535 972 l 829 0 l 704 0 l 633 242 m 417 922 l 249 350 l 601 350 l 433 922 l 417 922 m 506 1075 l 433 1197 l 417 1197 l 344 1075 l 228 1075 l 339 1239 l 511 1239 l 622 1075 l 506 1075 z "},"Ã":{"ha":850,"x_min":21,"x_max":829,"o":"m 633 242 l 217 242 l 146 0 l 21 0 l 315 972 l 535 972 l 829 0 l 704 0 l 633 242 m 417 922 l 249 350 l 601 350 l 433 922 l 417 922 m 468 1175 q 482 1154 475 1161 q 501 1147 489 1147 q 528 1161 515 1147 l 594 1238 l 663 1179 l 606 1111 q 560 1070 586 1088 q 497 1053 533 1053 q 431 1072 454 1053 q 385 1135 408 1092 q 369 1158 375 1151 q 351 1165 363 1165 q 321 1149 336 1165 l 257 1075 l 189 1133 l 246 1201 q 292 1242 265 1225 q 356 1260 318 1260 q 419 1240 396 1260 q 468 1175 443 1219 z "},"Ä":{"ha":850,"x_min":21,"x_max":829,"o":"m 633 242 l 217 242 l 146 0 l 21 0 l 315 972 l 535 972 l 829 0 l 704 0 l 633 242 m 417 922 l 249 350 l 601 350 l 433 922 l 417 922 m 189 1178 q 217 1247 189 1218 q 286 1275 246 1275 q 355 1247 326 1275 q 383 1178 383 1218 q 355 1109 383 1138 q 286 1081 326 1081 q 217 1109 246 1081 q 189 1178 189 1138 m 467 1178 q 495 1247 467 1218 q 564 1275 524 1275 q 633 1247 604 1275 q 661 1178 661 1218 q 633 1109 661 1138 q 564 1081 604 1081 q 495 1109 524 1081 q 467 1178 467 1138 z "},"Ā":{"ha":850,"x_min":21,"x_max":829,"o":"m 633 242 l 217 242 l 146 0 l 21 0 l 315 972 l 535 972 l 829 0 l 704 0 l 633 242 m 417 922 l 249 350 l 601 350 l 433 922 l 417 922 m 621 1075 l 229 1075 l 229 1167 l 621 1167 l 621 1075 z "},"Ă":{"ha":850,"x_min":21,"x_max":829,"o":"m 633 242 l 217 242 l 146 0 l 21 0 l 315 972 l 535 972 l 829 0 l 704 0 l 633 242 m 417 922 l 249 350 l 601 350 l 433 922 l 417 922 m 575 1239 l 575 1225 q 535 1117 575 1158 q 425 1075 494 1075 q 315 1117 356 1075 q 275 1225 275 1158 l 275 1239 l 371 1239 l 371 1222 q 385 1184 371 1200 q 425 1168 399 1168 q 465 1184 451 1168 q 479 1222 479 1200 l 479 1239 l 575 1239 z "},"Å":{"ha":850,"x_min":21,"x_max":829,"o":"m 633 242 l 217 242 l 146 0 l 21 0 l 315 972 l 535 972 l 829 0 l 704 0 l 633 242 m 417 922 l 249 350 l 601 350 l 433 922 l 417 922 m 283 1214 q 324 1315 283 1274 q 425 1356 365 1356 q 526 1315 485 1356 q 567 1214 567 1274 q 526 1113 567 1154 q 425 1072 485 1072 q 324 1113 365 1072 q 283 1214 283 1154 m 367 1214 q 383 1172 367 1189 q 425 1156 400 1156 q 467 1172 450 1156 q 483 1214 483 1189 q 467 1256 483 1239 q 425 1272 450 1272 q 383 1256 400 1272 q 367 1214 367 1239 z "},"Ǎ":{"ha":850,"x_min":21,"x_max":829,"o":"m 633 242 l 217 242 l 146 0 l 21 0 l 315 972 l 535 972 l 829 0 l 704 0 l 633 242 m 417 922 l 249 350 l 601 350 l 433 922 l 417 922 m 622 1239 l 511 1075 l 339 1075 l 228 1239 l 344 1239 l 417 1117 l 433 1117 l 506 1239 l 622 1239 z "},"Ą":{"ha":850,"x_min":21,"x_max":867,"o":"m 633 242 l 217 242 l 146 0 l 21 0 l 315 972 l 535 972 l 829 0 l 800 0 l 778 -94 q 776 -106 776 -101 q 808 -136 776 -136 l 867 -136 l 867 -228 l 789 -228 q 715 -202 749 -228 q 681 -125 681 -176 q 685 -92 681 -112 l 704 0 l 633 242 m 417 922 l 249 350 l 601 350 l 433 922 l 417 922 z "},"Ạ":{"ha":850,"x_min":21,"x_max":829,"o":"m 633 242 l 217 242 l 146 0 l 21 0 l 315 972 l 535 972 l 829 0 l 704 0 l 633 242 m 417 922 l 249 350 l 601 350 l 433 922 l 417 922 m 328 -185 q 356 -116 328 -144 q 425 -87 385 -87 q 494 -116 465 -87 q 522 -185 522 -144 q 494 -253 522 -225 q 425 -282 465 -282 q 356 -253 385 -282 q 328 -185 328 -225 z "},"Ả":{"ha":850,"x_min":21,"x_max":829,"o":"m 378 1042 l 350 1169 l 350 1178 l 456 1178 q 490 1158 465 1158 q 524 1172 510 1158 q 539 1211 539 1186 q 522 1256 539 1242 q 483 1269 504 1269 q 437 1252 453 1269 q 417 1214 421 1235 l 350 1239 q 393 1308 361 1281 q 485 1336 425 1336 q 576 1302 539 1336 q 614 1210 614 1268 q 585 1126 614 1161 q 508 1092 557 1092 q 433 1136 451 1092 l 425 1136 l 446 1042 l 378 1042 m 633 242 l 217 242 l 146 0 l 21 0 l 315 972 l 535 972 l 829 0 l 704 0 l 633 242 m 417 922 l 249 350 l 601 350 l 433 922 l 417 922 z "},"Ấ":{"ha":850,"x_min":21,"x_max":829,"o":"m 633 242 l 217 242 l 146 0 l 21 0 l 315 972 l 535 972 l 829 0 l 704 0 l 633 242 m 417 922 l 249 350 l 601 350 l 433 922 l 417 922 m 806 1361 l 689 1197 l 589 1197 l 681 1361 l 806 1361 m 506 1075 l 433 1197 l 417 1197 l 344 1075 l 228 1075 l 339 1239 l 511 1239 l 622 1075 l 506 1075 z "},"Ầ":{"ha":850,"x_min":21,"x_max":829,"o":"m 633 242 l 217 242 l 146 0 l 21 0 l 315 972 l 535 972 l 829 0 l 704 0 l 633 242 m 417 922 l 249 350 l 601 350 l 433 922 l 417 922 m 506 1075 l 433 1197 l 417 1197 l 344 1075 l 228 1075 l 339 1239 l 511 1239 l 622 1075 l 506 1075 m 171 1361 l 263 1197 l 163 1197 l 46 1361 l 171 1361 z "},"Ẩ":{"ha":850,"x_min":21,"x_max":829,"o":"m 589 1192 l 561 1319 l 561 1328 l 667 1328 q 701 1308 676 1308 q 735 1322 721 1308 q 750 1361 750 1336 q 733 1406 750 1392 q 694 1419 715 1419 q 648 1402 664 1419 q 628 1364 632 1385 l 561 1389 q 604 1458 572 1431 q 696 1486 636 1486 q 788 1452 750 1486 q 825 1360 825 1418 q 797 1276 825 1311 q 719 1242 768 1242 q 644 1286 663 1242 l 636 1286 l 657 1192 l 589 1192 m 633 242 l 217 242 l 146 0 l 21 0 l 315 972 l 535 972 l 829 0 l 704 0 l 633 242 m 417 922 l 249 350 l 601 350 l 433 922 l 417 922 m 506 1075 l 433 1197 l 417 1197 l 344 1075 l 228 1075 l 339 1239 l 511 1239 l 622 1075 l 506 1075 z "},"Ẫ":{"ha":850,"x_min":21,"x_max":829,"o":"m 633 242 l 217 242 l 146 0 l 21 0 l 315 972 l 535 972 l 829 0 l 704 0 l 633 242 m 417 922 l 249 350 l 601 350 l 433 922 l 417 922 m 506 1014 l 433 1136 l 417 1136 l 344 1014 l 228 1014 l 339 1178 l 511 1178 l 622 1014 l 506 1014 m 468 1342 q 482 1321 475 1328 q 501 1314 489 1314 q 528 1328 515 1314 l 594 1404 l 663 1346 l 606 1278 q 560 1237 586 1254 q 497 1219 533 1219 q 431 1239 454 1219 q 385 1301 408 1258 q 369 1325 375 1318 q 351 1332 363 1332 q 321 1315 336 1332 l 257 1242 l 189 1300 l 246 1368 q 292 1409 265 1392 q 356 1426 318 1426 q 419 1406 396 1426 q 468 1342 443 1386 z "},"Ậ":{"ha":850,"x_min":21,"x_max":829,"o":"m 633 242 l 217 242 l 146 0 l 21 0 l 315 972 l 535 972 l 829 0 l 704 0 l 633 242 m 417 922 l 249 350 l 601 350 l 433 922 l 417 922 m 506 1075 l 433 1197 l 417 1197 l 344 1075 l 228 1075 l 339 1239 l 511 1239 l 622 1075 l 506 1075 m 328 -185 q 356 -116 328 -144 q 425 -87 385 -87 q 494 -116 465 -87 q 522 -185 522 -144 q 494 -253 522 -225 q 425 -282 465 -282 q 356 -253 385 -282 q 328 -185 328 -225 z "},"Ắ":{"ha":850,"x_min":21,"x_max":829,"o":"m 633 242 l 217 242 l 146 0 l 21 0 l 315 972 l 535 972 l 829 0 l 704 0 l 633 242 m 417 922 l 249 350 l 601 350 l 433 922 l 417 922 m 575 1178 l 575 1164 q 535 1056 575 1097 q 425 1014 494 1014 q 315 1056 356 1014 q 275 1164 275 1097 l 275 1178 l 371 1178 l 371 1161 q 385 1123 371 1139 q 425 1107 399 1107 q 465 1123 451 1107 q 479 1161 479 1139 l 479 1178 l 575 1178 m 592 1383 l 475 1219 l 375 1219 l 467 1383 l 592 1383 z "},"Ằ":{"ha":850,"x_min":21,"x_max":829,"o":"m 633 242 l 217 242 l 146 0 l 21 0 l 315 972 l 535 972 l 829 0 l 704 0 l 633 242 m 417 922 l 249 350 l 601 350 l 433 922 l 417 922 m 575 1178 l 575 1164 q 535 1056 575 1097 q 425 1014 494 1014 q 315 1056 356 1014 q 275 1164 275 1097 l 275 1178 l 371 1178 l 371 1161 q 385 1123 371 1139 q 425 1107 399 1107 q 465 1123 451 1107 q 479 1161 479 1139 l 479 1178 l 575 1178 m 385 1383 l 476 1219 l 376 1219 l 260 1383 l 385 1383 z "},"Ẳ":{"ha":850,"x_min":21,"x_max":829,"o":"m 633 242 l 217 242 l 146 0 l 21 0 l 315 972 l 535 972 l 829 0 l 704 0 l 633 242 m 417 922 l 249 350 l 601 350 l 433 922 l 417 922 m 575 1178 l 575 1164 q 535 1056 575 1097 q 425 1014 494 1014 q 315 1056 356 1014 q 275 1164 275 1097 l 275 1178 l 371 1178 l 371 1161 q 385 1123 371 1139 q 425 1107 399 1107 q 465 1123 451 1107 q 479 1161 479 1139 l 479 1178 l 575 1178 m 458 1219 l 438 1314 l 446 1314 q 521 1269 464 1269 q 598 1304 569 1269 q 626 1387 626 1339 q 589 1480 626 1446 q 497 1514 551 1514 q 406 1486 438 1514 q 363 1417 374 1458 l 429 1392 q 449 1430 433 1412 q 496 1447 465 1447 q 534 1433 517 1447 q 551 1389 551 1419 q 537 1350 551 1364 q 503 1336 522 1336 q 468 1356 478 1336 l 363 1356 l 363 1347 l 390 1219 l 458 1219 z "},"Ẵ":{"ha":850,"x_min":21,"x_max":829,"o":"m 633 242 l 217 242 l 146 0 l 21 0 l 315 972 l 535 972 l 829 0 l 704 0 l 633 242 m 417 922 l 249 350 l 601 350 l 433 922 l 417 922 m 575 1178 l 575 1164 q 535 1056 575 1097 q 425 1014 494 1014 q 315 1056 356 1014 q 275 1164 275 1097 l 275 1178 l 371 1178 l 371 1161 q 385 1123 371 1139 q 425 1107 399 1107 q 465 1123 451 1107 q 479 1161 479 1139 l 479 1178 l 575 1178 m 468 1342 q 482 1321 475 1328 q 501 1314 489 1314 q 528 1328 515 1314 l 594 1404 l 663 1346 l 606 1278 q 560 1237 586 1254 q 497 1219 533 1219 q 431 1239 454 1219 q 385 1301 408 1258 q 369 1325 375 1318 q 351 1332 363 1332 q 321 1315 336 1332 l 257 1242 l 189 1300 l 246 1368 q 292 1409 265 1392 q 356 1426 318 1426 q 419 1406 396 1426 q 468 1342 443 1386 z "},"Ặ":{"ha":850,"x_min":21,"x_max":829,"o":"m 633 242 l 217 242 l 146 0 l 21 0 l 315 972 l 535 972 l 829 0 l 704 0 l 633 242 m 417 922 l 249 350 l 601 350 l 433 922 l 417 922 m 575 1239 l 575 1225 q 535 1117 575 1158 q 425 1075 494 1075 q 315 1117 356 1075 q 275 1225 275 1158 l 275 1239 l 371 1239 l 371 1222 q 385 1184 371 1200 q 425 1168 399 1168 q 465 1184 451 1168 q 479 1222 479 1200 l 479 1239 l 575 1239 m 328 -185 q 356 -116 328 -144 q 425 -87 385 -87 q 494 -116 465 -87 q 522 -185 522 -144 q 494 -253 522 -225 q 425 -282 465 -282 q 356 -253 385 -282 q 328 -185 328 -225 z "},"Æ":{"ha":850,"x_min":21,"x_max":758,"o":"m 417 242 l 217 242 l 146 0 l 21 0 l 315 972 l 750 972 l 750 864 l 533 864 l 533 542 l 742 542 l 742 433 l 533 433 l 533 108 l 758 108 l 758 0 l 417 0 l 417 242 m 249 350 l 417 350 l 417 864 l 400 864 l 249 350 z "},"Ƀ":{"ha":850,"x_min":79,"x_max":760,"o":"m 79 325 l 163 325 l 163 864 l 79 864 l 79 972 l 472 972 q 595 953 542 972 q 685 900 649 933 q 741 820 722 867 q 760 719 760 774 l 760 703 q 747 629 760 663 q 713 569 735 596 q 660 524 690 543 q 596 496 631 506 l 596 479 q 713 405 665 460 q 760 271 760 350 l 760 254 q 741 153 760 200 q 685 73 722 107 q 595 19 649 39 q 472 0 542 0 l 79 0 l 79 108 l 163 108 l 163 217 l 79 217 l 79 325 m 279 542 l 468 542 q 600 585 551 542 q 649 703 649 628 l 649 711 q 597 823 649 782 q 464 864 546 864 l 279 864 l 279 542 m 279 325 l 429 325 l 429 217 l 279 217 l 279 108 l 464 108 q 597 149 546 108 q 649 263 649 190 l 649 271 q 600 390 649 346 q 468 433 551 433 l 279 433 l 279 325 z "},"Ç":{"ha":850,"x_min":89,"x_max":772,"o":"m 431 89 q 533 109 490 89 q 602 163 575 129 q 642 241 629 197 q 656 333 656 285 l 656 350 l 772 350 l 772 333 q 750 195 772 260 q 685 83 728 131 q 578 8 642 35 q 431 -19 514 -19 l 419 -19 l 403 -94 l 411 -94 q 486 -50 429 -50 q 563 -85 535 -50 q 592 -168 592 -119 q 554 -260 592 -226 q 463 -294 517 -294 q 371 -267 403 -294 q 328 -197 339 -239 l 394 -172 q 415 -210 399 -193 q 461 -228 431 -228 q 499 -214 482 -228 q 517 -169 517 -200 q 502 -131 517 -144 q 468 -117 488 -117 q 433 -136 443 -117 l 328 -136 l 328 -128 l 353 -12 q 158 108 226 10 q 89 378 89 207 l 89 594 q 179 888 89 783 q 431 992 269 992 q 578 965 514 992 q 685 890 642 938 q 750 777 728 842 q 772 639 772 713 l 772 622 l 656 622 l 656 639 q 641 731 654 686 q 601 809 628 775 q 532 863 574 843 q 431 883 490 883 q 262 801 318 883 q 206 586 206 719 l 206 386 q 262 166 206 243 q 431 89 318 89 z "},"Ć":{"ha":850,"x_min":89,"x_max":772,"o":"m 431 89 q 533 109 490 89 q 602 163 575 129 q 642 241 629 197 q 656 333 656 285 l 656 350 l 772 350 l 772 333 q 750 195 772 260 q 685 83 728 131 q 578 8 642 35 q 431 -19 514 -19 q 179 82 269 -19 q 89 378 89 183 l 89 594 q 179 888 89 783 q 431 992 269 992 q 578 965 514 992 q 685 890 642 938 q 750 777 728 842 q 772 639 772 713 l 772 622 l 656 622 l 656 639 q 641 731 654 686 q 601 809 628 775 q 532 863 574 843 q 431 883 490 883 q 262 801 318 883 q 206 586 206 719 l 206 386 q 262 166 206 243 q 431 89 318 89 m 600 1239 l 483 1075 l 383 1075 l 475 1239 l 600 1239 z "},"Ĉ":{"ha":850,"x_min":89,"x_max":772,"o":"m 431 89 q 533 109 490 89 q 602 163 575 129 q 642 241 629 197 q 656 333 656 285 l 656 350 l 772 350 l 772 333 q 750 195 772 260 q 685 83 728 131 q 578 8 642 35 q 431 -19 514 -19 q 179 82 269 -19 q 89 378 89 183 l 89 594 q 179 888 89 783 q 431 992 269 992 q 578 965 514 992 q 685 890 642 938 q 750 777 728 842 q 772 639 772 713 l 772 622 l 656 622 l 656 639 q 641 731 654 686 q 601 809 628 775 q 532 863 574 843 q 431 883 490 883 q 262 801 318 883 q 206 586 206 719 l 206 386 q 262 166 206 243 q 431 89 318 89 m 511 1075 l 439 1197 l 422 1197 l 350 1075 l 233 1075 l 344 1239 l 517 1239 l 628 1075 l 511 1075 z "},"Č":{"ha":850,"x_min":89,"x_max":772,"o":"m 431 89 q 533 109 490 89 q 602 163 575 129 q 642 241 629 197 q 656 333 656 285 l 656 350 l 772 350 l 772 333 q 750 195 772 260 q 685 83 728 131 q 578 8 642 35 q 431 -19 514 -19 q 179 82 269 -19 q 89 378 89 183 l 89 594 q 179 888 89 783 q 431 992 269 992 q 578 965 514 992 q 685 890 642 938 q 750 777 728 842 q 772 639 772 713 l 772 622 l 656 622 l 656 639 q 641 731 654 686 q 601 809 628 775 q 532 863 574 843 q 431 883 490 883 q 262 801 318 883 q 206 586 206 719 l 206 386 q 262 166 206 243 q 431 89 318 89 m 628 1239 l 517 1075 l 344 1075 l 233 1239 l 350 1239 l 422 1117 l 439 1117 l 511 1239 l 628 1239 z "},"Ċ":{"ha":850,"x_min":89,"x_max":772,"o":"m 431 89 q 533 109 490 89 q 602 163 575 129 q 642 241 629 197 q 656 333 656 285 l 656 350 l 772 350 l 772 333 q 750 195 772 260 q 685 83 728 131 q 578 8 642 35 q 431 -19 514 -19 q 179 82 269 -19 q 89 378 89 183 l 89 594 q 179 888 89 783 q 431 992 269 992 q 578 965 514 992 q 685 890 642 938 q 750 777 728 842 q 772 639 772 713 l 772 622 l 656 622 l 656 639 q 641 731 654 686 q 601 809 628 775 q 532 863 574 843 q 431 883 490 883 q 262 801 318 883 q 206 586 206 719 l 206 386 q 262 166 206 243 q 431 89 318 89 m 333 1178 q 362 1247 333 1218 q 431 1275 390 1275 q 499 1247 471 1275 q 528 1178 528 1218 q 499 1109 528 1138 q 431 1081 471 1081 q 362 1109 390 1081 q 333 1178 333 1138 z "},"Ð":{"ha":850,"x_min":101,"x_max":768,"o":"m 101 540 l 185 540 l 185 864 l 101 864 l 101 972 l 421 972 q 685 886 601 972 q 768 611 768 800 l 768 361 q 685 86 768 172 q 421 0 601 0 l 101 0 l 101 108 l 185 108 l 185 432 l 101 432 l 101 540 m 404 108 q 515 121 468 108 q 592 163 561 133 q 637 243 622 193 q 651 369 651 293 l 651 603 q 637 729 651 679 q 592 809 622 779 q 515 851 561 839 q 404 864 468 864 l 301 864 l 301 540 l 451 540 l 451 432 l 301 432 l 301 108 l 404 108 z "},"Ď":{"ha":850,"x_min":101,"x_max":768,"o":"m 101 972 l 421 972 q 685 886 601 972 q 768 611 768 800 l 768 361 q 685 86 768 172 q 421 0 601 0 l 101 0 l 101 110 l 185 110 l 185 864 l 101 864 l 101 972 m 404 108 q 515 121 468 108 q 592 163 561 133 q 637 243 622 193 q 651 369 651 293 l 651 603 q 637 729 651 679 q 592 809 622 779 q 515 851 561 839 q 404 864 468 864 l 301 864 l 301 108 l 404 108 m 624 1239 l 513 1075 l 340 1075 l 229 1239 l 346 1239 l 418 1117 l 435 1117 l 507 1239 l 624 1239 z "},"Ḍ":{"ha":850,"x_min":101,"x_max":768,"o":"m 101 972 l 421 972 q 685 886 601 972 q 768 611 768 800 l 768 361 q 685 86 768 172 q 421 0 601 0 l 101 0 l 101 110 l 185 110 l 185 864 l 101 864 l 101 972 m 404 108 q 515 121 468 108 q 592 163 561 133 q 637 243 622 193 q 651 369 651 293 l 651 603 q 637 729 651 679 q 592 809 622 779 q 515 851 561 839 q 404 864 468 864 l 301 864 l 301 108 l 404 108 m 328 -185 q 356 -116 328 -144 q 425 -87 385 -87 q 494 -116 465 -87 q 522 -185 522 -144 q 494 -253 522 -225 q 425 -282 465 -282 q 356 -253 385 -282 q 328 -185 328 -225 z "},"Ḏ":{"ha":850,"x_min":101,"x_max":768,"o":"m 101 972 l 421 972 q 685 886 601 972 q 768 611 768 800 l 768 361 q 685 86 768 172 q 421 0 601 0 l 101 0 l 101 110 l 185 110 l 185 864 l 101 864 l 101 972 m 404 108 q 515 121 468 108 q 592 163 561 133 q 637 243 622 193 q 651 369 651 293 l 651 603 q 637 729 651 679 q 592 809 622 779 q 515 851 561 839 q 404 864 468 864 l 301 864 l 301 108 l 404 108 m 635 -179 l 243 -179 l 243 -87 l 635 -87 l 635 -179 z "},"Đ":{"ha":850,"x_min":101,"x_max":768,"o":"m 101 540 l 185 540 l 185 864 l 101 864 l 101 972 l 421 972 q 685 886 601 972 q 768 611 768 800 l 768 361 q 685 86 768 172 q 421 0 601 0 l 101 0 l 101 108 l 185 108 l 185 432 l 101 432 l 101 540 m 404 108 q 515 121 468 108 q 592 163 561 133 q 637 243 622 193 q 651 369 651 293 l 651 603 q 637 729 651 679 q 592 809 622 779 q 515 851 561 839 q 404 864 468 864 l 301 864 l 301 540 l 451 540 l 451 432 l 301 432 l 301 108 l 404 108 z "},"È":{"ha":850,"x_min":131,"x_max":728,"o":"m 131 972 l 719 972 l 719 864 l 247 864 l 247 542 l 711 542 l 711 433 l 247 433 l 247 108 l 728 108 l 728 0 l 131 0 l 131 972 m 406 1239 l 497 1075 l 397 1075 l 281 1239 l 406 1239 z "},"É":{"ha":850,"x_min":131,"x_max":728,"o":"m 131 972 l 719 972 l 719 864 l 247 864 l 247 542 l 711 542 l 711 433 l 247 433 l 247 108 l 728 108 l 728 0 l 131 0 l 131 972 m 604 1239 l 488 1075 l 388 1075 l 479 1239 l 604 1239 z "},"Ê":{"ha":850,"x_min":131,"x_max":728,"o":"m 131 972 l 719 972 l 719 864 l 247 864 l 247 542 l 711 542 l 711 433 l 247 433 l 247 108 l 728 108 l 728 0 l 131 0 l 131 972 m 508 1075 l 436 1197 l 419 1197 l 347 1075 l 231 1075 l 342 1239 l 514 1239 l 625 1075 l 508 1075 z "},"Ě":{"ha":850,"x_min":131,"x_max":728,"o":"m 131 972 l 719 972 l 719 864 l 247 864 l 247 542 l 711 542 l 711 433 l 247 433 l 247 108 l 728 108 l 728 0 l 131 0 l 131 972 m 626 1239 l 515 1075 l 343 1075 l 232 1239 l 349 1239 l 421 1117 l 438 1117 l 510 1239 l 626 1239 z "},"Ë":{"ha":850,"x_min":131,"x_max":728,"o":"m 131 972 l 719 972 l 719 864 l 247 864 l 247 542 l 711 542 l 711 433 l 247 433 l 247 108 l 728 108 l 728 0 l 131 0 l 131 972 m 194 1178 q 223 1247 194 1218 q 292 1275 251 1275 q 360 1247 332 1275 q 389 1178 389 1218 q 360 1109 389 1138 q 292 1081 332 1081 q 223 1109 251 1081 q 194 1178 194 1138 m 472 1178 q 501 1247 472 1218 q 569 1275 529 1275 q 638 1247 610 1275 q 667 1178 667 1218 q 638 1109 667 1138 q 569 1081 610 1081 q 501 1109 529 1081 q 472 1178 472 1138 z "},"Ē":{"ha":850,"x_min":131,"x_max":728,"o":"m 131 972 l 719 972 l 719 864 l 247 864 l 247 542 l 711 542 l 711 433 l 247 433 l 247 108 l 728 108 l 728 0 l 131 0 l 131 972 m 633 1075 l 242 1075 l 242 1167 l 633 1167 l 633 1075 z "},"Ĕ":{"ha":850,"x_min":131,"x_max":728,"o":"m 131 972 l 719 972 l 719 864 l 247 864 l 247 542 l 711 542 l 711 433 l 247 433 l 247 108 l 728 108 l 728 0 l 131 0 l 131 972 m 579 1239 l 579 1225 q 539 1117 579 1158 q 429 1075 499 1075 q 319 1117 360 1075 q 279 1225 279 1158 l 279 1239 l 375 1239 l 375 1222 q 389 1184 375 1200 q 429 1168 403 1168 q 469 1184 456 1168 q 483 1222 483 1200 l 483 1239 l 579 1239 z "},"Ė":{"ha":850,"x_min":131,"x_max":728,"o":"m 131 972 l 719 972 l 719 864 l 247 864 l 247 542 l 711 542 l 711 433 l 247 433 l 247 108 l 728 108 l 728 0 l 131 0 l 131 972 m 332 1178 q 360 1247 332 1218 q 429 1275 389 1275 q 498 1247 469 1275 q 526 1178 526 1218 q 498 1109 526 1138 q 429 1081 469 1081 q 360 1109 389 1081 q 332 1178 332 1138 z "},"Ę":{"ha":850,"x_min":131,"x_max":794,"o":"m 131 972 l 719 972 l 719 864 l 247 864 l 247 542 l 711 542 l 711 433 l 247 433 l 247 108 l 728 108 l 728 0 l 706 -94 q 704 -106 704 -101 q 736 -136 704 -136 l 794 -136 l 794 -228 l 717 -228 q 642 -202 675 -228 q 608 -125 608 -176 q 613 -92 608 -112 l 632 0 l 131 0 l 131 972 z "},"Ẹ":{"ha":850,"x_min":131,"x_max":728,"o":"m 131 972 l 719 972 l 719 864 l 247 864 l 247 542 l 711 542 l 711 433 l 247 433 l 247 108 l 728 108 l 728 0 l 131 0 l 131 972 m 332 -185 q 360 -116 332 -144 q 429 -87 389 -87 q 498 -116 469 -87 q 526 -185 526 -144 q 498 -253 526 -225 q 429 -282 469 -282 q 360 -253 389 -282 q 332 -185 332 -225 z "},"Ẻ":{"ha":850,"x_min":131,"x_max":728,"o":"m 351 1042 l 324 1169 l 324 1178 l 429 1178 q 464 1158 439 1158 q 498 1172 483 1158 q 513 1211 513 1186 q 495 1256 513 1242 q 457 1269 478 1269 q 410 1252 426 1269 q 390 1214 394 1235 l 324 1239 q 367 1308 335 1281 q 458 1336 399 1336 q 550 1302 513 1336 q 588 1210 588 1268 q 559 1126 588 1161 q 482 1092 531 1092 q 407 1136 425 1092 l 399 1136 l 419 1042 l 351 1042 m 131 972 l 719 972 l 719 864 l 247 864 l 247 542 l 711 542 l 711 433 l 247 433 l 247 108 l 728 108 l 728 0 l 131 0 l 131 972 z "},"Ẽ":{"ha":850,"x_min":131,"x_max":728,"o":"m 131 972 l 719 972 l 719 864 l 247 864 l 247 542 l 711 542 l 711 433 l 247 433 l 247 108 l 728 108 l 728 0 l 131 0 l 131 972 m 490 1175 q 504 1154 497 1161 q 524 1147 511 1147 q 550 1161 538 1147 l 617 1238 l 685 1179 l 628 1111 q 582 1070 608 1088 q 519 1053 556 1053 q 453 1072 476 1053 q 407 1135 431 1092 q 391 1158 397 1151 q 374 1165 385 1165 q 343 1149 358 1165 l 279 1075 l 211 1133 l 268 1201 q 314 1242 288 1225 q 378 1260 340 1260 q 442 1240 418 1260 q 490 1175 465 1219 z "},"Ế":{"ha":850,"x_min":131,"x_max":810,"o":"m 131 972 l 719 972 l 719 864 l 247 864 l 247 542 l 711 542 l 711 433 l 247 433 l 247 108 l 728 108 l 728 0 l 131 0 l 131 972 m 510 1075 l 438 1197 l 421 1197 l 349 1075 l 232 1075 l 343 1239 l 515 1239 l 626 1075 l 510 1075 m 810 1361 l 693 1197 l 593 1197 l 685 1361 l 810 1361 z "},"Ề":{"ha":850,"x_min":46,"x_max":728,"o":"m 131 972 l 719 972 l 719 864 l 247 864 l 247 542 l 711 542 l 711 433 l 247 433 l 247 108 l 728 108 l 728 0 l 131 0 l 131 972 m 510 1075 l 438 1197 l 421 1197 l 349 1075 l 232 1075 l 343 1239 l 515 1239 l 626 1075 l 510 1075 m 171 1361 l 263 1197 l 163 1197 l 46 1361 l 171 1361 z "},"Ể":{"ha":850,"x_min":131,"x_max":833,"o":"m 597 1192 l 569 1319 l 569 1328 l 675 1328 q 710 1308 685 1308 q 744 1322 729 1308 q 758 1361 758 1336 q 741 1406 758 1392 q 703 1419 724 1419 q 656 1402 672 1419 q 636 1364 640 1385 l 569 1389 q 613 1458 581 1431 q 704 1486 644 1486 q 796 1452 758 1486 q 833 1360 833 1418 q 805 1276 833 1311 q 728 1242 776 1242 q 653 1286 671 1242 l 644 1286 l 665 1192 l 597 1192 m 131 972 l 719 972 l 719 864 l 247 864 l 247 542 l 711 542 l 711 433 l 247 433 l 247 108 l 728 108 l 728 0 l 131 0 l 131 972 m 510 1075 l 438 1197 l 421 1197 l 349 1075 l 232 1075 l 343 1239 l 515 1239 l 626 1075 l 510 1075 z "},"Ễ":{"ha":850,"x_min":131,"x_max":728,"o":"m 131 972 l 719 972 l 719 864 l 247 864 l 247 542 l 711 542 l 711 433 l 247 433 l 247 108 l 728 108 l 728 0 l 131 0 l 131 972 m 510 1014 l 438 1136 l 421 1136 l 349 1014 l 232 1014 l 343 1178 l 515 1178 l 626 1014 l 510 1014 m 472 1342 q 486 1321 479 1328 q 506 1314 493 1314 q 532 1328 519 1314 l 599 1404 l 667 1346 l 610 1278 q 564 1237 590 1254 q 501 1219 538 1219 q 435 1239 458 1219 q 389 1301 413 1258 q 373 1325 379 1318 q 356 1332 367 1332 q 325 1315 340 1332 l 261 1242 l 193 1300 l 250 1368 q 296 1409 269 1392 q 360 1426 322 1426 q 424 1406 400 1426 q 472 1342 447 1386 z "},"Ệ":{"ha":850,"x_min":131,"x_max":728,"o":"m 131 972 l 719 972 l 719 864 l 247 864 l 247 542 l 711 542 l 711 433 l 247 433 l 247 108 l 728 108 l 728 0 l 131 0 l 131 972 m 510 1075 l 438 1197 l 421 1197 l 349 1075 l 232 1075 l 343 1239 l 515 1239 l 626 1075 l 510 1075 m 332 -185 q 360 -116 332 -144 q 429 -87 389 -87 q 498 -116 469 -87 q 526 -185 526 -144 q 498 -253 526 -225 q 429 -282 469 -282 q 360 -253 389 -282 q 332 -185 332 -225 z "},"Ĝ":{"ha":850,"x_min":82,"x_max":765,"o":"m 332 467 l 765 467 l 765 0 l 657 0 l 657 117 l 640 117 q 557 18 617 56 q 418 -19 497 -19 q 172 82 261 -19 q 82 378 82 183 l 82 594 q 172 888 82 783 q 424 992 263 992 q 571 965 507 992 q 678 890 635 938 q 743 777 721 842 q 765 639 765 713 l 765 622 l 649 622 l 649 639 q 635 731 649 686 q 595 809 622 775 q 526 863 568 843 q 424 883 483 883 q 255 801 311 883 q 199 586 199 719 l 199 386 q 255 166 199 243 q 426 89 311 89 q 590 156 531 89 q 649 342 649 222 l 649 358 l 332 358 l 332 467 m 506 1075 l 433 1197 l 417 1197 l 344 1075 l 228 1075 l 339 1239 l 511 1239 l 622 1075 l 506 1075 z "},"Ğ":{"ha":850,"x_min":82,"x_max":765,"o":"m 332 467 l 765 467 l 765 0 l 657 0 l 657 117 l 640 117 q 557 18 617 56 q 418 -19 497 -19 q 172 82 261 -19 q 82 378 82 183 l 82 594 q 172 888 82 783 q 424 992 263 992 q 571 965 507 992 q 678 890 635 938 q 743 777 721 842 q 765 639 765 713 l 765 622 l 649 622 l 649 639 q 635 731 649 686 q 595 809 622 775 q 526 863 568 843 q 424 883 483 883 q 255 801 311 883 q 199 586 199 719 l 199 386 q 255 166 199 243 q 426 89 311 89 q 590 156 531 89 q 649 342 649 222 l 649 358 l 332 358 l 332 467 m 575 1239 l 575 1225 q 535 1117 575 1158 q 425 1075 494 1075 q 315 1117 356 1075 q 275 1225 275 1158 l 275 1239 l 371 1239 l 371 1222 q 385 1184 371 1200 q 425 1168 399 1168 q 465 1184 451 1168 q 479 1222 479 1200 l 479 1239 l 575 1239 z "},"Ġ":{"ha":850,"x_min":82,"x_max":765,"o":"m 332 467 l 765 467 l 765 0 l 657 0 l 657 117 l 640 117 q 557 18 617 56 q 418 -19 497 -19 q 172 82 261 -19 q 82 378 82 183 l 82 594 q 172 888 82 783 q 424 992 263 992 q 571 965 507 992 q 678 890 635 938 q 743 777 721 842 q 765 639 765 713 l 765 622 l 649 622 l 649 639 q 635 731 649 686 q 595 809 622 775 q 526 863 568 843 q 424 883 483 883 q 255 801 311 883 q 199 586 199 719 l 199 386 q 255 166 199 243 q 426 89 311 89 q 590 156 531 89 q 649 342 649 222 l 649 358 l 332 358 l 332 467 m 328 1178 q 356 1247 328 1218 q 425 1275 385 1275 q 494 1247 465 1275 q 522 1178 522 1218 q 494 1109 522 1138 q 425 1081 465 1081 q 356 1109 385 1081 q 328 1178 328 1138 z "},"Ģ":{"ha":850,"x_min":82,"x_max":765,"o":"m 332 467 l 765 467 l 765 0 l 657 0 l 657 117 l 640 117 q 557 18 617 56 q 418 -19 497 -19 q 172 82 261 -19 q 82 378 82 183 l 82 594 q 172 888 82 783 q 424 992 263 992 q 571 965 507 992 q 678 890 635 938 q 743 777 721 842 q 765 639 765 713 l 765 622 l 649 622 l 649 639 q 635 731 649 686 q 595 809 622 775 q 526 863 568 843 q 424 883 483 883 q 255 801 311 883 q 199 586 199 719 l 199 386 q 255 166 199 243 q 426 89 311 89 q 590 156 531 89 q 649 342 649 222 l 649 358 l 332 358 l 332 467 m 322 -157 q 351 -88 322 -117 q 419 -60 379 -60 q 488 -88 460 -60 q 517 -157 517 -117 l 517 -293 q 487 -371 517 -340 q 410 -401 457 -401 l 339 -401 l 339 -326 l 404 -326 q 442 -285 442 -326 l 442 -250 q 418 -254 431 -254 q 351 -226 379 -254 q 322 -157 322 -197 z "},"Ḡ":{"ha":850,"x_min":82,"x_max":765,"o":"m 332 467 l 765 467 l 765 0 l 657 0 l 657 117 l 640 117 q 557 18 617 56 q 418 -19 497 -19 q 172 82 261 -19 q 82 378 82 183 l 82 594 q 172 888 82 783 q 424 992 263 992 q 571 965 507 992 q 678 890 635 938 q 743 777 721 842 q 765 639 765 713 l 765 622 l 649 622 l 649 639 q 635 731 649 686 q 595 809 622 775 q 526 863 568 843 q 424 883 483 883 q 255 801 311 883 q 199 586 199 719 l 199 386 q 255 166 199 243 q 426 89 311 89 q 590 156 531 89 q 649 342 649 222 l 649 358 l 332 358 l 332 467 m 621 1075 l 229 1075 l 229 1167 l 621 1167 l 621 1075 z "},"Ǧ":{"ha":850,"x_min":82,"x_max":765,"o":"m 332 467 l 765 467 l 765 0 l 657 0 l 657 117 l 640 117 q 557 18 617 56 q 418 -19 497 -19 q 172 82 261 -19 q 82 378 82 183 l 82 594 q 172 888 82 783 q 424 992 263 992 q 571 965 507 992 q 678 890 635 938 q 743 777 721 842 q 765 639 765 713 l 765 622 l 649 622 l 649 639 q 635 731 649 686 q 595 809 622 775 q 526 863 568 843 q 424 883 483 883 q 255 801 311 883 q 199 586 199 719 l 199 386 q 255 166 199 243 q 426 89 311 89 q 590 156 531 89 q 649 342 649 222 l 649 358 l 332 358 l 332 467 m 622 1239 l 511 1075 l 339 1075 l 228 1239 l 344 1239 l 417 1117 l 433 1117 l 506 1239 l 622 1239 z "},"Ĥ":{"ha":850,"x_min":101,"x_max":749,"o":"m 101 972 l 218 972 l 218 542 l 632 542 l 632 972 l 749 972 l 749 0 l 632 0 l 632 433 l 218 433 l 218 0 l 101 0 l 101 972 m 506 1075 l 433 1197 l 417 1197 l 344 1075 l 228 1075 l 339 1239 l 511 1239 l 622 1075 l 506 1075 z "},"Ḥ":{"ha":850,"x_min":101,"x_max":749,"o":"m 101 972 l 218 972 l 218 542 l 632 542 l 632 972 l 749 972 l 749 0 l 632 0 l 632 433 l 218 433 l 218 0 l 101 0 l 101 972 m 328 -185 q 356 -116 328 -144 q 425 -87 385 -87 q 494 -116 465 -87 q 522 -185 522 -144 q 494 -253 522 -225 q 425 -282 465 -282 q 356 -253 385 -282 q 328 -185 328 -225 z "},"Ḫ":{"ha":850,"x_min":101,"x_max":749,"o":"m 101 972 l 218 972 l 218 542 l 632 542 l 632 972 l 749 972 l 749 0 l 632 0 l 632 433 l 218 433 l 218 0 l 101 0 l 101 972 m 575 -87 l 575 -101 q 535 -210 575 -168 q 425 -251 494 -251 q 315 -210 356 -251 q 275 -101 275 -168 l 275 -87 l 371 -87 l 371 -104 q 385 -142 371 -126 q 425 -158 399 -158 q 465 -142 451 -158 q 479 -104 479 -126 l 479 -87 l 575 -87 z "},"Ħ":{"ha":850,"x_min":18,"x_max":832,"o":"m 101 689 l 18 689 l 18 797 l 101 797 l 101 972 l 218 972 l 218 797 l 632 797 l 632 972 l 749 972 l 749 797 l 832 797 l 832 689 l 749 689 l 749 0 l 632 0 l 632 433 l 218 433 l 218 0 l 101 0 l 101 689 m 632 542 l 632 689 l 218 689 l 218 542 l 632 542 z "},"Ì":{"ha":850,"x_min":117,"x_max":733,"o":"m 117 972 l 733 972 l 733 864 l 483 864 l 483 108 l 733 108 l 733 0 l 117 0 l 117 108 l 367 108 l 367 864 l 117 864 l 117 972 m 382 1239 l 474 1075 l 374 1075 l 257 1239 l 382 1239 z "},"Í":{"ha":850,"x_min":117,"x_max":733,"o":"m 117 972 l 733 972 l 733 864 l 483 864 l 483 108 l 733 108 l 733 0 l 117 0 l 117 108 l 367 108 l 367 864 l 117 864 l 117 972 m 592 1239 l 475 1075 l 375 1075 l 467 1239 l 592 1239 z "},"Î":{"ha":850,"x_min":117,"x_max":733,"o":"m 117 972 l 733 972 l 733 864 l 483 864 l 483 108 l 733 108 l 733 0 l 117 0 l 117 108 l 367 108 l 367 864 l 117 864 l 117 972 m 506 1075 l 433 1197 l 417 1197 l 344 1075 l 228 1075 l 339 1239 l 511 1239 l 622 1075 l 506 1075 z "},"Ĩ":{"ha":850,"x_min":117,"x_max":733,"o":"m 117 972 l 733 972 l 733 864 l 483 864 l 483 108 l 733 108 l 733 0 l 117 0 l 117 108 l 367 108 l 367 864 l 117 864 l 117 972 m 468 1175 q 482 1154 475 1161 q 501 1147 489 1147 q 528 1161 515 1147 l 594 1238 l 663 1179 l 606 1111 q 560 1070 586 1088 q 497 1053 533 1053 q 431 1072 454 1053 q 385 1135 408 1092 q 369 1158 375 1151 q 351 1165 363 1165 q 321 1149 336 1165 l 257 1075 l 189 1133 l 246 1201 q 292 1242 265 1225 q 356 1260 318 1260 q 419 1240 396 1260 q 468 1175 443 1219 z "},"Ï":{"ha":850,"x_min":117,"x_max":733,"o":"m 117 972 l 733 972 l 733 864 l 483 864 l 483 108 l 733 108 l 733 0 l 117 0 l 117 108 l 367 108 l 367 864 l 117 864 l 117 972 m 189 1178 q 217 1247 189 1218 q 286 1275 246 1275 q 355 1247 326 1275 q 383 1178 383 1218 q 355 1109 383 1138 q 286 1081 326 1081 q 217 1109 246 1081 q 189 1178 189 1138 m 467 1178 q 495 1247 467 1218 q 564 1275 524 1275 q 633 1247 604 1275 q 661 1178 661 1218 q 633 1109 661 1138 q 564 1081 604 1081 q 495 1109 524 1081 q 467 1178 467 1138 z "},"Ī":{"ha":850,"x_min":117,"x_max":733,"o":"m 117 972 l 733 972 l 733 864 l 483 864 l 483 108 l 733 108 l 733 0 l 117 0 l 117 108 l 367 108 l 367 864 l 117 864 l 117 972 m 621 1075 l 229 1075 l 229 1167 l 621 1167 l 621 1075 z "},"İ":{"ha":850,"x_min":117,"x_max":733,"o":"m 117 972 l 733 972 l 733 864 l 483 864 l 483 108 l 733 108 l 733 0 l 117 0 l 117 108 l 367 108 l 367 864 l 117 864 l 117 972 m 328 1178 q 356 1247 328 1218 q 425 1275 385 1275 q 494 1247 465 1275 q 522 1178 522 1218 q 494 1109 522 1138 q 425 1081 465 1081 q 356 1109 385 1081 q 328 1178 328 1138 z "},"Ǐ":{"ha":850,"x_min":117,"x_max":733,"o":"m 117 972 l 733 972 l 733 864 l 483 864 l 483 108 l 733 108 l 733 0 l 117 0 l 117 108 l 367 108 l 367 864 l 117 864 l 117 972 m 622 1239 l 511 1075 l 339 1075 l 228 1239 l 344 1239 l 417 1117 l 433 1117 l 506 1239 l 622 1239 z "},"Į":{"ha":850,"x_min":117,"x_max":800,"o":"m 117 972 l 733 972 l 733 864 l 483 864 l 483 108 l 733 108 l 733 0 l 711 -94 q 710 -106 710 -101 q 742 -136 710 -136 l 800 -136 l 800 -228 l 722 -228 q 647 -202 681 -228 q 614 -125 614 -176 q 618 -92 614 -112 l 638 0 l 117 0 l 117 108 l 367 108 l 367 864 l 117 864 l 117 972 z "},"Ỉ":{"ha":850,"x_min":117,"x_max":733,"o":"m 117 972 l 733 972 l 733 864 l 483 864 l 483 108 l 733 108 l 733 0 l 117 0 l 117 108 l 367 108 l 367 864 l 117 864 l 117 972 m 446 1042 l 425 1136 l 433 1136 q 508 1092 451 1092 q 585 1126 557 1092 q 614 1210 614 1161 q 576 1302 614 1268 q 485 1336 539 1336 q 393 1308 425 1336 q 350 1239 361 1281 l 417 1214 q 437 1252 421 1235 q 483 1269 453 1269 q 522 1256 504 1269 q 539 1211 539 1242 q 524 1172 539 1186 q 490 1158 510 1158 q 456 1178 465 1158 l 350 1178 l 350 1169 l 378 1042 l 446 1042 z "},"Ị":{"ha":850,"x_min":117,"x_max":733,"o":"m 117 972 l 733 972 l 733 864 l 483 864 l 483 108 l 733 108 l 733 0 l 117 0 l 117 108 l 367 108 l 367 864 l 117 864 l 117 972 m 328 -185 q 356 -116 328 -144 q 425 -87 385 -87 q 494 -116 465 -87 q 522 -185 522 -144 q 494 -253 522 -225 q 425 -282 465 -282 q 356 -253 385 -282 q 328 -185 328 -225 z "},"Ĭ":{"ha":850,"x_min":117,"x_max":733,"o":"m 117 972 l 733 972 l 733 864 l 483 864 l 483 108 l 733 108 l 733 0 l 117 0 l 117 108 l 367 108 l 367 864 l 117 864 l 117 972 m 575 1239 l 575 1225 q 535 1117 575 1158 q 425 1075 494 1075 q 315 1117 356 1075 q 275 1225 275 1158 l 275 1239 l 371 1239 l 371 1222 q 385 1184 371 1200 q 425 1168 399 1168 q 465 1184 451 1168 q 479 1222 479 1200 l 479 1239 l 575 1239 z "},"Ĵ":{"ha":850,"x_min":101,"x_max":832,"o":"m 715 1075 l 643 1197 l 626 1197 l 554 1075 l 438 1075 l 549 1239 l 721 1239 l 832 1075 l 715 1075 m 701 292 q 627 60 701 140 q 410 -19 553 -19 q 184 60 267 -19 q 101 292 101 140 l 101 367 l 218 367 l 218 292 q 265 144 218 200 q 410 89 313 89 q 546 144 507 89 q 585 292 585 200 l 585 864 l 485 864 l 485 972 l 785 972 l 785 864 l 701 864 l 701 292 z "},"Ķ":{"ha":850,"x_min":124,"x_max":807,"o":"m 240 0 l 124 0 l 124 972 l 240 972 l 240 542 l 272 542 l 646 972 l 790 972 l 790 964 l 388 494 l 388 478 l 807 8 l 807 0 l 660 0 l 272 433 l 240 433 l 240 0 m 343 -157 q 372 -88 343 -117 q 440 -60 400 -60 q 509 -88 481 -60 q 538 -157 538 -117 l 538 -293 q 508 -371 538 -340 q 431 -401 478 -401 l 360 -401 l 360 -326 l 425 -326 q 463 -285 463 -326 l 463 -250 q 439 -254 451 -254 q 372 -226 400 -254 q 343 -157 343 -197 z "},"Ĺ":{"ha":850,"x_min":121,"x_max":746,"o":"m 121 972 l 238 972 l 238 108 l 746 108 l 746 0 l 121 0 l 121 972 m 350 1239 l 233 1075 l 133 1075 l 225 1239 l 350 1239 z "},"Ľ":{"ha":850,"x_min":121,"x_max":746,"o":"m 121 972 l 238 972 l 238 108 l 746 108 l 746 0 l 121 0 l 121 972 m 551 876 q 580 945 551 917 q 649 974 608 974 q 717 945 689 974 q 746 876 746 917 l 746 740 q 716 663 746 693 q 639 632 686 632 l 568 632 l 568 707 l 633 707 q 671 749 671 707 l 671 783 q 647 779 660 779 q 580 808 608 779 q 551 876 551 836 z "},"Ļ":{"ha":850,"x_min":121,"x_max":746,"o":"m 121 972 l 238 972 l 238 108 l 746 108 l 746 0 l 121 0 l 121 972 m 338 -157 q 366 -88 338 -117 q 435 -60 394 -60 q 503 -88 475 -60 q 532 -157 532 -117 l 532 -293 q 502 -371 532 -340 q 425 -401 472 -401 l 354 -401 l 354 -326 l 419 -326 q 457 -285 457 -326 l 457 -250 q 433 -254 446 -254 q 366 -226 394 -254 q 338 -157 338 -197 z "},"Ḷ":{"ha":850,"x_min":121,"x_max":746,"o":"m 121 972 l 238 972 l 238 108 l 746 108 l 746 0 l 121 0 l 121 972 m 338 -185 q 366 -116 338 -144 q 435 -87 394 -87 q 503 -116 475 -87 q 532 -185 532 -144 q 503 -253 532 -225 q 435 -282 475 -282 q 366 -253 394 -282 q 338 -185 338 -225 z "},"Ḹ":{"ha":850,"x_min":121,"x_max":746,"o":"m 121 972 l 238 972 l 238 108 l 746 108 l 746 0 l 121 0 l 121 972 m 629 1075 l 238 1075 l 238 1167 l 629 1167 l 629 1075 m 338 -185 q 366 -116 338 -144 q 435 -87 394 -87 q 503 -116 475 -87 q 532 -185 532 -144 q 503 -253 532 -225 q 435 -282 475 -282 q 366 -253 394 -282 q 338 -185 338 -225 z "},"Ḻ":{"ha":850,"x_min":121,"x_max":746,"o":"m 121 972 l 238 972 l 238 108 l 746 108 l 746 0 l 121 0 l 121 972 m 629 -179 l 238 -179 l 238 -87 l 629 -87 l 629 -179 z "},"Ł":{"ha":850,"x_min":33,"x_max":767,"o":"m 167 499 l 167 972 l 283 972 l 283 558 l 368 601 l 415 508 l 283 440 l 283 108 l 767 108 l 767 0 l 167 0 l 167 381 l 82 338 l 33 432 l 167 499 z "},"Ŀ":{"ha":850,"x_min":121,"x_max":746,"o":"m 121 972 l 238 972 l 238 108 l 746 108 l 746 0 l 121 0 l 121 972 m 551 486 q 580 555 551 526 q 649 583 608 583 q 717 555 689 583 q 746 486 746 526 q 717 417 746 446 q 649 389 689 389 q 580 417 608 389 q 551 486 551 446 z "},"Ṃ":{"ha":850,"x_min":64,"x_max":786,"o":"m 64 972 l 286 972 l 417 50 l 433 50 l 564 972 l 786 972 l 786 0 l 678 0 l 678 922 l 661 922 l 531 0 l 319 0 l 189 922 l 172 922 l 172 0 l 64 0 l 64 972 m 328 -185 q 356 -116 328 -144 q 425 -87 385 -87 q 494 -116 465 -87 q 522 -185 522 -144 q 494 -253 522 -225 q 425 -282 465 -282 q 356 -253 385 -282 q 328 -185 328 -225 z "},"Ń":{"ha":850,"x_min":101,"x_max":749,"o":"m 615 50 l 632 50 l 632 972 l 749 972 l 749 0 l 515 0 l 235 922 l 218 922 l 218 0 l 101 0 l 101 972 l 335 972 l 615 50 m 656 1239 l 539 1075 l 439 1075 l 531 1239 l 656 1239 z "},"Ň":{"ha":850,"x_min":101,"x_max":749,"o":"m 615 50 l 632 50 l 632 972 l 749 972 l 749 0 l 515 0 l 235 922 l 218 922 l 218 0 l 101 0 l 101 972 l 335 972 l 615 50 m 678 1239 l 567 1075 l 394 1075 l 283 1239 l 400 1239 l 472 1117 l 489 1117 l 561 1239 l 678 1239 z "},"Ñ":{"ha":850,"x_min":101,"x_max":749,"o":"m 615 50 l 632 50 l 632 972 l 749 972 l 749 0 l 515 0 l 235 922 l 218 922 l 218 0 l 101 0 l 101 972 l 335 972 l 615 50 m 478 1175 q 492 1154 485 1161 q 511 1147 499 1147 q 538 1161 525 1147 l 604 1238 l 672 1179 l 615 1111 q 569 1070 596 1088 q 507 1053 543 1053 q 441 1072 464 1053 q 394 1135 418 1092 q 378 1158 385 1151 q 361 1165 372 1165 q 331 1149 346 1165 l 267 1075 l 199 1133 l 256 1201 q 301 1242 275 1225 q 365 1260 328 1260 q 429 1240 406 1260 q 478 1175 453 1219 z "},"Ņ":{"ha":850,"x_min":101,"x_max":749,"o":"m 615 50 l 632 50 l 632 972 l 749 972 l 749 0 l 515 0 l 235 922 l 218 922 l 218 0 l 101 0 l 101 972 l 335 972 l 615 50 m 274 -157 q 302 -88 274 -117 q 371 -60 331 -60 q 440 -88 411 -60 q 468 -157 468 -117 l 468 -293 q 438 -371 468 -340 q 361 -401 408 -401 l 290 -401 l 290 -326 l 356 -326 q 393 -285 393 -326 l 393 -250 q 369 -254 382 -254 q 302 -226 331 -254 q 274 -157 274 -197 z "},"Ṅ":{"ha":850,"x_min":101,"x_max":749,"o":"m 615 50 l 632 50 l 632 972 l 749 972 l 749 0 l 515 0 l 235 922 l 218 922 l 218 0 l 101 0 l 101 972 l 335 972 l 615 50 m 386 1178 q 415 1247 386 1218 q 483 1275 443 1275 q 552 1247 524 1275 q 581 1178 581 1218 q 552 1109 581 1138 q 483 1081 524 1081 q 415 1109 443 1081 q 386 1178 386 1138 z "},"Ṇ":{"ha":850,"x_min":101,"x_max":749,"o":"m 615 50 l 632 50 l 632 972 l 749 972 l 749 0 l 515 0 l 235 922 l 218 922 l 218 0 l 101 0 l 101 972 l 335 972 l 615 50 m 328 -185 q 356 -116 328 -144 q 425 -87 385 -87 q 494 -116 465 -87 q 522 -185 522 -144 q 494 -253 522 -225 q 425 -282 465 -282 q 356 -253 385 -282 q 328 -185 328 -225 z "},"Ṉ":{"ha":850,"x_min":101,"x_max":749,"o":"m 615 50 l 632 50 l 632 972 l 749 972 l 749 0 l 515 0 l 235 922 l 218 922 l 218 0 l 101 0 l 101 972 l 335 972 l 615 50 m 621 -179 l 229 -179 l 229 -87 l 621 -87 l 621 -179 z "},"Ò":{"ha":850,"x_min":83,"x_max":767,"o":"m 83 594 q 174 888 83 783 q 425 992 264 992 q 676 888 586 992 q 767 594 767 783 l 767 378 q 676 82 767 183 q 425 -19 586 -19 q 174 82 264 -19 q 83 378 83 183 l 83 594 m 425 89 q 594 166 538 89 q 650 386 650 243 l 650 586 q 594 801 650 719 q 425 883 538 883 q 256 801 313 883 q 200 586 200 719 l 200 386 q 256 166 200 243 q 425 89 313 89 m 388 1239 l 479 1075 l 379 1075 l 263 1239 l 388 1239 z "},"Ó":{"ha":850,"x_min":83,"x_max":767,"o":"m 83 594 q 174 888 83 783 q 425 992 264 992 q 676 888 586 992 q 767 594 767 783 l 767 378 q 676 82 767 183 q 425 -19 586 -19 q 174 82 264 -19 q 83 378 83 183 l 83 594 m 425 89 q 594 166 538 89 q 650 386 650 243 l 650 586 q 594 801 650 719 q 425 883 538 883 q 256 801 313 883 q 200 586 200 719 l 200 386 q 256 166 200 243 q 425 89 313 89 m 597 1239 l 481 1075 l 381 1075 l 472 1239 l 597 1239 z "},"Ô":{"ha":850,"x_min":83,"x_max":767,"o":"m 83 594 q 174 888 83 783 q 425 992 264 992 q 676 888 586 992 q 767 594 767 783 l 767 378 q 676 82 767 183 q 425 -19 586 -19 q 174 82 264 -19 q 83 378 83 183 l 83 594 m 425 89 q 594 166 538 89 q 650 386 650 243 l 650 586 q 594 801 650 719 q 425 883 538 883 q 256 801 313 883 q 200 586 200 719 l 200 386 q 256 166 200 243 q 425 89 313 89 m 506 1075 l 433 1197 l 417 1197 l 344 1075 l 228 1075 l 339 1239 l 511 1239 l 622 1075 l 506 1075 z "},"Õ":{"ha":850,"x_min":83,"x_max":767,"o":"m 83 594 q 174 888 83 783 q 425 992 264 992 q 676 888 586 992 q 767 594 767 783 l 767 378 q 676 82 767 183 q 425 -19 586 -19 q 174 82 264 -19 q 83 378 83 183 l 83 594 m 425 89 q 594 166 538 89 q 650 386 650 243 l 650 586 q 594 801 650 719 q 425 883 538 883 q 256 801 313 883 q 200 586 200 719 l 200 386 q 256 166 200 243 q 425 89 313 89 m 468 1175 q 482 1154 475 1161 q 501 1147 489 1147 q 528 1161 515 1147 l 594 1238 l 663 1179 l 606 1111 q 560 1070 586 1088 q 497 1053 533 1053 q 431 1072 454 1053 q 385 1135 408 1092 q 369 1158 375 1151 q 351 1165 363 1165 q 321 1149 336 1165 l 257 1075 l 189 1133 l 246 1201 q 292 1242 265 1225 q 356 1260 318 1260 q 419 1240 396 1260 q 468 1175 443 1219 z "},"Ö":{"ha":850,"x_min":83,"x_max":767,"o":"m 83 594 q 174 888 83 783 q 425 992 264 992 q 676 888 586 992 q 767 594 767 783 l 767 378 q 676 82 767 183 q 425 -19 586 -19 q 174 82 264 -19 q 83 378 83 183 l 83 594 m 425 89 q 594 166 538 89 q 650 386 650 243 l 650 586 q 594 801 650 719 q 425 883 538 883 q 256 801 313 883 q 200 586 200 719 l 200 386 q 256 166 200 243 q 425 89 313 89 m 189 1178 q 217 1247 189 1218 q 286 1275 246 1275 q 355 1247 326 1275 q 383 1178 383 1218 q 355 1109 383 1138 q 286 1081 326 1081 q 217 1109 246 1081 q 189 1178 189 1138 m 467 1178 q 495 1247 467 1218 q 564 1275 524 1275 q 633 1247 604 1275 q 661 1178 661 1218 q 633 1109 661 1138 q 564 1081 604 1081 q 495 1109 524 1081 q 467 1178 467 1138 z "},"Ō":{"ha":850,"x_min":83,"x_max":767,"o":"m 83 594 q 174 888 83 783 q 425 992 264 992 q 676 888 586 992 q 767 594 767 783 l 767 378 q 676 82 767 183 q 425 -19 586 -19 q 174 82 264 -19 q 83 378 83 183 l 83 594 m 425 89 q 594 166 538 89 q 650 386 650 243 l 650 586 q 594 801 650 719 q 425 883 538 883 q 256 801 313 883 q 200 586 200 719 l 200 386 q 256 166 200 243 q 425 89 313 89 m 621 1075 l 229 1075 l 229 1167 l 621 1167 l 621 1075 z "},"Ő":{"ha":850,"x_min":83,"x_max":767,"o":"m 83 594 q 174 888 83 783 q 425 992 264 992 q 676 888 586 992 q 767 594 767 783 l 767 378 q 676 82 767 183 q 425 -19 586 -19 q 174 82 264 -19 q 83 378 83 183 l 83 594 m 425 89 q 594 166 538 89 q 650 386 650 243 l 650 586 q 594 801 650 719 q 425 883 538 883 q 256 801 313 883 q 200 586 200 719 l 200 386 q 256 166 200 243 q 425 89 313 89 m 483 1239 l 367 1075 l 267 1075 l 358 1239 l 483 1239 m 683 1239 l 567 1075 l 467 1075 l 558 1239 l 683 1239 z "},"Ŏ":{"ha":850,"x_min":83,"x_max":767,"o":"m 83 594 q 174 888 83 783 q 425 992 264 992 q 676 888 586 992 q 767 594 767 783 l 767 378 q 676 82 767 183 q 425 -19 586 -19 q 174 82 264 -19 q 83 378 83 183 l 83 594 m 425 89 q 594 166 538 89 q 650 386 650 243 l 650 586 q 594 801 650 719 q 425 883 538 883 q 256 801 313 883 q 200 586 200 719 l 200 386 q 256 166 200 243 q 425 89 313 89 m 575 1239 l 575 1225 q 535 1117 575 1158 q 425 1075 494 1075 q 315 1117 356 1075 q 275 1225 275 1158 l 275 1239 l 371 1239 l 371 1222 q 385 1184 371 1200 q 425 1168 399 1168 q 465 1184 451 1168 q 479 1222 479 1200 l 479 1239 l 575 1239 z "},"Ǒ":{"ha":850,"x_min":83,"x_max":767,"o":"m 83 594 q 174 888 83 783 q 425 992 264 992 q 676 888 586 992 q 767 594 767 783 l 767 378 q 676 82 767 183 q 425 -19 586 -19 q 174 82 264 -19 q 83 378 83 183 l 83 594 m 425 89 q 594 166 538 89 q 650 386 650 243 l 650 586 q 594 801 650 719 q 425 883 538 883 q 256 801 313 883 q 200 586 200 719 l 200 386 q 256 166 200 243 q 425 89 313 89 m 622 1239 l 511 1075 l 339 1075 l 228 1239 l 344 1239 l 417 1117 l 433 1117 l 506 1239 l 622 1239 z "},"Ǫ":{"ha":850,"x_min":83,"x_max":767,"o":"m 83 594 q 174 888 83 783 q 425 992 264 992 q 676 888 586 992 q 767 594 767 783 l 767 378 q 688 96 767 196 q 469 -17 610 -4 l 451 -94 q 450 -106 450 -101 q 482 -136 450 -136 l 540 -136 l 540 -228 l 463 -228 q 388 -202 422 -228 q 354 -125 354 -176 q 358 -92 354 -112 l 375 -17 q 160 99 236 -1 q 83 378 83 199 l 83 594 m 425 89 q 594 166 538 89 q 650 386 650 243 l 650 586 q 594 801 650 719 q 425 883 538 883 q 256 801 313 883 q 200 586 200 719 l 200 386 q 256 166 200 243 q 425 89 313 89 z "},"Ọ":{"ha":850,"x_min":83,"x_max":767,"o":"m 83 594 q 174 888 83 783 q 425 992 264 992 q 676 888 586 992 q 767 594 767 783 l 767 378 q 676 82 767 183 q 425 -19 586 -19 q 174 82 264 -19 q 83 378 83 183 l 83 594 m 425 89 q 594 166 538 89 q 650 386 650 243 l 650 586 q 594 801 650 719 q 425 883 538 883 q 256 801 313 883 q 200 586 200 719 l 200 386 q 256 166 200 243 q 425 89 313 89 m 328 -185 q 356 -116 328 -144 q 425 -87 385 -87 q 494 -116 465 -87 q 522 -185 522 -144 q 494 -253 522 -225 q 425 -282 465 -282 q 356 -253 385 -282 q 328 -185 328 -225 z "},"Ỏ":{"ha":850,"x_min":83,"x_max":767,"o":"m 378 1042 l 350 1169 l 350 1178 l 456 1178 q 490 1158 465 1158 q 524 1172 510 1158 q 539 1211 539 1186 q 522 1256 539 1242 q 483 1269 504 1269 q 437 1252 453 1269 q 417 1214 421 1235 l 350 1239 q 393 1308 361 1281 q 485 1336 425 1336 q 576 1302 539 1336 q 614 1210 614 1268 q 585 1126 614 1161 q 508 1092 557 1092 q 433 1136 451 1092 l 425 1136 l 446 1042 l 378 1042 m 83 594 q 174 888 83 783 q 425 992 264 992 q 676 888 586 992 q 767 594 767 783 l 767 378 q 676 82 767 183 q 425 -19 586 -19 q 174 82 264 -19 q 83 378 83 183 l 83 594 m 425 89 q 594 166 538 89 q 650 386 650 243 l 650 586 q 594 801 650 719 q 425 883 538 883 q 256 801 313 883 q 200 586 200 719 l 200 386 q 256 166 200 243 q 425 89 313 89 z "},"Ố":{"ha":850,"x_min":83,"x_max":806,"o":"m 83 594 q 174 888 83 783 q 425 992 264 992 q 676 888 586 992 q 767 594 767 783 l 767 378 q 676 82 767 183 q 425 -19 586 -19 q 174 82 264 -19 q 83 378 83 183 l 83 594 m 425 89 q 594 166 538 89 q 650 386 650 243 l 650 586 q 594 801 650 719 q 425 883 538 883 q 256 801 313 883 q 200 586 200 719 l 200 386 q 256 166 200 243 q 425 89 313 89 m 506 1075 l 433 1197 l 417 1197 l 344 1075 l 228 1075 l 339 1239 l 511 1239 l 622 1075 l 506 1075 m 806 1361 l 689 1197 l 589 1197 l 681 1361 l 806 1361 z "},"Ồ":{"ha":850,"x_min":42,"x_max":767,"o":"m 83 594 q 174 888 83 783 q 425 992 264 992 q 676 888 586 992 q 767 594 767 783 l 767 378 q 676 82 767 183 q 425 -19 586 -19 q 174 82 264 -19 q 83 378 83 183 l 83 594 m 425 89 q 594 166 538 89 q 650 386 650 243 l 650 586 q 594 801 650 719 q 425 883 538 883 q 256 801 313 883 q 200 586 200 719 l 200 386 q 256 166 200 243 q 425 89 313 89 m 506 1075 l 433 1197 l 417 1197 l 344 1075 l 228 1075 l 339 1239 l 511 1239 l 622 1075 l 506 1075 m 167 1361 l 258 1197 l 158 1197 l 42 1361 l 167 1361 z "},"Ổ":{"ha":850,"x_min":83,"x_max":829,"o":"m 83 594 q 174 888 83 783 q 425 992 264 992 q 676 888 586 992 q 767 594 767 783 l 767 378 q 676 82 767 183 q 425 -19 586 -19 q 174 82 264 -19 q 83 378 83 183 l 83 594 m 425 89 q 594 166 538 89 q 650 386 650 243 l 650 586 q 594 801 650 719 q 425 883 538 883 q 256 801 313 883 q 200 586 200 719 l 200 386 q 256 166 200 243 q 425 89 313 89 m 506 1075 l 433 1197 l 417 1197 l 344 1075 l 228 1075 l 339 1239 l 511 1239 l 622 1075 l 506 1075 m 661 1192 l 640 1286 l 649 1286 q 724 1242 667 1242 q 801 1276 772 1242 q 829 1360 829 1311 q 792 1452 829 1418 q 700 1486 754 1486 q 608 1458 640 1486 q 565 1389 576 1431 l 632 1364 q 652 1402 636 1385 q 699 1419 668 1419 q 737 1406 719 1419 q 754 1361 754 1392 q 740 1322 754 1336 q 706 1308 725 1308 q 671 1328 681 1308 l 565 1328 l 565 1319 l 593 1192 l 661 1192 z "},"Ỗ":{"ha":850,"x_min":83,"x_max":767,"o":"m 83 594 q 174 888 83 783 q 425 992 264 992 q 676 888 586 992 q 767 594 767 783 l 767 378 q 676 82 767 183 q 425 -19 586 -19 q 174 82 264 -19 q 83 378 83 183 l 83 594 m 425 89 q 594 166 538 89 q 650 386 650 243 l 650 586 q 594 801 650 719 q 425 883 538 883 q 256 801 313 883 q 200 586 200 719 l 200 386 q 256 166 200 243 q 425 89 313 89 m 506 1014 l 433 1136 l 417 1136 l 344 1014 l 228 1014 l 339 1178 l 511 1178 l 622 1014 l 506 1014 m 468 1342 q 482 1321 475 1328 q 501 1314 489 1314 q 528 1328 515 1314 l 594 1404 l 663 1346 l 606 1278 q 560 1237 586 1254 q 497 1219 533 1219 q 431 1239 454 1219 q 385 1301 408 1258 q 369 1325 375 1318 q 351 1332 363 1332 q 321 1315 336 1332 l 257 1242 l 189 1300 l 246 1368 q 292 1409 265 1392 q 356 1426 318 1426 q 419 1406 396 1426 q 468 1342 443 1386 z "},"Ộ":{"ha":850,"x_min":83,"x_max":767,"o":"m 83 594 q 174 888 83 783 q 425 992 264 992 q 676 888 586 992 q 767 594 767 783 l 767 378 q 676 82 767 183 q 425 -19 586 -19 q 174 82 264 -19 q 83 378 83 183 l 83 594 m 425 89 q 594 166 538 89 q 650 386 650 243 l 650 586 q 594 801 650 719 q 425 883 538 883 q 256 801 313 883 q 200 586 200 719 l 200 386 q 256 166 200 243 q 425 89 313 89 m 506 1075 l 433 1197 l 417 1197 l 344 1075 l 228 1075 l 339 1239 l 511 1239 l 622 1075 l 506 1075 m 328 -185 q 356 -116 328 -144 q 425 -87 385 -87 q 494 -116 465 -87 q 522 -185 522 -144 q 494 -253 522 -225 q 425 -282 465 -282 q 356 -253 385 -282 q 328 -185 328 -225 z "},"Ơ":{"ha":850,"x_min":53,"x_max":824,"o":"m 53 661 q 126 905 53 818 q 336 992 200 992 q 535 917 463 992 q 618 706 607 842 l 711 706 q 749 747 749 706 l 749 782 q 725 778 738 778 q 658 806 686 778 q 629 875 629 835 q 658 944 629 915 q 726 972 686 972 q 795 944 767 972 q 824 875 824 915 l 824 739 q 794 661 824 692 q 717 631 764 631 l 619 631 l 619 303 q 545 61 619 142 q 336 -19 471 -19 q 127 61 201 -19 q 53 303 53 142 l 53 661 m 336 86 q 463 141 422 86 q 503 311 503 196 l 503 661 q 463 827 503 768 q 336 886 424 886 q 209 827 249 886 q 169 661 169 768 l 169 311 q 210 141 169 196 q 336 86 250 86 z "},"Ớ":{"ha":850,"x_min":53,"x_max":824,"o":"m 500 1239 l 383 1075 l 283 1075 l 375 1239 l 500 1239 m 53 661 q 126 905 53 818 q 336 992 200 992 q 535 917 463 992 q 618 706 607 842 l 711 706 q 749 747 749 706 l 749 782 q 725 778 738 778 q 658 806 686 778 q 629 875 629 835 q 658 944 629 915 q 726 972 686 972 q 795 944 767 972 q 824 875 824 915 l 824 739 q 794 661 824 692 q 717 631 764 631 l 619 631 l 619 303 q 545 61 619 142 q 336 -19 471 -19 q 127 61 201 -19 q 53 303 53 142 l 53 661 m 336 86 q 463 141 422 86 q 503 311 503 196 l 503 661 q 463 827 503 768 q 336 886 424 886 q 209 827 249 886 q 169 661 169 768 l 169 311 q 210 141 169 196 q 336 86 250 86 z "},"Ờ":{"ha":850,"x_min":53,"x_max":824,"o":"m 296 1239 l 388 1075 l 288 1075 l 171 1239 l 296 1239 m 53 661 q 126 905 53 818 q 336 992 200 992 q 535 917 463 992 q 618 706 607 842 l 711 706 q 749 747 749 706 l 749 782 q 725 778 738 778 q 658 806 686 778 q 629 875 629 835 q 658 944 629 915 q 726 972 686 972 q 795 944 767 972 q 824 875 824 915 l 824 739 q 794 661 824 692 q 717 631 764 631 l 619 631 l 619 303 q 545 61 619 142 q 336 -19 471 -19 q 127 61 201 -19 q 53 303 53 142 l 53 661 m 336 86 q 463 141 422 86 q 503 311 503 196 l 503 661 q 463 827 503 768 q 336 886 424 886 q 209 827 249 886 q 169 661 169 768 l 169 311 q 210 141 169 196 q 336 86 250 86 z "},"Ở":{"ha":850,"x_min":53,"x_max":824,"o":"m 53 661 q 126 905 53 818 q 336 992 200 992 q 535 917 463 992 q 618 706 607 842 l 711 706 q 749 747 749 706 l 749 782 q 725 778 738 778 q 658 806 686 778 q 629 875 629 835 q 658 944 629 915 q 726 972 686 972 q 795 944 767 972 q 824 875 824 915 l 824 739 q 794 661 824 692 q 717 631 764 631 l 619 631 l 619 303 q 545 61 619 142 q 336 -19 471 -19 q 127 61 201 -19 q 53 303 53 142 l 53 661 m 336 86 q 463 141 422 86 q 503 311 503 196 l 503 661 q 463 827 503 768 q 336 886 424 886 q 209 827 249 886 q 169 661 169 768 l 169 311 q 210 141 169 196 q 336 86 250 86 m 358 1042 l 338 1136 l 346 1136 q 421 1092 364 1092 q 498 1126 469 1092 q 526 1210 526 1161 q 489 1302 526 1268 q 397 1336 451 1336 q 306 1308 338 1336 q 263 1239 274 1281 l 329 1214 q 349 1252 333 1235 q 396 1269 365 1269 q 434 1256 417 1269 q 451 1211 451 1242 q 437 1172 451 1186 q 403 1158 422 1158 q 368 1178 378 1158 l 263 1178 l 263 1169 l 290 1042 l 358 1042 z "},"Ỡ":{"ha":850,"x_min":53,"x_max":824,"o":"m 53 661 q 126 905 53 818 q 336 992 200 992 q 535 917 463 992 q 618 706 607 842 l 711 706 q 749 747 749 706 l 749 782 q 725 778 738 778 q 658 806 686 778 q 629 875 629 835 q 658 944 629 915 q 726 972 686 972 q 795 944 767 972 q 824 875 824 915 l 824 739 q 794 661 824 692 q 717 631 764 631 l 619 631 l 619 303 q 545 61 619 142 q 336 -19 471 -19 q 127 61 201 -19 q 53 303 53 142 l 53 661 m 336 86 q 463 141 422 86 q 503 311 503 196 l 503 661 q 463 827 503 768 q 336 886 424 886 q 209 827 249 886 q 169 661 169 768 l 169 311 q 210 141 169 196 q 336 86 250 86 m 381 1175 q 394 1154 388 1161 q 414 1147 401 1147 q 440 1161 428 1147 l 507 1238 l 575 1179 l 518 1111 q 472 1070 499 1088 q 410 1053 446 1053 q 344 1072 367 1053 q 297 1135 321 1092 q 281 1158 288 1151 q 264 1165 275 1165 q 233 1149 249 1165 l 169 1075 l 101 1133 l 158 1201 q 204 1242 178 1225 q 268 1260 231 1260 q 332 1240 308 1260 q 381 1175 356 1219 z "},"Ợ":{"ha":850,"x_min":53,"x_max":824,"o":"m 53 661 q 126 905 53 818 q 336 992 200 992 q 535 917 463 992 q 618 706 607 842 l 711 706 q 749 747 749 706 l 749 782 q 725 778 738 778 q 658 806 686 778 q 629 875 629 835 q 658 944 629 915 q 726 972 686 972 q 795 944 767 972 q 824 875 824 915 l 824 739 q 794 661 824 692 q 717 631 764 631 l 619 631 l 619 303 q 545 61 619 142 q 336 -19 471 -19 q 127 61 201 -19 q 53 303 53 142 l 53 661 m 336 86 q 463 141 422 86 q 503 311 503 196 l 503 661 q 463 827 503 768 q 336 886 424 886 q 209 827 249 886 q 169 661 169 768 l 169 311 q 210 141 169 196 q 336 86 250 86 m 240 -185 q 269 -116 240 -144 q 338 -87 297 -87 q 406 -116 378 -87 q 435 -185 435 -144 q 406 -253 435 -225 q 338 -282 378 -282 q 269 -253 297 -282 q 240 -185 240 -225 z "},"Ø":{"ha":850,"x_min":83,"x_max":767,"o":"m 224 38 q 119 170 156 85 q 83 378 83 256 l 83 594 q 174 888 83 783 q 425 992 264 992 q 533 976 481 992 l 565 1075 l 663 1044 l 625 932 q 730 798 693 883 q 767 594 767 713 l 767 378 q 676 82 767 183 q 425 -19 586 -19 q 318 -6 364 -19 l 281 -119 l 182 -89 l 224 38 m 200 386 q 263 157 200 233 l 499 872 q 425 883 463 883 q 256 801 313 883 q 200 586 200 719 l 200 386 m 425 89 q 594 166 538 89 q 650 386 650 243 l 650 586 q 586 811 650 731 l 353 99 q 425 89 382 89 z "},"Œ":{"ha":850,"x_min":75,"x_max":758,"o":"m 417 0 q 165 101 256 0 q 75 397 75 203 l 75 575 q 165 868 75 764 q 417 972 256 972 l 750 972 l 750 864 l 533 864 l 533 542 l 742 542 l 742 433 l 533 433 l 533 108 l 758 108 l 758 0 l 417 0 m 417 864 q 248 782 304 864 q 192 567 192 700 l 192 406 q 248 185 192 263 q 417 108 304 108 l 417 864 z "},"Ŕ":{"ha":850,"x_min":118,"x_max":763,"o":"m 729 0 l 613 0 l 613 325 q 596 381 613 361 q 538 400 579 400 l 235 400 l 235 0 l 118 0 l 118 972 l 465 972 q 596 951 540 972 q 688 893 651 929 q 744 809 725 857 q 763 708 763 761 l 763 667 q 733 558 763 613 q 640 475 703 504 l 640 458 q 706 425 682 451 q 729 350 729 399 l 729 0 m 235 508 l 451 508 q 598 551 550 508 q 646 675 646 593 l 646 700 q 598 819 646 774 q 451 864 550 864 l 235 864 l 235 508 m 567 1239 l 450 1075 l 350 1075 l 442 1239 l 567 1239 z "},"Ř":{"ha":850,"x_min":118,"x_max":763,"o":"m 729 0 l 613 0 l 613 325 q 596 381 613 361 q 538 400 579 400 l 235 400 l 235 0 l 118 0 l 118 972 l 465 972 q 596 951 540 972 q 688 893 651 929 q 744 809 725 857 q 763 708 763 761 l 763 667 q 733 558 763 613 q 640 475 703 504 l 640 458 q 706 425 682 451 q 729 350 729 399 l 729 0 m 235 508 l 451 508 q 598 551 550 508 q 646 675 646 593 l 646 700 q 598 819 646 774 q 451 864 550 864 l 235 864 l 235 508 m 583 1239 l 472 1075 l 300 1075 l 189 1239 l 306 1239 l 378 1117 l 394 1117 l 467 1239 l 583 1239 z "},"Ŗ":{"ha":850,"x_min":118,"x_max":763,"o":"m 729 0 l 613 0 l 613 325 q 596 381 613 361 q 538 400 579 400 l 235 400 l 235 0 l 118 0 l 118 972 l 465 972 q 596 951 540 972 q 688 893 651 929 q 744 809 725 857 q 763 708 763 761 l 763 667 q 733 558 763 613 q 640 475 703 504 l 640 458 q 706 425 682 451 q 729 350 729 399 l 729 0 m 235 508 l 451 508 q 598 551 550 508 q 646 675 646 593 l 646 700 q 598 819 646 774 q 451 864 550 864 l 235 864 l 235 508 m 335 -157 q 363 -88 335 -117 q 432 -60 392 -60 q 501 -88 472 -60 q 529 -157 529 -117 l 529 -293 q 499 -371 529 -340 q 422 -401 469 -401 l 351 -401 l 351 -326 l 417 -326 q 454 -285 454 -326 l 454 -250 q 431 -254 443 -254 q 363 -226 392 -254 q 335 -157 335 -197 z "},"Ṛ":{"ha":850,"x_min":118,"x_max":763,"o":"m 729 0 l 613 0 l 613 325 q 596 381 613 361 q 538 400 579 400 l 235 400 l 235 0 l 118 0 l 118 972 l 465 972 q 596 951 540 972 q 688 893 651 929 q 744 809 725 857 q 763 708 763 761 l 763 667 q 733 558 763 613 q 640 475 703 504 l 640 458 q 706 425 682 451 q 729 350 729 399 l 729 0 m 235 508 l 451 508 q 598 551 550 508 q 646 675 646 593 l 646 700 q 598 819 646 774 q 451 864 550 864 l 235 864 l 235 508 m 328 -185 q 356 -116 328 -144 q 425 -87 385 -87 q 494 -116 465 -87 q 522 -185 522 -144 q 494 -253 522 -225 q 425 -282 465 -282 q 356 -253 385 -282 q 328 -185 328 -225 z "},"Ṝ":{"ha":850,"x_min":118,"x_max":763,"o":"m 729 0 l 613 0 l 613 325 q 596 381 613 361 q 538 400 579 400 l 235 400 l 235 0 l 118 0 l 118 972 l 465 972 q 596 951 540 972 q 688 893 651 929 q 744 809 725 857 q 763 708 763 761 l 763 667 q 733 558 763 613 q 640 475 703 504 l 640 458 q 706 425 682 451 q 729 350 729 399 l 729 0 m 235 508 l 451 508 q 598 551 550 508 q 646 675 646 593 l 646 700 q 598 819 646 774 q 451 864 550 864 l 235 864 l 235 508 m 626 1075 l 235 1075 l 235 1167 l 626 1167 l 626 1075 m 328 -185 q 356 -116 328 -144 q 425 -87 385 -87 q 494 -116 465 -87 q 522 -185 522 -144 q 494 -253 522 -225 q 425 -282 465 -282 q 356 -253 385 -282 q 328 -185 328 -225 z "},"Ṟ":{"ha":850,"x_min":118,"x_max":763,"o":"m 729 0 l 613 0 l 613 325 q 596 381 613 361 q 538 400 579 400 l 235 400 l 235 0 l 118 0 l 118 972 l 465 972 q 596 951 540 972 q 688 893 651 929 q 744 809 725 857 q 763 708 763 761 l 763 667 q 733 558 763 613 q 640 475 703 504 l 640 458 q 706 425 682 451 q 729 350 729 399 l 729 0 m 235 508 l 451 508 q 598 551 550 508 q 646 675 646 593 l 646 700 q 598 819 646 774 q 451 864 550 864 l 235 864 l 235 508 m 621 -179 l 229 -179 l 229 -87 l 621 -87 l 621 -179 z "},"Ś":{"ha":850,"x_min":63,"x_max":779,"o":"m 654 692 q 635 775 654 739 q 585 835 617 811 q 511 871 553 858 q 424 883 469 883 q 347 873 383 883 q 283 843 311 863 q 238 795 254 824 q 221 729 221 767 l 221 721 q 238 652 221 681 q 287 603 254 624 q 368 570 319 583 q 482 547 417 557 q 707 458 635 524 q 779 281 779 392 l 779 264 q 758 149 779 201 q 694 60 736 97 q 589 1 651 22 q 444 -19 526 -19 q 280 8 351 -19 q 160 83 208 35 q 88 195 113 131 q 63 336 63 260 l 63 378 l 179 378 l 179 344 q 249 153 179 217 q 444 89 319 89 q 608 137 553 89 q 663 264 663 185 l 663 272 q 606 389 663 349 q 424 447 550 429 q 291 477 350 457 q 190 530 232 497 q 126 608 149 563 q 104 717 104 654 l 104 733 q 128 838 104 790 q 194 919 151 885 q 295 973 236 954 q 425 992 354 992 q 572 968 507 992 q 681 905 636 944 q 748 812 725 865 q 771 700 771 758 l 771 642 l 654 642 l 654 692 m 575 1239 l 458 1075 l 358 1075 l 450 1239 l 575 1239 z "},"Ŝ":{"ha":850,"x_min":63,"x_max":779,"o":"m 654 692 q 635 775 654 739 q 585 835 617 811 q 511 871 553 858 q 424 883 469 883 q 347 873 383 883 q 283 843 311 863 q 238 795 254 824 q 221 729 221 767 l 221 721 q 238 652 221 681 q 287 603 254 624 q 368 570 319 583 q 482 547 417 557 q 707 458 635 524 q 779 281 779 392 l 779 264 q 758 149 779 201 q 694 60 736 97 q 589 1 651 22 q 444 -19 526 -19 q 280 8 351 -19 q 160 83 208 35 q 88 195 113 131 q 63 336 63 260 l 63 378 l 179 378 l 179 344 q 249 153 179 217 q 444 89 319 89 q 608 137 553 89 q 663 264 663 185 l 663 272 q 606 389 663 349 q 424 447 550 429 q 291 477 350 457 q 190 530 232 497 q 126 608 149 563 q 104 717 104 654 l 104 733 q 128 838 104 790 q 194 919 151 885 q 295 973 236 954 q 425 992 354 992 q 572 968 507 992 q 681 905 636 944 q 748 812 725 865 q 771 700 771 758 l 771 642 l 654 642 l 654 692 m 506 1075 l 433 1197 l 417 1197 l 344 1075 l 228 1075 l 339 1239 l 511 1239 l 622 1075 l 506 1075 z "},"Š":{"ha":850,"x_min":63,"x_max":779,"o":"m 654 692 q 635 775 654 739 q 585 835 617 811 q 511 871 553 858 q 424 883 469 883 q 347 873 383 883 q 283 843 311 863 q 238 795 254 824 q 221 729 221 767 l 221 721 q 238 652 221 681 q 287 603 254 624 q 368 570 319 583 q 482 547 417 557 q 707 458 635 524 q 779 281 779 392 l 779 264 q 758 149 779 201 q 694 60 736 97 q 589 1 651 22 q 444 -19 526 -19 q 280 8 351 -19 q 160 83 208 35 q 88 195 113 131 q 63 336 63 260 l 63 378 l 179 378 l 179 344 q 249 153 179 217 q 444 89 319 89 q 608 137 553 89 q 663 264 663 185 l 663 272 q 606 389 663 349 q 424 447 550 429 q 291 477 350 457 q 190 530 232 497 q 126 608 149 563 q 104 717 104 654 l 104 733 q 128 838 104 790 q 194 919 151 885 q 295 973 236 954 q 425 992 354 992 q 572 968 507 992 q 681 905 636 944 q 748 812 725 865 q 771 700 771 758 l 771 642 l 654 642 l 654 692 m 625 1239 l 514 1075 l 342 1075 l 231 1239 l 347 1239 l 419 1117 l 436 1117 l 508 1239 l 625 1239 z "},"Ș":{"ha":850,"x_min":63,"x_max":779,"o":"m 654 692 q 635 775 654 739 q 585 835 617 811 q 511 871 553 858 q 424 883 469 883 q 347 873 383 883 q 283 843 311 863 q 238 795 254 824 q 221 729 221 767 l 221 721 q 238 652 221 681 q 287 603 254 624 q 368 570 319 583 q 482 547 417 557 q 707 458 635 524 q 779 281 779 392 l 779 264 q 758 149 779 201 q 694 60 736 97 q 589 1 651 22 q 444 -19 526 -19 q 280 8 351 -19 q 160 83 208 35 q 88 195 113 131 q 63 336 63 260 l 63 378 l 179 378 l 179 344 q 249 153 179 217 q 444 89 319 89 q 608 137 553 89 q 663 264 663 185 l 663 272 q 606 389 663 349 q 424 447 550 429 q 291 477 350 457 q 190 530 232 497 q 126 608 149 563 q 104 717 104 654 l 104 733 q 128 838 104 790 q 194 919 151 885 q 295 973 236 954 q 425 992 354 992 q 572 968 507 992 q 681 905 636 944 q 748 812 725 865 q 771 700 771 758 l 771 642 l 654 642 l 654 692 m 347 -157 q 376 -88 347 -117 q 444 -60 404 -60 q 513 -88 485 -60 q 542 -157 542 -117 l 542 -293 q 512 -371 542 -340 q 435 -401 482 -401 l 364 -401 l 364 -326 l 429 -326 q 467 -285 467 -326 l 467 -250 q 443 -254 456 -254 q 376 -226 404 -254 q 347 -157 347 -197 z "},"Ş":{"ha":850,"x_min":63,"x_max":779,"o":"m 654 692 q 635 775 654 739 q 585 835 617 811 q 511 871 553 858 q 424 883 469 883 q 347 873 383 883 q 283 843 311 863 q 238 795 254 824 q 221 729 221 767 l 221 721 q 238 652 221 681 q 287 603 254 624 q 368 570 319 583 q 482 547 417 557 q 707 458 635 524 q 779 281 779 392 l 779 264 q 758 149 779 201 q 694 60 736 97 q 589 1 651 22 q 444 -19 526 -19 l 433 -19 l 417 -94 l 425 -94 q 500 -50 443 -50 q 577 -85 549 -50 q 606 -168 606 -119 q 568 -260 606 -226 q 476 -294 531 -294 q 385 -267 417 -294 q 342 -197 353 -239 l 408 -172 q 428 -210 413 -193 q 475 -228 444 -228 q 513 -214 496 -228 q 531 -169 531 -200 q 516 -131 531 -144 q 482 -117 501 -117 q 447 -136 457 -117 l 342 -136 l 342 -128 l 367 -14 q 235 28 292 -3 q 140 104 179 58 q 82 209 101 150 q 63 336 63 268 l 63 378 l 179 378 l 179 344 q 249 153 179 217 q 444 89 319 89 q 608 137 553 89 q 663 264 663 185 l 663 272 q 606 389 663 349 q 424 447 550 429 q 291 477 350 457 q 190 530 232 497 q 126 608 149 563 q 104 717 104 654 l 104 733 q 128 838 104 790 q 194 919 151 885 q 295 973 236 954 q 425 992 354 992 q 572 968 507 992 q 681 905 636 944 q 748 812 725 865 q 771 700 771 758 l 771 642 l 654 642 l 654 692 z "},"Ṡ":{"ha":850,"x_min":63,"x_max":779,"o":"m 654 692 q 635 775 654 739 q 585 835 617 811 q 511 871 553 858 q 424 883 469 883 q 347 873 383 883 q 283 843 311 863 q 238 795 254 824 q 221 729 221 767 l 221 721 q 238 652 221 681 q 287 603 254 624 q 368 570 319 583 q 482 547 417 557 q 707 458 635 524 q 779 281 779 392 l 779 264 q 758 149 779 201 q 694 60 736 97 q 589 1 651 22 q 444 -19 526 -19 q 280 8 351 -19 q 160 83 208 35 q 88 195 113 131 q 63 336 63 260 l 63 378 l 179 378 l 179 344 q 249 153 179 217 q 444 89 319 89 q 608 137 553 89 q 663 264 663 185 l 663 272 q 606 389 663 349 q 424 447 550 429 q 291 477 350 457 q 190 530 232 497 q 126 608 149 563 q 104 717 104 654 l 104 733 q 128 838 104 790 q 194 919 151 885 q 295 973 236 954 q 425 992 354 992 q 572 968 507 992 q 681 905 636 944 q 748 812 725 865 q 771 700 771 758 l 771 642 l 654 642 l 654 692 m 328 1172 q 356 1241 328 1213 q 425 1269 385 1269 q 494 1241 465 1269 q 522 1172 522 1213 q 494 1103 522 1132 q 425 1075 465 1075 q 356 1103 385 1075 q 328 1172 328 1132 z "},"Ṣ":{"ha":850,"x_min":63,"x_max":779,"o":"m 654 692 q 635 775 654 739 q 585 835 617 811 q 511 871 553 858 q 424 883 469 883 q 347 873 383 883 q 283 843 311 863 q 238 795 254 824 q 221 729 221 767 l 221 721 q 238 652 221 681 q 287 603 254 624 q 368 570 319 583 q 482 547 417 557 q 707 458 635 524 q 779 281 779 392 l 779 264 q 758 149 779 201 q 694 60 736 97 q 589 1 651 22 q 444 -19 526 -19 q 280 8 351 -19 q 160 83 208 35 q 88 195 113 131 q 63 336 63 260 l 63 378 l 179 378 l 179 344 q 249 153 179 217 q 444 89 319 89 q 608 137 553 89 q 663 264 663 185 l 663 272 q 606 389 663 349 q 424 447 550 429 q 291 477 350 457 q 190 530 232 497 q 126 608 149 563 q 104 717 104 654 l 104 733 q 128 838 104 790 q 194 919 151 885 q 295 973 236 954 q 425 992 354 992 q 572 968 507 992 q 681 905 636 944 q 748 812 725 865 q 771 700 771 758 l 771 642 l 654 642 l 654 692 m 347 -185 q 376 -116 347 -144 q 444 -87 404 -87 q 513 -116 485 -87 q 542 -185 542 -144 q 513 -253 542 -225 q 444 -282 485 -282 q 376 -253 404 -282 q 347 -185 347 -225 z "},"ẞ":{"ha":850,"x_min":50,"x_max":788,"o":"m 346 483 l 346 647 l 613 847 l 613 864 l 421 864 q 297 822 344 864 q 250 689 250 779 l 250 0 l 133 0 l 133 581 l 50 581 l 50 689 l 133 689 q 153 810 133 757 q 210 899 174 864 q 299 953 247 935 q 413 972 350 972 l 713 972 l 713 792 l 446 592 l 446 575 l 501 575 q 610 558 558 575 q 701 506 661 540 q 764 422 740 472 q 788 308 788 372 l 788 292 q 763 178 788 231 q 693 85 738 125 q 588 23 649 46 q 457 0 528 0 l 346 0 l 346 108 l 454 108 q 540 123 500 108 q 608 163 579 138 q 654 222 638 188 q 671 299 671 257 l 671 307 q 656 381 671 349 q 615 437 642 414 q 553 472 589 460 q 476 483 518 483 l 346 483 z "},"Ť":{"ha":850,"x_min":83,"x_max":767,"o":"m 83 972 l 767 972 l 767 864 l 483 864 l 483 0 l 367 0 l 367 864 l 83 864 l 83 972 m 622 1239 l 511 1075 l 339 1075 l 228 1239 l 344 1239 l 417 1117 l 433 1117 l 506 1239 l 622 1239 z "},"Ţ":{"ha":850,"x_min":83,"x_max":767,"o":"m 367 0 l 367 864 l 83 864 l 83 972 l 767 972 l 767 864 l 483 864 l 483 0 l 460 0 l 439 -94 l 447 -94 q 522 -50 465 -50 q 599 -85 571 -50 q 628 -168 628 -119 q 590 -260 628 -226 q 499 -294 553 -294 q 407 -267 439 -294 q 364 -197 375 -239 l 431 -172 q 451 -210 435 -193 q 497 -228 467 -228 q 535 -214 518 -228 q 553 -169 553 -200 q 538 -131 553 -144 q 504 -117 524 -117 q 469 -136 479 -117 l 364 -136 l 364 -128 l 392 0 l 367 0 z "},"Ț":{"ha":850,"x_min":83,"x_max":767,"o":"m 83 972 l 767 972 l 767 864 l 483 864 l 483 0 l 367 0 l 367 864 l 83 864 l 83 972 m 328 -157 q 356 -88 328 -117 q 425 -60 385 -60 q 494 -88 465 -60 q 522 -157 522 -117 l 522 -293 q 492 -371 522 -340 q 415 -401 463 -401 l 344 -401 l 344 -326 l 410 -326 q 447 -285 447 -326 l 447 -250 q 424 -254 436 -254 q 356 -226 385 -254 q 328 -157 328 -197 z "},"Ṭ":{"ha":850,"x_min":83,"x_max":767,"o":"m 83 972 l 767 972 l 767 864 l 483 864 l 483 0 l 367 0 l 367 864 l 83 864 l 83 972 m 328 -185 q 356 -116 328 -144 q 425 -87 385 -87 q 494 -116 465 -87 q 522 -185 522 -144 q 494 -253 522 -225 q 425 -282 465 -282 q 356 -253 385 -282 q 328 -185 328 -225 z "},"Ṯ":{"ha":850,"x_min":83,"x_max":767,"o":"m 83 972 l 767 972 l 767 864 l 483 864 l 483 0 l 367 0 l 367 864 l 83 864 l 83 972 m 621 -179 l 229 -179 l 229 -87 l 621 -87 l 621 -179 z "},"Ŧ":{"ha":850,"x_min":83,"x_max":767,"o":"m 83 972 l 767 972 l 767 864 l 483 864 l 483 594 l 700 594 l 700 486 l 483 486 l 483 0 l 367 0 l 367 486 l 150 486 l 150 594 l 367 594 l 367 864 l 83 864 l 83 972 z "},"Ù":{"ha":850,"x_min":92,"x_max":758,"o":"m 208 972 l 208 328 q 263 149 208 210 q 425 89 318 89 q 587 149 532 89 q 642 328 642 210 l 642 972 l 758 972 l 758 328 q 669 69 758 158 q 425 -19 581 -19 q 181 69 269 -19 q 92 328 92 158 l 92 972 l 208 972 m 399 1239 l 490 1075 l 390 1075 l 274 1239 l 399 1239 z "},"Ú":{"ha":850,"x_min":92,"x_max":758,"o":"m 208 972 l 208 328 q 263 149 208 210 q 425 89 318 89 q 587 149 532 89 q 642 328 642 210 l 642 972 l 758 972 l 758 328 q 669 69 758 158 q 425 -19 581 -19 q 181 69 269 -19 q 92 328 92 158 l 92 972 l 208 972 m 599 1239 l 482 1075 l 382 1075 l 474 1239 l 599 1239 z "},"Û":{"ha":850,"x_min":92,"x_max":758,"o":"m 208 972 l 208 328 q 263 149 208 210 q 425 89 318 89 q 587 149 532 89 q 642 328 642 210 l 642 972 l 758 972 l 758 328 q 669 69 758 158 q 425 -19 581 -19 q 181 69 269 -19 q 92 328 92 158 l 92 972 l 208 972 m 506 1075 l 433 1197 l 417 1197 l 344 1075 l 228 1075 l 339 1239 l 511 1239 l 622 1075 l 506 1075 z "},"Ũ":{"ha":850,"x_min":92,"x_max":758,"o":"m 208 972 l 208 328 q 263 149 208 210 q 425 89 318 89 q 587 149 532 89 q 642 328 642 210 l 642 972 l 758 972 l 758 328 q 669 69 758 158 q 425 -19 581 -19 q 181 69 269 -19 q 92 328 92 158 l 92 972 l 208 972 m 518 1175 q 532 1154 525 1161 q 551 1147 539 1147 q 578 1161 565 1147 l 644 1238 l 713 1179 l 656 1111 q 610 1070 636 1088 q 547 1053 583 1053 q 481 1072 504 1053 q 435 1135 458 1092 q 419 1158 425 1151 q 401 1165 413 1165 q 371 1149 386 1165 l 307 1075 l 239 1133 l 296 1201 q 342 1242 315 1225 q 406 1260 368 1260 q 469 1240 446 1260 q 518 1175 493 1219 z "},"Ü":{"ha":850,"x_min":92,"x_max":758,"o":"m 208 972 l 208 328 q 263 149 208 210 q 425 89 318 89 q 587 149 532 89 q 642 328 642 210 l 642 972 l 758 972 l 758 328 q 669 69 758 158 q 425 -19 581 -19 q 181 69 269 -19 q 92 328 92 158 l 92 972 l 208 972 m 189 1178 q 217 1247 189 1218 q 286 1275 246 1275 q 355 1247 326 1275 q 383 1178 383 1218 q 355 1109 383 1138 q 286 1081 326 1081 q 217 1109 246 1081 q 189 1178 189 1138 m 467 1178 q 495 1247 467 1218 q 564 1275 524 1275 q 633 1247 604 1275 q 661 1178 661 1218 q 633 1109 661 1138 q 564 1081 604 1081 q 495 1109 524 1081 q 467 1178 467 1138 z "},"Ū":{"ha":850,"x_min":92,"x_max":758,"o":"m 208 972 l 208 328 q 263 149 208 210 q 425 89 318 89 q 587 149 532 89 q 642 328 642 210 l 642 972 l 758 972 l 758 328 q 669 69 758 158 q 425 -19 581 -19 q 181 69 269 -19 q 92 328 92 158 l 92 972 l 208 972 m 621 1075 l 229 1075 l 229 1167 l 621 1167 l 621 1075 z "},"Ŭ":{"ha":850,"x_min":92,"x_max":758,"o":"m 208 972 l 208 328 q 263 149 208 210 q 425 89 318 89 q 587 149 532 89 q 642 328 642 210 l 642 972 l 758 972 l 758 328 q 669 69 758 158 q 425 -19 581 -19 q 181 69 269 -19 q 92 328 92 158 l 92 972 l 208 972 m 575 1239 l 575 1225 q 535 1117 575 1158 q 425 1075 494 1075 q 315 1117 356 1075 q 275 1225 275 1158 l 275 1239 l 371 1239 l 371 1222 q 385 1184 371 1200 q 425 1168 399 1168 q 465 1184 451 1168 q 479 1222 479 1200 l 479 1239 l 575 1239 z "},"Ů":{"ha":850,"x_min":92,"x_max":758,"o":"m 208 972 l 208 328 q 263 149 208 210 q 425 89 318 89 q 587 149 532 89 q 642 328 642 210 l 642 972 l 758 972 l 758 328 q 669 69 758 158 q 425 -19 581 -19 q 181 69 269 -19 q 92 328 92 158 l 92 972 l 208 972 m 283 1211 q 324 1312 283 1271 q 425 1353 365 1353 q 526 1312 485 1353 q 567 1211 567 1271 q 526 1110 567 1151 q 425 1069 485 1069 q 324 1110 365 1069 q 283 1211 283 1151 m 367 1211 q 383 1169 367 1186 q 425 1153 400 1153 q 467 1169 450 1153 q 483 1211 483 1186 q 467 1253 483 1236 q 425 1269 450 1269 q 383 1253 400 1269 q 367 1211 367 1236 z "},"Ű":{"ha":850,"x_min":92,"x_max":758,"o":"m 208 972 l 208 328 q 263 149 208 210 q 425 89 318 89 q 587 149 532 89 q 642 328 642 210 l 642 972 l 758 972 l 758 328 q 669 69 758 158 q 425 -19 581 -19 q 181 69 269 -19 q 92 328 92 158 l 92 972 l 208 972 m 478 1239 l 361 1075 l 261 1075 l 353 1239 l 478 1239 m 678 1239 l 561 1075 l 461 1075 l 553 1239 l 678 1239 z "},"Ǔ":{"ha":850,"x_min":92,"x_max":758,"o":"m 208 972 l 208 328 q 263 149 208 210 q 425 89 318 89 q 587 149 532 89 q 642 328 642 210 l 642 972 l 758 972 l 758 328 q 669 69 758 158 q 425 -19 581 -19 q 181 69 269 -19 q 92 328 92 158 l 92 972 l 208 972 m 622 1239 l 511 1075 l 339 1075 l 228 1239 l 344 1239 l 417 1117 l 433 1117 l 506 1239 l 622 1239 z "},"Ų":{"ha":850,"x_min":92,"x_max":758,"o":"m 208 972 l 208 328 q 263 149 208 210 q 425 89 318 89 q 587 149 532 89 q 642 328 642 210 l 642 972 l 758 972 l 758 328 q 681 83 758 171 q 469 -17 604 -4 l 451 -94 q 450 -106 450 -101 q 482 -136 450 -136 l 540 -136 l 540 -228 l 463 -228 q 388 -202 422 -228 q 354 -125 354 -176 q 358 -92 354 -112 l 375 -17 q 167 85 242 -3 q 92 328 92 172 l 92 972 l 208 972 z "},"Ǖ":{"ha":850,"x_min":92,"x_max":758,"o":"m 661 1250 l 189 1250 l 189 1342 l 661 1342 l 661 1250 m 208 972 l 208 328 q 263 149 208 210 q 425 89 318 89 q 587 149 532 89 q 642 328 642 210 l 642 972 l 758 972 l 758 328 q 669 69 758 158 q 425 -19 581 -19 q 181 69 269 -19 q 92 328 92 158 l 92 972 l 208 972 m 189 1111 q 217 1180 189 1151 q 286 1208 246 1208 q 355 1180 326 1208 q 383 1111 383 1151 q 355 1042 383 1071 q 286 1014 326 1014 q 217 1042 246 1014 q 189 1111 189 1071 m 467 1111 q 495 1180 467 1151 q 564 1208 524 1208 q 633 1180 604 1208 q 661 1111 661 1151 q 633 1042 661 1071 q 564 1014 604 1014 q 495 1042 524 1014 q 467 1111 467 1071 z "},"Ǘ":{"ha":850,"x_min":92,"x_max":758,"o":"m 208 972 l 208 328 q 263 149 208 210 q 425 89 318 89 q 587 149 532 89 q 642 328 642 210 l 642 972 l 758 972 l 758 328 q 669 69 758 158 q 425 -19 581 -19 q 181 69 269 -19 q 92 328 92 158 l 92 972 l 208 972 m 189 1111 q 217 1180 189 1151 q 286 1208 246 1208 q 355 1180 326 1208 q 383 1111 383 1151 q 355 1042 383 1071 q 286 1014 326 1014 q 217 1042 246 1014 q 189 1111 189 1071 m 467 1111 q 495 1180 467 1151 q 564 1208 524 1208 q 633 1180 604 1208 q 661 1111 661 1151 q 633 1042 661 1071 q 564 1014 604 1014 q 495 1042 524 1014 q 467 1111 467 1071 m 592 1414 l 475 1250 l 375 1250 l 467 1414 l 592 1414 z "},"Ǚ":{"ha":850,"x_min":92,"x_max":758,"o":"m 208 972 l 208 328 q 263 149 208 210 q 425 89 318 89 q 587 149 532 89 q 642 328 642 210 l 642 972 l 758 972 l 758 328 q 669 69 758 158 q 425 -19 581 -19 q 181 69 269 -19 q 92 328 92 158 l 92 972 l 208 972 m 189 1111 q 217 1180 189 1151 q 286 1208 246 1208 q 355 1180 326 1208 q 383 1111 383 1151 q 355 1042 383 1071 q 286 1014 326 1014 q 217 1042 246 1014 q 189 1111 189 1071 m 467 1111 q 495 1180 467 1151 q 564 1208 524 1208 q 633 1180 604 1208 q 661 1111 661 1151 q 633 1042 661 1071 q 564 1014 604 1014 q 495 1042 524 1014 q 467 1111 467 1071 m 622 1414 l 511 1250 l 339 1250 l 228 1414 l 344 1414 l 417 1292 l 433 1292 l 506 1414 l 622 1414 z "},"Ǜ":{"ha":850,"x_min":92,"x_max":758,"o":"m 208 972 l 208 328 q 263 149 208 210 q 425 89 318 89 q 587 149 532 89 q 642 328 642 210 l 642 972 l 758 972 l 758 328 q 669 69 758 158 q 425 -19 581 -19 q 181 69 269 -19 q 92 328 92 158 l 92 972 l 208 972 m 385 1414 l 476 1250 l 376 1250 l 260 1414 l 385 1414 m 189 1111 q 217 1180 189 1151 q 286 1208 246 1208 q 355 1180 326 1208 q 383 1111 383 1151 q 355 1042 383 1071 q 286 1014 326 1014 q 217 1042 246 1014 q 189 1111 189 1071 m 467 1111 q 495 1180 467 1151 q 564 1208 524 1208 q 633 1180 604 1208 q 661 1111 661 1151 q 633 1042 661 1071 q 564 1014 604 1014 q 495 1042 524 1014 q 467 1111 467 1071 z "},"Ụ":{"ha":850,"x_min":92,"x_max":758,"o":"m 208 972 l 208 328 q 263 149 208 210 q 425 89 318 89 q 587 149 532 89 q 642 328 642 210 l 642 972 l 758 972 l 758 328 q 669 69 758 158 q 425 -19 581 -19 q 181 69 269 -19 q 92 328 92 158 l 92 972 l 208 972 m 328 -185 q 356 -116 328 -144 q 425 -87 385 -87 q 494 -116 465 -87 q 522 -185 522 -144 q 494 -253 522 -225 q 425 -282 465 -282 q 356 -253 385 -282 q 328 -185 328 -225 z "},"Ủ":{"ha":850,"x_min":92,"x_max":758,"o":"m 369 1042 l 342 1169 l 342 1178 l 447 1178 q 482 1158 457 1158 q 516 1172 501 1158 q 531 1211 531 1186 q 513 1256 531 1242 q 475 1269 496 1269 q 428 1252 444 1269 q 408 1214 413 1235 l 342 1239 q 385 1308 353 1281 q 476 1336 417 1336 q 568 1302 531 1336 q 606 1210 606 1268 q 577 1126 606 1161 q 500 1092 549 1092 q 425 1136 443 1092 l 417 1136 l 438 1042 l 369 1042 m 208 972 l 208 328 q 263 149 208 210 q 425 89 318 89 q 587 149 532 89 q 642 328 642 210 l 642 972 l 758 972 l 758 328 q 669 69 758 158 q 425 -19 581 -19 q 181 69 269 -19 q 92 328 92 158 l 92 972 l 208 972 z "},"Ư":{"ha":850,"x_min":56,"x_max":850,"o":"m 172 972 l 172 286 q 213 133 172 179 q 331 86 253 86 q 449 133 408 86 q 489 286 489 179 l 489 972 l 606 972 l 606 706 l 738 706 q 775 747 775 706 l 775 782 q 751 778 764 778 q 684 806 713 778 q 656 875 656 835 q 684 944 656 915 q 753 972 713 972 q 822 944 793 972 q 850 875 850 915 l 850 739 q 820 661 850 692 q 743 631 790 631 l 606 631 l 606 281 q 534 54 606 128 q 331 -19 463 -19 q 127 54 199 -19 q 56 281 56 128 l 56 972 l 172 972 z "},"Ứ":{"ha":850,"x_min":56,"x_max":850,"o":"m 499 1239 l 382 1075 l 282 1075 l 374 1239 l 499 1239 m 172 972 l 172 286 q 213 133 172 179 q 331 86 253 86 q 449 133 408 86 q 489 286 489 179 l 489 972 l 606 972 l 606 706 l 738 706 q 775 747 775 706 l 775 782 q 751 778 764 778 q 684 806 713 778 q 656 875 656 835 q 684 944 656 915 q 753 972 713 972 q 822 944 793 972 q 850 875 850 915 l 850 739 q 820 661 850 692 q 743 631 790 631 l 606 631 l 606 281 q 534 54 606 128 q 331 -19 463 -19 q 127 54 199 -19 q 56 281 56 128 l 56 972 l 172 972 z "},"Ừ":{"ha":850,"x_min":56,"x_max":850,"o":"m 290 1239 l 382 1075 l 282 1075 l 165 1239 l 290 1239 m 172 972 l 172 286 q 213 133 172 179 q 331 86 253 86 q 449 133 408 86 q 489 286 489 179 l 489 972 l 606 972 l 606 706 l 738 706 q 775 747 775 706 l 775 782 q 751 778 764 778 q 684 806 713 778 q 656 875 656 835 q 684 944 656 915 q 753 972 713 972 q 822 944 793 972 q 850 875 850 915 l 850 739 q 820 661 850 692 q 743 631 790 631 l 606 631 l 606 281 q 534 54 606 128 q 331 -19 463 -19 q 127 54 199 -19 q 56 281 56 128 l 56 972 l 172 972 z "},"Ử":{"ha":850,"x_min":56,"x_max":850,"o":"m 292 1042 l 264 1169 l 264 1178 l 369 1178 q 404 1158 379 1158 q 438 1172 424 1158 q 453 1211 453 1186 q 435 1256 453 1242 q 397 1269 418 1269 q 351 1252 367 1269 q 331 1214 335 1235 l 264 1239 q 307 1308 275 1281 q 399 1336 339 1336 q 490 1302 453 1336 q 528 1210 528 1268 q 499 1126 528 1161 q 422 1092 471 1092 q 347 1136 365 1092 l 339 1136 l 360 1042 l 292 1042 m 172 972 l 172 286 q 213 133 172 179 q 331 86 253 86 q 449 133 408 86 q 489 286 489 179 l 489 972 l 606 972 l 606 706 l 738 706 q 775 747 775 706 l 775 782 q 751 778 764 778 q 684 806 713 778 q 656 875 656 835 q 684 944 656 915 q 753 972 713 972 q 822 944 793 972 q 850 875 850 915 l 850 739 q 820 661 850 692 q 743 631 790 631 l 606 631 l 606 281 q 534 54 606 128 q 331 -19 463 -19 q 127 54 199 -19 q 56 281 56 128 l 56 972 l 172 972 z "},"Ữ":{"ha":850,"x_min":56,"x_max":850,"o":"m 375 1175 q 389 1154 382 1161 q 408 1147 396 1147 q 435 1161 422 1147 l 501 1238 l 569 1179 l 513 1111 q 467 1070 493 1088 q 404 1053 440 1053 q 338 1072 361 1053 q 292 1135 315 1092 q 276 1158 282 1151 q 258 1165 269 1165 q 228 1149 243 1165 l 164 1075 l 96 1133 l 153 1201 q 199 1242 172 1225 q 263 1260 225 1260 q 326 1240 303 1260 q 375 1175 350 1219 m 172 972 l 172 286 q 213 133 172 179 q 331 86 253 86 q 449 133 408 86 q 489 286 489 179 l 489 972 l 606 972 l 606 706 l 738 706 q 775 747 775 706 l 775 782 q 751 778 764 778 q 684 806 713 778 q 656 875 656 835 q 684 944 656 915 q 753 972 713 972 q 822 944 793 972 q 850 875 850 915 l 850 739 q 820 661 850 692 q 743 631 790 631 l 606 631 l 606 281 q 534 54 606 128 q 331 -19 463 -19 q 127 54 199 -19 q 56 281 56 128 l 56 972 l 172 972 z "},"Ự":{"ha":850,"x_min":56,"x_max":850,"o":"m 172 972 l 172 286 q 213 133 172 179 q 331 86 253 86 q 449 133 408 86 q 489 286 489 179 l 489 972 l 606 972 l 606 706 l 738 706 q 775 747 775 706 l 775 782 q 751 778 764 778 q 684 806 713 778 q 656 875 656 835 q 684 944 656 915 q 753 972 713 972 q 822 944 793 972 q 850 875 850 915 l 850 739 q 820 661 850 692 q 743 631 790 631 l 606 631 l 606 281 q 534 54 606 128 q 331 -19 463 -19 q 127 54 199 -19 q 56 281 56 128 l 56 972 l 172 972 m 235 -185 q 263 -116 235 -144 q 332 -87 292 -87 q 401 -116 372 -87 q 429 -185 429 -144 q 401 -253 429 -225 q 332 -282 372 -282 q 263 -253 292 -282 q 235 -185 235 -225 z "},"Ŵ":{"ha":850,"x_min":15,"x_max":835,"o":"m 736 0 l 524 0 l 433 922 l 417 922 l 326 0 l 114 0 l 15 972 l 121 972 l 214 50 l 231 50 l 318 972 l 532 972 l 619 50 l 636 50 l 729 972 l 835 972 l 736 0 m 506 1075 l 433 1197 l 417 1197 l 344 1075 l 228 1075 l 339 1239 l 511 1239 l 622 1075 l 506 1075 z "},"Ẁ":{"ha":850,"x_min":15,"x_max":835,"o":"m 736 0 l 524 0 l 433 922 l 417 922 l 326 0 l 114 0 l 15 972 l 121 972 l 214 50 l 231 50 l 318 972 l 532 972 l 619 50 l 636 50 l 729 972 l 835 972 l 736 0 m 385 1239 l 476 1075 l 376 1075 l 260 1239 l 385 1239 z "},"Ẃ":{"ha":850,"x_min":15,"x_max":835,"o":"m 736 0 l 524 0 l 433 922 l 417 922 l 326 0 l 114 0 l 15 972 l 121 972 l 214 50 l 231 50 l 318 972 l 532 972 l 619 50 l 636 50 l 729 972 l 835 972 l 736 0 m 592 1239 l 475 1075 l 375 1075 l 467 1239 l 592 1239 z "},"Ẅ":{"ha":850,"x_min":15,"x_max":835,"o":"m 736 0 l 524 0 l 433 922 l 417 922 l 326 0 l 114 0 l 15 972 l 121 972 l 214 50 l 231 50 l 318 972 l 532 972 l 619 50 l 636 50 l 729 972 l 835 972 l 736 0 m 189 1178 q 217 1247 189 1218 q 286 1275 246 1275 q 355 1247 326 1275 q 383 1178 383 1218 q 355 1109 383 1138 q 286 1081 326 1081 q 217 1109 246 1081 q 189 1178 189 1138 m 467 1178 q 495 1247 467 1218 q 564 1275 524 1275 q 633 1247 604 1275 q 661 1178 661 1218 q 633 1109 661 1138 q 564 1081 604 1081 q 495 1109 524 1081 q 467 1178 467 1138 z "},"Ý":{"ha":850,"x_min":38,"x_max":813,"o":"m 367 342 l 342 342 l 38 972 l 168 972 l 417 442 l 433 442 l 682 972 l 813 972 l 508 342 l 483 342 l 483 0 l 367 0 l 367 342 m 592 1239 l 475 1075 l 375 1075 l 467 1239 l 592 1239 z "},"Ỳ":{"ha":850,"x_min":38,"x_max":813,"o":"m 367 342 l 342 342 l 38 972 l 168 972 l 417 442 l 433 442 l 682 972 l 813 972 l 508 342 l 483 342 l 483 0 l 367 0 l 367 342 m 385 1239 l 476 1075 l 376 1075 l 260 1239 l 385 1239 z "},"Ŷ":{"ha":850,"x_min":38,"x_max":813,"o":"m 367 342 l 342 342 l 38 972 l 168 972 l 417 442 l 433 442 l 682 972 l 813 972 l 508 342 l 483 342 l 483 0 l 367 0 l 367 342 m 506 1075 l 433 1197 l 417 1197 l 344 1075 l 228 1075 l 339 1239 l 511 1239 l 622 1075 l 506 1075 z "},"Ÿ":{"ha":850,"x_min":38,"x_max":813,"o":"m 367 342 l 342 342 l 38 972 l 168 972 l 417 442 l 433 442 l 682 972 l 813 972 l 508 342 l 483 342 l 483 0 l 367 0 l 367 342 m 189 1178 q 217 1247 189 1218 q 286 1275 246 1275 q 355 1247 326 1275 q 383 1178 383 1218 q 355 1109 383 1138 q 286 1081 326 1081 q 217 1109 246 1081 q 189 1178 189 1138 m 467 1178 q 495 1247 467 1218 q 564 1275 524 1275 q 633 1247 604 1275 q 661 1178 661 1218 q 633 1109 661 1138 q 564 1081 604 1081 q 495 1109 524 1081 q 467 1178 467 1138 z "},"Ẏ":{"ha":850,"x_min":38,"x_max":813,"o":"m 367 342 l 342 342 l 38 972 l 168 972 l 417 442 l 433 442 l 682 972 l 813 972 l 508 342 l 483 342 l 483 0 l 367 0 l 367 342 m 328 1172 q 356 1241 328 1213 q 425 1269 385 1269 q 494 1241 465 1269 q 522 1172 522 1213 q 494 1103 522 1132 q 425 1075 465 1075 q 356 1103 385 1075 q 328 1172 328 1132 z "},"Ỵ":{"ha":850,"x_min":38,"x_max":813,"o":"m 367 342 l 342 342 l 38 972 l 168 972 l 417 442 l 433 442 l 682 972 l 813 972 l 508 342 l 483 342 l 483 0 l 367 0 l 367 342 m 328 -185 q 356 -116 328 -144 q 425 -87 385 -87 q 494 -116 465 -87 q 522 -185 522 -144 q 494 -253 522 -225 q 425 -282 465 -282 q 356 -253 385 -282 q 328 -185 328 -225 z "},"Ỷ":{"ha":850,"x_min":38,"x_max":813,"o":"m 386 1042 l 358 1169 l 358 1178 l 464 1178 q 499 1158 474 1158 q 533 1172 518 1158 q 547 1211 547 1186 q 530 1256 547 1242 q 492 1269 513 1269 q 445 1252 461 1269 q 425 1214 429 1235 l 358 1239 q 401 1308 369 1281 q 493 1336 433 1336 q 585 1302 547 1336 q 622 1210 622 1268 q 594 1126 622 1161 q 517 1092 565 1092 q 442 1136 460 1092 l 433 1136 l 454 1042 l 386 1042 m 367 342 l 342 342 l 38 972 l 168 972 l 417 442 l 433 442 l 682 972 l 813 972 l 508 342 l 483 342 l 483 0 l 367 0 l 367 342 z "},"Ỹ":{"ha":850,"x_min":38,"x_max":813,"o":"m 367 342 l 342 342 l 38 972 l 168 972 l 417 442 l 433 442 l 682 972 l 813 972 l 508 342 l 483 342 l 483 0 l 367 0 l 367 342 m 468 1175 q 482 1154 475 1161 q 501 1147 489 1147 q 528 1161 515 1147 l 594 1238 l 663 1179 l 606 1111 q 560 1070 586 1088 q 497 1053 533 1053 q 431 1072 454 1053 q 385 1135 408 1092 q 369 1158 375 1151 q 351 1165 363 1165 q 321 1149 336 1165 l 257 1075 l 189 1133 l 246 1201 q 292 1242 265 1225 q 356 1260 318 1260 q 419 1240 396 1260 q 468 1175 443 1219 z "},"Ź":{"ha":850,"x_min":74,"x_max":774,"o":"m 107 972 l 757 972 l 757 797 l 174 125 l 174 108 l 774 108 l 774 0 l 74 0 l 74 175 l 657 847 l 657 864 l 107 864 l 107 972 m 588 1239 l 471 1075 l 371 1075 l 463 1239 l 588 1239 z "},"Ž":{"ha":850,"x_min":74,"x_max":774,"o":"m 107 972 l 757 972 l 757 797 l 174 125 l 174 108 l 774 108 l 774 0 l 74 0 l 74 175 l 657 847 l 657 864 l 107 864 l 107 972 m 638 1239 l 526 1075 l 354 1075 l 243 1239 l 360 1239 l 432 1117 l 449 1117 l 521 1239 l 638 1239 z "},"Ż":{"ha":850,"x_min":74,"x_max":774,"o":"m 107 972 l 757 972 l 757 797 l 174 125 l 174 108 l 774 108 l 774 0 l 74 0 l 74 175 l 657 847 l 657 864 l 107 864 l 107 972 m 344 1178 q 373 1247 344 1218 q 442 1275 401 1275 q 510 1247 482 1275 q 539 1178 539 1218 q 510 1109 539 1138 q 442 1081 482 1081 q 373 1109 401 1081 q 344 1178 344 1138 z "},"Ẓ":{"ha":850,"x_min":74,"x_max":774,"o":"m 107 972 l 757 972 l 757 797 l 174 125 l 174 108 l 774 108 l 774 0 l 74 0 l 74 175 l 657 847 l 657 864 l 107 864 l 107 972 m 328 -185 q 356 -116 328 -144 q 425 -87 385 -87 q 494 -116 465 -87 q 522 -185 522 -144 q 494 -253 522 -225 q 425 -282 465 -282 q 356 -253 385 -282 q 328 -185 328 -225 z "},"Þ":{"ha":850,"x_min":118,"x_max":763,"o":"m 235 208 l 235 0 l 118 0 l 118 972 l 235 972 l 235 781 l 465 781 q 596 759 540 781 q 688 701 651 738 q 744 617 725 665 q 763 517 763 569 l 763 475 q 744 374 763 422 q 688 288 725 325 q 594 230 650 251 q 465 208 539 208 l 235 208 m 235 317 l 451 317 q 646 483 646 317 l 646 508 q 598 627 646 582 q 451 672 550 672 l 235 672 l 235 317 z "},"Ə":{"ha":850,"x_min":83,"x_max":767,"o":"m 83 503 l 650 503 l 650 586 q 636 708 650 653 q 594 802 622 763 q 523 864 565 842 q 425 886 481 886 q 323 865 365 886 q 253 810 281 844 q 214 731 226 776 q 200 639 201 686 l 200 622 l 83 622 l 83 639 q 106 777 83 713 q 171 890 128 842 q 278 965 214 938 q 425 992 342 992 q 676 888 586 992 q 767 594 767 783 l 767 378 q 676 82 767 183 q 425 -19 586 -19 q 278 8 342 -19 q 171 83 214 35 q 106 195 128 131 q 83 333 83 260 l 83 503 m 425 86 q 594 165 538 86 q 650 386 650 243 l 650 394 l 200 394 l 200 333 q 213 240 200 285 q 253 162 226 196 q 323 107 281 128 q 425 86 365 86 z "},"Ŋ":{"ha":850,"x_min":101,"x_max":749,"o":"m 615 50 l 632 50 l 632 972 l 749 972 l 749 -111 q 706 -235 749 -193 q 582 -278 664 -278 l 335 -278 l 335 -169 l 557 -169 q 615 -150 599 -169 q 632 -94 632 -131 l 632 0 l 515 0 l 235 922 l 218 922 l 218 0 l 101 0 l 101 972 l 335 972 l 615 50 z "},"Ĳ":{"ha":850,"x_min":101,"x_max":785,"o":"m 101 972 l 218 972 l 218 475 l 101 475 l 101 972 m 701 292 q 627 60 701 140 q 410 -19 553 -19 q 184 60 267 -19 q 101 292 101 140 l 101 367 l 218 367 l 218 292 q 265 144 218 200 q 410 89 313 89 q 546 144 507 89 q 585 292 585 200 l 585 864 l 485 864 l 485 972 l 785 972 l 785 864 l 701 864 l 701 292 z "},"à":{"ha":850,"x_min":65,"x_max":801,"o":"m 621 117 l 604 117 q 512 14 571 47 q 388 -19 453 -19 q 261 3 319 -19 q 159 72 203 26 q 90 182 115 117 q 65 333 65 247 l 65 356 q 90 506 65 440 q 159 616 115 571 q 261 685 203 661 q 385 708 319 708 q 513 677 456 708 q 604 581 571 646 l 621 581 l 621 689 l 729 689 l 729 142 q 767 100 729 100 l 801 100 l 801 0 l 728 0 q 651 31 681 0 q 621 108 621 61 l 621 117 m 399 83 q 488 101 447 83 q 558 153 529 119 q 604 233 588 186 q 621 336 621 279 l 621 353 q 604 455 621 408 q 558 535 588 501 q 487 587 528 568 q 399 606 446 606 q 310 588 350 606 q 240 537 269 569 q 193 458 210 504 q 176 356 176 411 l 176 333 q 238 149 176 215 q 399 83 300 83 m 343 956 l 435 792 l 335 792 l 218 956 l 343 956 z "},"á":{"ha":850,"x_min":65,"x_max":801,"o":"m 621 117 l 604 117 q 512 14 571 47 q 388 -19 453 -19 q 261 3 319 -19 q 159 72 203 26 q 90 182 115 117 q 65 333 65 247 l 65 356 q 90 506 65 440 q 159 616 115 571 q 261 685 203 661 q 385 708 319 708 q 513 677 456 708 q 604 581 571 646 l 621 581 l 621 689 l 729 689 l 729 142 q 767 100 729 100 l 801 100 l 801 0 l 728 0 q 651 31 681 0 q 621 108 621 61 l 621 117 m 399 83 q 488 101 447 83 q 558 153 529 119 q 604 233 588 186 q 621 336 621 279 l 621 353 q 604 455 621 408 q 558 535 588 501 q 487 587 528 568 q 399 606 446 606 q 310 588 350 606 q 240 537 269 569 q 193 458 210 504 q 176 356 176 411 l 176 333 q 238 149 176 215 q 399 83 300 83 m 547 956 l 431 792 l 331 792 l 422 956 l 547 956 z "},"â":{"ha":850,"x_min":65,"x_max":801,"o":"m 621 117 l 604 117 q 512 14 571 47 q 388 -19 453 -19 q 261 3 319 -19 q 159 72 203 26 q 90 182 115 117 q 65 333 65 247 l 65 356 q 90 506 65 440 q 159 616 115 571 q 261 685 203 661 q 385 708 319 708 q 513 677 456 708 q 604 581 571 646 l 621 581 l 621 689 l 729 689 l 729 142 q 767 100 729 100 l 801 100 l 801 0 l 728 0 q 651 31 681 0 q 621 108 621 61 l 621 117 m 399 83 q 488 101 447 83 q 558 153 529 119 q 604 233 588 186 q 621 336 621 279 l 621 353 q 604 455 621 408 q 558 535 588 501 q 487 587 528 568 q 399 606 446 606 q 310 588 350 606 q 240 537 269 569 q 193 458 210 504 q 176 356 176 411 l 176 333 q 238 149 176 215 q 399 83 300 83 m 467 792 l 394 914 l 378 914 l 306 792 l 189 792 l 300 956 l 472 956 l 583 792 l 467 792 z "},"ã":{"ha":850,"x_min":65,"x_max":801,"o":"m 621 117 l 604 117 q 512 14 571 47 q 388 -19 453 -19 q 261 3 319 -19 q 159 72 203 26 q 90 182 115 117 q 65 333 65 247 l 65 356 q 90 506 65 440 q 159 616 115 571 q 261 685 203 661 q 385 708 319 708 q 513 677 456 708 q 604 581 571 646 l 621 581 l 621 689 l 729 689 l 729 142 q 767 100 729 100 l 801 100 l 801 0 l 728 0 q 651 31 681 0 q 621 108 621 61 l 621 117 m 399 83 q 488 101 447 83 q 558 153 529 119 q 604 233 588 186 q 621 336 621 279 l 621 353 q 604 455 621 408 q 558 535 588 501 q 487 587 528 568 q 399 606 446 606 q 310 588 350 606 q 240 537 269 569 q 193 458 210 504 q 176 356 176 411 l 176 333 q 238 149 176 215 q 399 83 300 83 m 463 892 q 476 871 469 878 q 496 864 483 864 q 522 878 510 864 l 589 954 l 657 896 l 600 828 q 554 787 581 804 q 492 769 528 769 q 426 789 449 769 q 379 851 403 808 q 363 875 369 868 q 346 882 357 882 q 315 865 331 882 l 251 792 l 183 850 l 240 918 q 286 959 260 942 q 350 976 313 976 q 414 956 390 976 q 463 892 438 936 z "},"ä":{"ha":850,"x_min":65,"x_max":801,"o":"m 621 117 l 604 117 q 512 14 571 47 q 388 -19 453 -19 q 261 3 319 -19 q 159 72 203 26 q 90 182 115 117 q 65 333 65 247 l 65 356 q 90 506 65 440 q 159 616 115 571 q 261 685 203 661 q 385 708 319 708 q 513 677 456 708 q 604 581 571 646 l 621 581 l 621 689 l 729 689 l 729 142 q 767 100 729 100 l 801 100 l 801 0 l 728 0 q 651 31 681 0 q 621 108 621 61 l 621 117 m 399 83 q 488 101 447 83 q 558 153 529 119 q 604 233 588 186 q 621 336 621 279 l 621 353 q 604 455 621 408 q 558 535 588 501 q 487 587 528 568 q 399 606 446 606 q 310 588 350 606 q 240 537 269 569 q 193 458 210 504 q 176 356 176 411 l 176 333 q 238 149 176 215 q 399 83 300 83 m 157 894 q 185 963 157 935 q 254 992 214 992 q 323 963 294 992 q 351 894 351 935 q 323 826 351 854 q 254 797 294 797 q 185 826 214 797 q 157 894 157 854 m 435 894 q 463 963 435 935 q 532 992 492 992 q 601 963 572 992 q 629 894 629 935 q 601 826 629 854 q 532 797 572 797 q 463 826 492 797 q 435 894 435 854 z "},"ā":{"ha":850,"x_min":65,"x_max":801,"o":"m 621 117 l 604 117 q 512 14 571 47 q 388 -19 453 -19 q 261 3 319 -19 q 159 72 203 26 q 90 182 115 117 q 65 333 65 247 l 65 356 q 90 506 65 440 q 159 616 115 571 q 261 685 203 661 q 385 708 319 708 q 513 677 456 708 q 604 581 571 646 l 621 581 l 621 689 l 729 689 l 729 142 q 767 100 729 100 l 801 100 l 801 0 l 728 0 q 651 31 681 0 q 621 108 621 61 l 621 117 m 399 83 q 488 101 447 83 q 558 153 529 119 q 604 233 588 186 q 621 336 621 279 l 621 353 q 604 455 621 408 q 558 535 588 501 q 487 587 528 568 q 399 606 446 606 q 310 588 350 606 q 240 537 269 569 q 193 458 210 504 q 176 356 176 411 l 176 333 q 238 149 176 215 q 399 83 300 83 m 582 792 l 190 792 l 190 883 l 582 883 l 582 792 z "},"ă":{"ha":850,"x_min":65,"x_max":801,"o":"m 621 117 l 604 117 q 512 14 571 47 q 388 -19 453 -19 q 261 3 319 -19 q 159 72 203 26 q 90 182 115 117 q 65 333 65 247 l 65 356 q 90 506 65 440 q 159 616 115 571 q 261 685 203 661 q 385 708 319 708 q 513 677 456 708 q 604 581 571 646 l 621 581 l 621 689 l 729 689 l 729 142 q 767 100 729 100 l 801 100 l 801 0 l 728 0 q 651 31 681 0 q 621 108 621 61 l 621 117 m 399 83 q 488 101 447 83 q 558 153 529 119 q 604 233 588 186 q 621 336 621 279 l 621 353 q 604 455 621 408 q 558 535 588 501 q 487 587 528 568 q 399 606 446 606 q 310 588 350 606 q 240 537 269 569 q 193 458 210 504 q 176 356 176 411 l 176 333 q 238 149 176 215 q 399 83 300 83 m 536 956 l 536 942 q 496 833 536 875 q 386 792 456 792 q 276 833 317 792 q 236 942 236 875 l 236 956 l 332 956 l 332 939 q 346 901 332 917 q 386 885 360 885 q 426 901 413 885 q 440 939 440 917 l 440 956 l 536 956 z "},"å":{"ha":850,"x_min":65,"x_max":801,"o":"m 621 117 l 604 117 q 512 14 571 47 q 388 -19 453 -19 q 261 3 319 -19 q 159 72 203 26 q 90 182 115 117 q 65 333 65 247 l 65 356 q 90 506 65 440 q 159 616 115 571 q 261 685 203 661 q 385 708 319 708 q 513 677 456 708 q 604 581 571 646 l 621 581 l 621 689 l 729 689 l 729 142 q 767 100 729 100 l 801 100 l 801 0 l 728 0 q 651 31 681 0 q 621 108 621 61 l 621 117 m 399 83 q 488 101 447 83 q 558 153 529 119 q 604 233 588 186 q 621 336 621 279 l 621 353 q 604 455 621 408 q 558 535 588 501 q 487 587 528 568 q 399 606 446 606 q 310 588 350 606 q 240 537 269 569 q 193 458 210 504 q 176 356 176 411 l 176 333 q 238 149 176 215 q 399 83 300 83 m 244 933 q 285 1034 244 993 q 386 1075 326 1075 q 487 1034 446 1075 q 528 933 528 993 q 487 833 528 874 q 386 792 446 792 q 285 833 326 792 q 244 933 244 874 m 328 933 q 344 892 328 908 q 386 875 361 875 q 428 892 411 875 q 444 933 444 908 q 428 975 444 958 q 386 992 411 992 q 344 975 361 992 q 328 933 328 958 z "},"ǎ":{"ha":850,"x_min":65,"x_max":801,"o":"m 621 117 l 604 117 q 512 14 571 47 q 388 -19 453 -19 q 261 3 319 -19 q 159 72 203 26 q 90 182 115 117 q 65 333 65 247 l 65 356 q 90 506 65 440 q 159 616 115 571 q 261 685 203 661 q 385 708 319 708 q 513 677 456 708 q 604 581 571 646 l 621 581 l 621 689 l 729 689 l 729 142 q 767 100 729 100 l 801 100 l 801 0 l 728 0 q 651 31 681 0 q 621 108 621 61 l 621 117 m 399 83 q 488 101 447 83 q 558 153 529 119 q 604 233 588 186 q 621 336 621 279 l 621 353 q 604 455 621 408 q 558 535 588 501 q 487 587 528 568 q 399 606 446 606 q 310 588 350 606 q 240 537 269 569 q 193 458 210 504 q 176 356 176 411 l 176 333 q 238 149 176 215 q 399 83 300 83 m 583 956 l 472 792 l 300 792 l 189 956 l 306 956 l 378 833 l 394 833 l 467 956 l 583 956 z "},"ą":{"ha":850,"x_min":65,"x_max":801,"o":"m 621 117 l 604 117 q 512 14 571 47 q 388 -19 453 -19 q 261 3 319 -19 q 159 72 203 26 q 90 182 115 117 q 65 333 65 247 l 65 356 q 90 506 65 440 q 159 616 115 571 q 261 685 203 661 q 385 708 319 708 q 513 677 456 708 q 604 581 571 646 l 621 581 l 621 689 l 729 689 l 729 142 q 767 100 729 100 l 801 100 l 801 0 l 735 0 l 713 -94 q 711 -106 711 -101 q 743 -136 711 -136 l 801 -136 l 801 -228 l 724 -228 q 649 -202 683 -228 q 615 -125 615 -176 q 619 -92 615 -112 l 647 35 q 621 108 621 64 l 621 117 m 399 83 q 488 101 447 83 q 558 153 529 119 q 604 233 588 186 q 621 336 621 279 l 621 353 q 604 455 621 408 q 558 535 588 501 q 487 587 528 568 q 399 606 446 606 q 310 588 350 606 q 240 537 269 569 q 193 458 210 504 q 176 356 176 411 l 176 333 q 238 149 176 215 q 399 83 300 83 z "},"ạ":{"ha":850,"x_min":65,"x_max":801,"o":"m 621 117 l 604 117 q 512 14 571 47 q 388 -19 453 -19 q 261 3 319 -19 q 159 72 203 26 q 90 182 115 117 q 65 333 65 247 l 65 356 q 90 506 65 440 q 159 616 115 571 q 261 685 203 661 q 385 708 319 708 q 513 677 456 708 q 604 581 571 646 l 621 581 l 621 689 l 729 689 l 729 142 q 767 100 729 100 l 801 100 l 801 0 l 728 0 q 651 31 681 0 q 621 108 621 61 l 621 117 m 399 83 q 488 101 447 83 q 558 153 529 119 q 604 233 588 186 q 621 336 621 279 l 621 353 q 604 455 621 408 q 558 535 588 501 q 487 587 528 568 q 399 606 446 606 q 310 588 350 606 q 240 537 269 569 q 193 458 210 504 q 176 356 176 411 l 176 333 q 238 149 176 215 q 399 83 300 83 m 292 -185 q 320 -116 292 -144 q 389 -87 349 -87 q 458 -116 429 -87 q 486 -185 486 -144 q 458 -253 486 -225 q 389 -282 429 -282 q 320 -253 349 -282 q 292 -185 292 -225 z "},"ả":{"ha":850,"x_min":65,"x_max":801,"o":"m 338 758 l 310 886 l 310 894 l 415 894 q 450 875 425 875 q 484 889 469 875 q 499 928 499 903 q 481 972 499 958 q 443 986 464 986 q 397 969 413 986 q 376 931 381 951 l 310 956 q 353 1025 321 997 q 444 1053 385 1053 q 536 1019 499 1053 q 574 926 574 985 q 545 843 574 878 q 468 808 517 808 q 393 853 411 808 l 385 853 l 406 758 l 338 758 m 621 117 l 604 117 q 512 14 571 47 q 388 -19 453 -19 q 261 3 319 -19 q 159 72 203 26 q 90 182 115 117 q 65 333 65 247 l 65 356 q 90 506 65 440 q 159 616 115 571 q 261 685 203 661 q 385 708 319 708 q 513 677 456 708 q 604 581 571 646 l 621 581 l 621 689 l 729 689 l 729 142 q 767 100 729 100 l 801 100 l 801 0 l 728 0 q 651 31 681 0 q 621 108 621 61 l 621 117 m 399 83 q 488 101 447 83 q 558 153 529 119 q 604 233 588 186 q 621 336 621 279 l 621 353 q 604 455 621 408 q 558 535 588 501 q 487 587 528 568 q 399 606 446 606 q 310 588 350 606 q 240 537 269 569 q 193 458 210 504 q 176 356 176 411 l 176 333 q 238 149 176 215 q 399 83 300 83 z "},"ấ":{"ha":850,"x_min":65,"x_max":801,"o":"m 621 117 l 604 117 q 512 14 571 47 q 388 -19 453 -19 q 261 3 319 -19 q 159 72 203 26 q 90 182 115 117 q 65 333 65 247 l 65 356 q 90 506 65 440 q 159 616 115 571 q 261 685 203 661 q 385 708 319 708 q 513 677 456 708 q 604 581 571 646 l 621 581 l 621 689 l 729 689 l 729 142 q 767 100 729 100 l 801 100 l 801 0 l 728 0 q 651 31 681 0 q 621 108 621 61 l 621 117 m 399 83 q 488 101 447 83 q 558 153 529 119 q 604 233 588 186 q 621 336 621 279 l 621 353 q 604 455 621 408 q 558 535 588 501 q 487 587 528 568 q 399 606 446 606 q 310 588 350 606 q 240 537 269 569 q 193 458 210 504 q 176 356 176 411 l 176 333 q 238 149 176 215 q 399 83 300 83 m 467 792 l 394 914 l 378 914 l 306 792 l 189 792 l 300 956 l 472 956 l 583 792 l 467 792 m 765 1078 l 649 914 l 549 914 l 640 1078 l 765 1078 z "},"ầ":{"ha":850,"x_min":6,"x_max":801,"o":"m 621 117 l 604 117 q 512 14 571 47 q 388 -19 453 -19 q 261 3 319 -19 q 159 72 203 26 q 90 182 115 117 q 65 333 65 247 l 65 356 q 90 506 65 440 q 159 616 115 571 q 261 685 203 661 q 385 708 319 708 q 513 677 456 708 q 604 581 571 646 l 621 581 l 621 689 l 729 689 l 729 142 q 767 100 729 100 l 801 100 l 801 0 l 728 0 q 651 31 681 0 q 621 108 621 61 l 621 117 m 399 83 q 488 101 447 83 q 558 153 529 119 q 604 233 588 186 q 621 336 621 279 l 621 353 q 604 455 621 408 q 558 535 588 501 q 487 587 528 568 q 399 606 446 606 q 310 588 350 606 q 240 537 269 569 q 193 458 210 504 q 176 356 176 411 l 176 333 q 238 149 176 215 q 399 83 300 83 m 467 792 l 394 914 l 378 914 l 306 792 l 189 792 l 300 956 l 472 956 l 583 792 l 467 792 m 131 1078 l 222 914 l 122 914 l 6 1078 l 131 1078 z "},"ẩ":{"ha":850,"x_min":65,"x_max":801,"o":"m 550 914 l 522 1042 l 522 1050 l 628 1050 q 663 1031 638 1031 q 697 1044 682 1031 q 711 1083 711 1058 q 694 1128 711 1114 q 656 1142 676 1142 q 609 1124 625 1142 q 589 1086 593 1107 l 522 1111 q 565 1181 533 1153 q 657 1208 597 1208 q 749 1174 711 1208 q 786 1082 786 1140 q 758 999 786 1033 q 681 964 729 964 q 606 1008 624 964 l 597 1008 l 618 914 l 550 914 m 621 117 l 604 117 q 512 14 571 47 q 388 -19 453 -19 q 261 3 319 -19 q 159 72 203 26 q 90 182 115 117 q 65 333 65 247 l 65 356 q 90 506 65 440 q 159 616 115 571 q 261 685 203 661 q 385 708 319 708 q 513 677 456 708 q 604 581 571 646 l 621 581 l 621 689 l 729 689 l 729 142 q 767 100 729 100 l 801 100 l 801 0 l 728 0 q 651 31 681 0 q 621 108 621 61 l 621 117 m 399 83 q 488 101 447 83 q 558 153 529 119 q 604 233 588 186 q 621 336 621 279 l 621 353 q 604 455 621 408 q 558 535 588 501 q 487 587 528 568 q 399 606 446 606 q 310 588 350 606 q 240 537 269 569 q 193 458 210 504 q 176 356 176 411 l 176 333 q 238 149 176 215 q 399 83 300 83 m 465 792 l 393 914 l 376 914 l 304 792 l 188 792 l 299 956 l 471 956 l 582 792 l 465 792 z "},"ẫ":{"ha":850,"x_min":65,"x_max":801,"o":"m 621 117 l 604 117 q 512 14 571 47 q 388 -19 453 -19 q 261 3 319 -19 q 159 72 203 26 q 90 182 115 117 q 65 333 65 247 l 65 356 q 90 506 65 440 q 159 616 115 571 q 261 685 203 661 q 385 708 319 708 q 513 677 456 708 q 604 581 571 646 l 621 581 l 621 689 l 729 689 l 729 142 q 767 100 729 100 l 801 100 l 801 0 l 728 0 q 651 31 681 0 q 621 108 621 61 l 621 117 m 399 83 q 488 101 447 83 q 558 153 529 119 q 604 233 588 186 q 621 336 621 279 l 621 353 q 604 455 621 408 q 558 535 588 501 q 487 587 528 568 q 399 606 446 606 q 310 588 350 606 q 240 537 269 569 q 193 458 210 504 q 176 356 176 411 l 176 333 q 238 149 176 215 q 399 83 300 83 m 467 792 l 394 914 l 378 914 l 306 792 l 189 792 l 300 956 l 472 956 l 583 792 l 467 792 m 429 1119 q 443 1099 436 1106 q 463 1092 450 1092 q 489 1106 476 1092 l 556 1182 l 624 1124 l 567 1056 q 521 1015 547 1032 q 458 997 494 997 q 392 1017 415 997 q 346 1079 369 1036 q 330 1103 336 1096 q 313 1110 324 1110 q 282 1093 297 1110 l 218 1019 l 150 1078 l 207 1146 q 253 1187 226 1169 q 317 1204 279 1204 q 381 1184 357 1204 q 429 1119 404 1164 z "},"ậ":{"ha":850,"x_min":65,"x_max":801,"o":"m 621 117 l 604 117 q 512 14 571 47 q 388 -19 453 -19 q 261 3 319 -19 q 159 72 203 26 q 90 182 115 117 q 65 333 65 247 l 65 356 q 90 506 65 440 q 159 616 115 571 q 261 685 203 661 q 385 708 319 708 q 513 677 456 708 q 604 581 571 646 l 621 581 l 621 689 l 729 689 l 729 142 q 767 100 729 100 l 801 100 l 801 0 l 728 0 q 651 31 681 0 q 621 108 621 61 l 621 117 m 399 83 q 488 101 447 83 q 558 153 529 119 q 604 233 588 186 q 621 336 621 279 l 621 353 q 604 455 621 408 q 558 535 588 501 q 487 587 528 568 q 399 606 446 606 q 310 588 350 606 q 240 537 269 569 q 193 458 210 504 q 176 356 176 411 l 176 333 q 238 149 176 215 q 399 83 300 83 m 467 792 l 394 914 l 378 914 l 306 792 l 189 792 l 300 956 l 472 956 l 583 792 l 467 792 m 292 -185 q 320 -116 292 -144 q 389 -87 349 -87 q 458 -116 429 -87 q 486 -185 486 -144 q 458 -253 486 -225 q 389 -282 429 -282 q 320 -253 349 -282 q 292 -185 292 -225 z "},"ắ":{"ha":850,"x_min":65,"x_max":801,"o":"m 621 117 l 604 117 q 512 14 571 47 q 388 -19 453 -19 q 261 3 319 -19 q 159 72 203 26 q 90 182 115 117 q 65 333 65 247 l 65 356 q 90 506 65 440 q 159 616 115 571 q 261 685 203 661 q 385 708 319 708 q 513 677 456 708 q 604 581 571 646 l 621 581 l 621 689 l 729 689 l 729 142 q 767 100 729 100 l 801 100 l 801 0 l 728 0 q 651 31 681 0 q 621 108 621 61 l 621 117 m 399 83 q 488 101 447 83 q 558 153 529 119 q 604 233 588 186 q 621 336 621 279 l 621 353 q 604 455 621 408 q 558 535 588 501 q 487 587 528 568 q 399 606 446 606 q 310 588 350 606 q 240 537 269 569 q 193 458 210 504 q 176 356 176 411 l 176 333 q 238 149 176 215 q 399 83 300 83 m 536 956 l 536 942 q 496 833 536 875 q 386 792 456 792 q 276 833 317 792 q 236 942 236 875 l 236 956 l 332 956 l 332 939 q 346 901 332 917 q 386 885 360 885 q 426 901 413 885 q 440 939 440 917 l 440 956 l 536 956 m 551 1161 l 435 997 l 335 997 l 426 1161 l 551 1161 z "},"ằ":{"ha":850,"x_min":65,"x_max":801,"o":"m 621 117 l 604 117 q 512 14 571 47 q 388 -19 453 -19 q 261 3 319 -19 q 159 72 203 26 q 90 182 115 117 q 65 333 65 247 l 65 356 q 90 506 65 440 q 159 616 115 571 q 261 685 203 661 q 385 708 319 708 q 513 677 456 708 q 604 581 571 646 l 621 581 l 621 689 l 729 689 l 729 142 q 767 100 729 100 l 801 100 l 801 0 l 728 0 q 651 31 681 0 q 621 108 621 61 l 621 117 m 399 83 q 488 101 447 83 q 558 153 529 119 q 604 233 588 186 q 621 336 621 279 l 621 353 q 604 455 621 408 q 558 535 588 501 q 487 587 528 568 q 399 606 446 606 q 310 588 350 606 q 240 537 269 569 q 193 458 210 504 q 176 356 176 411 l 176 333 q 238 149 176 215 q 399 83 300 83 m 536 956 l 536 942 q 496 833 536 875 q 386 792 456 792 q 276 833 317 792 q 236 942 236 875 l 236 956 l 332 956 l 332 939 q 346 901 332 917 q 386 885 360 885 q 426 901 413 885 q 440 939 440 917 l 440 956 l 536 956 m 344 1161 l 436 997 l 336 997 l 219 1161 l 344 1161 z "},"ẳ":{"ha":850,"x_min":65,"x_max":801,"o":"m 350 997 l 322 1125 l 322 1133 l 428 1133 q 463 1114 438 1114 q 497 1128 482 1114 q 511 1167 511 1142 q 494 1211 511 1197 q 456 1225 476 1225 q 409 1208 425 1225 q 389 1169 393 1190 l 322 1194 q 365 1264 333 1236 q 457 1292 397 1292 q 549 1258 511 1292 q 586 1165 586 1224 q 558 1082 586 1117 q 481 1047 529 1047 q 406 1092 424 1047 l 397 1092 l 418 997 l 350 997 m 621 117 l 604 117 q 512 14 571 47 q 388 -19 453 -19 q 261 3 319 -19 q 159 72 203 26 q 90 182 115 117 q 65 333 65 247 l 65 356 q 90 506 65 440 q 159 616 115 571 q 261 685 203 661 q 385 708 319 708 q 513 677 456 708 q 604 581 571 646 l 621 581 l 621 689 l 729 689 l 729 142 q 767 100 729 100 l 801 100 l 801 0 l 728 0 q 651 31 681 0 q 621 108 621 61 l 621 117 m 399 83 q 488 101 447 83 q 558 153 529 119 q 604 233 588 186 q 621 336 621 279 l 621 353 q 604 455 621 408 q 558 535 588 501 q 487 587 528 568 q 399 606 446 606 q 310 588 350 606 q 240 537 269 569 q 193 458 210 504 q 176 356 176 411 l 176 333 q 238 149 176 215 q 399 83 300 83 m 535 956 l 535 942 q 494 833 535 875 q 385 792 454 792 q 275 833 315 792 q 235 942 235 875 l 235 956 l 331 956 l 331 939 q 344 901 331 917 q 385 885 358 885 q 425 901 411 885 q 439 939 439 917 l 439 956 l 535 956 z "},"ẵ":{"ha":850,"x_min":65,"x_max":801,"o":"m 621 117 l 604 117 q 512 14 571 47 q 388 -19 453 -19 q 261 3 319 -19 q 159 72 203 26 q 90 182 115 117 q 65 333 65 247 l 65 356 q 90 506 65 440 q 159 616 115 571 q 261 685 203 661 q 385 708 319 708 q 513 677 456 708 q 604 581 571 646 l 621 581 l 621 689 l 729 689 l 729 142 q 767 100 729 100 l 801 100 l 801 0 l 728 0 q 651 31 681 0 q 621 108 621 61 l 621 117 m 399 83 q 488 101 447 83 q 558 153 529 119 q 604 233 588 186 q 621 336 621 279 l 621 353 q 604 455 621 408 q 558 535 588 501 q 487 587 528 568 q 399 606 446 606 q 310 588 350 606 q 240 537 269 569 q 193 458 210 504 q 176 356 176 411 l 176 333 q 238 149 176 215 q 399 83 300 83 m 536 956 l 536 942 q 496 833 536 875 q 386 792 456 792 q 276 833 317 792 q 236 942 236 875 l 236 956 l 332 956 l 332 939 q 346 901 332 917 q 386 885 360 885 q 426 901 413 885 q 440 939 440 917 l 440 956 l 536 956 m 429 1119 q 443 1099 436 1106 q 463 1092 450 1092 q 489 1106 476 1092 l 556 1182 l 624 1124 l 567 1056 q 521 1015 547 1032 q 458 997 494 997 q 392 1017 415 997 q 346 1079 369 1036 q 330 1103 336 1096 q 313 1110 324 1110 q 282 1093 297 1110 l 218 1019 l 150 1078 l 207 1146 q 253 1187 226 1169 q 317 1204 279 1204 q 381 1184 357 1204 q 429 1119 404 1164 z "},"ặ":{"ha":850,"x_min":65,"x_max":801,"o":"m 621 117 l 604 117 q 512 14 571 47 q 388 -19 453 -19 q 261 3 319 -19 q 159 72 203 26 q 90 182 115 117 q 65 333 65 247 l 65 356 q 90 506 65 440 q 159 616 115 571 q 261 685 203 661 q 385 708 319 708 q 513 677 456 708 q 604 581 571 646 l 621 581 l 621 689 l 729 689 l 729 142 q 767 100 729 100 l 801 100 l 801 0 l 728 0 q 651 31 681 0 q 621 108 621 61 l 621 117 m 399 83 q 488 101 447 83 q 558 153 529 119 q 604 233 588 186 q 621 336 621 279 l 621 353 q 604 455 621 408 q 558 535 588 501 q 487 587 528 568 q 399 606 446 606 q 310 588 350 606 q 240 537 269 569 q 193 458 210 504 q 176 356 176 411 l 176 333 q 238 149 176 215 q 399 83 300 83 m 536 956 l 536 942 q 496 833 536 875 q 386 792 456 792 q 276 833 317 792 q 236 942 236 875 l 236 956 l 332 956 l 332 939 q 346 901 332 917 q 386 885 360 885 q 426 901 413 885 q 440 939 440 917 l 440 956 l 536 956 m 289 -185 q 317 -116 289 -144 q 386 -87 346 -87 q 455 -116 426 -87 q 483 -185 483 -144 q 455 -253 483 -225 q 386 -282 426 -282 q 317 -253 346 -282 q 289 -185 289 -225 z "},"æ":{"ha":850,"x_min":100,"x_max":750,"o":"m 425 708 q 572 677 510 708 q 673 600 633 646 q 731 500 713 554 q 750 400 750 446 l 750 311 l 474 311 l 474 86 q 585 135 547 97 q 639 225 622 174 l 742 197 q 635 41 713 101 q 425 -19 557 -19 l 342 -19 q 240 -3 285 -19 q 163 40 194 13 q 116 106 132 68 q 100 186 100 143 l 100 203 q 119 290 100 251 q 170 356 138 329 q 247 397 203 383 q 344 411 292 411 l 365 411 l 365 607 q 267 563 304 600 q 219 458 231 525 l 117 483 q 146 569 125 529 q 201 641 167 610 q 284 690 236 672 q 393 708 332 708 l 425 708 m 207 194 q 244 112 207 143 q 351 81 282 81 l 365 81 l 365 311 l 357 311 q 247 283 286 311 q 207 194 207 256 m 642 411 q 589 537 638 488 q 474 600 540 586 l 474 411 l 642 411 z "},"ƀ":{"ha":850,"x_min":13,"x_max":776,"o":"m 13 881 l 96 881 l 96 972 l 204 972 l 204 881 l 451 881 l 451 781 l 204 781 l 204 581 l 221 581 q 321 676 257 643 q 460 708 385 708 q 581 685 524 708 q 681 617 638 661 q 751 507 725 572 q 776 358 776 442 l 776 331 q 751 181 776 246 q 683 71 726 115 q 581 3 639 26 q 457 -19 522 -19 q 389 -12 424 -19 q 323 12 354 -4 q 265 51 292 28 q 221 106 239 74 l 204 106 l 204 0 l 96 0 l 96 781 l 13 781 l 13 881 m 435 83 q 526 101 485 83 q 599 150 568 118 q 648 228 631 182 q 665 331 665 274 l 665 358 q 648 459 665 414 q 599 537 631 504 q 526 588 568 569 q 435 606 483 606 q 344 587 386 606 q 272 535 303 568 q 222 455 240 501 q 204 353 204 408 l 204 336 q 222 233 204 279 q 272 153 240 186 q 344 101 303 119 q 435 83 386 83 z "},"ç":{"ha":850,"x_min":82,"x_max":765,"o":"m 765 244 q 727 139 754 188 q 658 55 700 90 q 561 0 617 19 q 438 -19 506 -19 l 426 -19 l 410 -94 l 418 -94 q 493 -50 436 -50 q 570 -85 542 -50 q 599 -168 599 -119 q 561 -260 599 -226 q 469 -294 524 -294 q 378 -267 410 -294 q 335 -197 346 -239 l 401 -172 q 422 -210 406 -193 q 468 -228 438 -228 q 506 -214 489 -228 q 524 -169 524 -200 q 509 -131 524 -144 q 475 -117 494 -117 q 440 -136 450 -117 l 335 -136 l 335 -128 l 360 -12 q 251 26 301 -1 q 163 98 200 54 q 103 201 125 142 q 82 333 82 260 l 82 350 q 110 500 82 433 q 188 613 139 567 q 301 683 236 658 q 438 708 365 708 q 558 689 503 708 q 656 634 614 669 q 726 550 699 599 q 763 444 753 501 l 654 419 q 634 490 650 456 q 591 549 618 524 q 525 590 564 575 q 435 606 486 606 q 341 587 385 606 q 264 534 297 568 q 212 453 231 500 q 193 350 193 406 l 193 333 q 212 228 193 275 q 264 150 231 182 q 342 101 297 118 q 438 83 386 83 q 527 99 489 83 q 592 141 565 115 q 635 200 619 167 q 657 269 651 233 l 765 244 z "},"ć":{"ha":850,"x_min":82,"x_max":765,"o":"m 765 244 q 727 139 754 188 q 658 55 700 90 q 561 0 617 19 q 438 -19 506 -19 q 301 4 365 -19 q 188 73 236 28 q 110 183 139 118 q 82 333 82 249 l 82 350 q 110 500 82 433 q 188 613 139 567 q 301 683 236 658 q 438 708 365 708 q 558 689 503 708 q 656 634 614 669 q 726 550 699 599 q 763 444 753 501 l 654 419 q 634 490 650 456 q 591 549 618 524 q 525 590 564 575 q 435 606 486 606 q 341 587 385 606 q 264 534 297 568 q 212 453 231 500 q 193 350 193 406 l 193 333 q 212 228 193 275 q 264 150 231 182 q 342 101 297 118 q 438 83 386 83 q 527 99 489 83 q 592 141 565 115 q 635 200 619 167 q 657 269 651 233 l 765 244 m 607 956 l 490 792 l 390 792 l 482 956 l 607 956 z "},"ĉ":{"ha":850,"x_min":82,"x_max":765,"o":"m 765 244 q 727 139 754 188 q 658 55 700 90 q 561 0 617 19 q 438 -19 506 -19 q 301 4 365 -19 q 188 73 236 28 q 110 183 139 118 q 82 333 82 249 l 82 350 q 110 500 82 433 q 188 613 139 567 q 301 683 236 658 q 438 708 365 708 q 558 689 503 708 q 656 634 614 669 q 726 550 699 599 q 763 444 753 501 l 654 419 q 634 490 650 456 q 591 549 618 524 q 525 590 564 575 q 435 606 486 606 q 341 587 385 606 q 264 534 297 568 q 212 453 231 500 q 193 350 193 406 l 193 333 q 212 228 193 275 q 264 150 231 182 q 342 101 297 118 q 438 83 386 83 q 527 99 489 83 q 592 141 565 115 q 635 200 619 167 q 657 269 651 233 l 765 244 m 510 792 l 438 914 l 421 914 l 349 792 l 232 792 l 343 956 l 515 956 l 626 792 l 510 792 z "},"č":{"ha":850,"x_min":82,"x_max":765,"o":"m 765 244 q 727 139 754 188 q 658 55 700 90 q 561 0 617 19 q 438 -19 506 -19 q 301 4 365 -19 q 188 73 236 28 q 110 183 139 118 q 82 333 82 249 l 82 350 q 110 500 82 433 q 188 613 139 567 q 301 683 236 658 q 438 708 365 708 q 558 689 503 708 q 656 634 614 669 q 726 550 699 599 q 763 444 753 501 l 654 419 q 634 490 650 456 q 591 549 618 524 q 525 590 564 575 q 435 606 486 606 q 341 587 385 606 q 264 534 297 568 q 212 453 231 500 q 193 350 193 406 l 193 333 q 212 228 193 275 q 264 150 231 182 q 342 101 297 118 q 438 83 386 83 q 527 99 489 83 q 592 141 565 115 q 635 200 619 167 q 657 269 651 233 l 765 244 m 626 956 l 515 792 l 343 792 l 232 956 l 349 956 l 421 833 l 438 833 l 510 956 l 626 956 z "},"ċ":{"ha":850,"x_min":82,"x_max":765,"o":"m 765 244 q 727 139 754 188 q 658 55 700 90 q 561 0 617 19 q 438 -19 506 -19 q 301 4 365 -19 q 188 73 236 28 q 110 183 139 118 q 82 333 82 249 l 82 350 q 110 500 82 433 q 188 613 139 567 q 301 683 236 658 q 438 708 365 708 q 558 689 503 708 q 656 634 614 669 q 726 550 699 599 q 763 444 753 501 l 654 419 q 634 490 650 456 q 591 549 618 524 q 525 590 564 575 q 435 606 486 606 q 341 587 385 606 q 264 534 297 568 q 212 453 231 500 q 193 350 193 406 l 193 333 q 212 228 193 275 q 264 150 231 182 q 342 101 297 118 q 438 83 386 83 q 527 99 489 83 q 592 141 565 115 q 635 200 619 167 q 657 269 651 233 l 765 244 m 332 894 q 360 963 332 935 q 429 992 389 992 q 498 963 469 992 q 526 894 526 935 q 498 826 526 854 q 429 797 469 797 q 360 826 389 797 q 332 894 332 854 z "},"ð":{"ha":850,"x_min":79,"x_max":771,"o":"m 368 856 q 222 889 299 881 l 247 992 q 414 951 333 979 l 439 1003 l 526 963 l 501 911 q 624 815 572 872 q 708 689 675 758 q 756 540 740 619 q 771 376 771 460 q 744 202 771 276 q 669 78 717 128 q 560 5 622 29 q 425 -19 497 -19 q 293 4 356 -19 q 183 73 231 28 q 108 184 136 118 q 79 336 79 250 l 79 353 q 107 503 79 438 q 181 615 135 569 q 287 685 228 661 q 408 708 346 708 q 530 681 479 708 q 606 611 581 653 l 622 611 q 559 730 603 679 q 457 815 515 781 l 431 760 l 342 800 l 368 856 m 425 83 q 517 101 475 83 q 592 153 560 119 q 642 238 624 188 q 660 353 660 288 q 642 455 660 408 q 592 535 624 501 q 517 587 560 568 q 425 606 474 606 q 333 587 376 606 q 258 535 290 568 q 208 455 226 501 q 190 353 190 408 l 190 336 q 208 231 190 278 q 258 151 226 185 q 333 101 290 118 q 425 83 375 83 z "},"ď":{"ha":850,"x_min":33,"x_max":825,"o":"m 472 81 l 456 81 q 401 8 440 36 q 292 -19 363 -19 q 189 3 236 -19 q 107 71 142 26 q 53 181 72 115 q 33 333 33 247 l 33 356 q 53 510 33 444 q 109 620 74 576 q 192 686 144 664 q 292 708 239 708 q 397 682 357 708 q 456 614 436 656 l 472 614 l 472 972 l 581 972 l 581 0 l 472 0 l 472 81 m 306 83 q 385 103 353 83 q 436 156 417 122 q 464 235 456 189 q 472 336 472 282 l 472 353 q 465 451 472 404 q 438 531 457 497 q 388 585 419 565 q 308 606 356 606 q 188 542 232 606 q 144 356 144 479 l 144 333 q 187 147 144 211 q 306 83 229 83 m 631 875 q 659 944 631 915 q 728 972 688 972 q 797 944 768 972 q 825 875 825 915 l 825 739 q 795 661 825 692 q 718 631 765 631 l 647 631 l 647 706 l 713 706 q 750 747 750 706 l 750 782 q 726 778 739 778 q 659 806 688 778 q 631 875 631 835 z "},"ḍ":{"ha":850,"x_min":82,"x_max":763,"o":"m 654 106 l 638 106 q 595 50 621 74 q 540 11 569 26 q 476 -12 510 -4 q 413 -19 443 -19 q 283 4 343 -19 q 178 72 224 28 q 108 183 133 117 q 82 333 82 249 l 82 356 q 108 505 82 439 q 179 616 135 571 q 283 685 224 661 q 410 708 343 708 q 542 677 481 708 q 638 581 604 646 l 654 581 l 654 972 l 763 972 l 763 0 l 654 0 l 654 106 m 424 83 q 514 101 472 83 q 587 153 556 119 q 636 233 618 186 q 654 336 654 279 l 654 353 q 636 455 654 408 q 587 535 618 501 q 513 587 556 568 q 424 606 471 606 q 333 588 375 606 q 259 536 290 569 q 210 457 228 503 q 193 356 193 411 l 193 333 q 210 229 193 275 q 259 151 228 183 q 332 101 290 118 q 424 83 374 83 m 317 -185 q 345 -116 317 -144 q 414 -87 374 -87 q 483 -116 454 -87 q 511 -185 511 -144 q 483 -253 511 -225 q 414 -282 454 -282 q 345 -253 374 -282 q 317 -185 317 -225 z "},"ḏ":{"ha":850,"x_min":82,"x_max":763,"o":"m 654 106 l 638 106 q 595 50 621 74 q 540 11 569 26 q 476 -12 510 -4 q 413 -19 443 -19 q 283 4 343 -19 q 178 72 224 28 q 108 183 133 117 q 82 333 82 249 l 82 356 q 108 505 82 439 q 179 616 135 571 q 283 685 224 661 q 410 708 343 708 q 542 677 481 708 q 638 581 604 646 l 654 581 l 654 972 l 763 972 l 763 0 l 654 0 l 654 106 m 424 83 q 514 101 472 83 q 587 153 556 119 q 636 233 618 186 q 654 336 654 279 l 654 353 q 636 455 654 408 q 587 535 618 501 q 513 587 556 568 q 424 606 471 606 q 333 588 375 606 q 259 536 290 569 q 210 457 228 503 q 193 356 193 411 l 193 333 q 210 229 193 275 q 259 151 228 183 q 332 101 290 118 q 424 83 374 83 m 610 -179 l 218 -179 l 218 -87 l 610 -87 l 610 -179 z "},"đ":{"ha":850,"x_min":82,"x_max":846,"o":"m 410 881 l 654 881 l 654 972 l 763 972 l 763 881 l 846 881 l 846 781 l 763 781 l 763 0 l 654 0 l 654 106 l 638 106 q 595 50 621 74 q 540 11 569 26 q 476 -12 510 -4 q 413 -19 443 -19 q 283 4 343 -19 q 178 72 224 28 q 108 183 133 117 q 82 333 82 249 l 82 356 q 108 505 82 439 q 179 616 135 571 q 283 685 224 661 q 410 708 343 708 q 542 677 481 708 q 638 581 604 646 l 654 581 l 654 781 l 410 781 l 410 881 m 424 83 q 514 101 472 83 q 587 153 556 119 q 636 233 618 186 q 654 336 654 279 l 654 353 q 636 455 654 408 q 587 535 618 501 q 513 587 556 568 q 424 606 471 606 q 333 588 375 606 q 259 536 290 569 q 210 457 228 503 q 193 356 193 411 l 193 333 q 210 229 193 275 q 259 151 228 183 q 332 101 290 118 q 424 83 374 83 z "},"è":{"ha":850,"x_min":92,"x_max":756,"o":"m 200 311 q 264 146 204 208 q 431 83 324 83 q 515 94 479 83 q 577 125 551 106 q 619 170 603 144 q 644 225 635 196 l 747 197 q 640 41 718 101 q 428 -19 561 -19 q 292 6 354 -19 q 186 79 231 32 q 117 192 142 126 q 92 336 92 257 l 92 369 q 117 504 92 442 q 189 612 143 567 q 297 683 235 657 q 431 708 358 708 q 577 677 515 708 q 678 600 639 646 q 737 500 718 554 q 756 400 756 446 l 756 311 l 200 311 m 431 606 q 345 591 385 606 q 276 550 306 576 q 227 488 246 524 q 203 411 208 453 l 647 411 q 626 492 644 456 q 577 553 607 528 q 509 592 547 578 q 431 606 471 606 m 389 956 l 481 792 l 381 792 l 264 956 l 389 956 z "},"é":{"ha":850,"x_min":92,"x_max":756,"o":"m 200 311 q 264 146 204 208 q 431 83 324 83 q 515 94 479 83 q 577 125 551 106 q 619 170 603 144 q 644 225 635 196 l 747 197 q 640 41 718 101 q 428 -19 561 -19 q 292 6 354 -19 q 186 79 231 32 q 117 192 142 126 q 92 336 92 257 l 92 369 q 117 504 92 442 q 189 612 143 567 q 297 683 235 657 q 431 708 358 708 q 577 677 515 708 q 678 600 639 646 q 737 500 718 554 q 756 400 756 446 l 756 311 l 200 311 m 431 606 q 345 591 385 606 q 276 550 306 576 q 227 488 246 524 q 203 411 208 453 l 647 411 q 626 492 644 456 q 577 553 607 528 q 509 592 547 578 q 431 606 471 606 m 596 956 l 479 792 l 379 792 l 471 956 l 596 956 z "},"ê":{"ha":850,"x_min":92,"x_max":756,"o":"m 200 311 q 264 146 204 208 q 431 83 324 83 q 515 94 479 83 q 577 125 551 106 q 619 170 603 144 q 644 225 635 196 l 747 197 q 640 41 718 101 q 428 -19 561 -19 q 292 6 354 -19 q 186 79 231 32 q 117 192 142 126 q 92 336 92 257 l 92 369 q 117 504 92 442 q 189 612 143 567 q 297 683 235 657 q 431 708 358 708 q 577 677 515 708 q 678 600 639 646 q 737 500 718 554 q 756 400 756 446 l 756 311 l 200 311 m 431 606 q 345 591 385 606 q 276 550 306 576 q 227 488 246 524 q 203 411 208 453 l 647 411 q 626 492 644 456 q 577 553 607 528 q 509 592 547 578 q 431 606 471 606 m 507 792 l 435 914 l 418 914 l 346 792 l 229 792 l 340 956 l 513 956 l 624 792 l 507 792 z "},"ě":{"ha":850,"x_min":92,"x_max":756,"o":"m 200 311 q 264 146 204 208 q 431 83 324 83 q 515 94 479 83 q 577 125 551 106 q 619 170 603 144 q 644 225 635 196 l 747 197 q 640 41 718 101 q 428 -19 561 -19 q 292 6 354 -19 q 186 79 231 32 q 117 192 142 126 q 92 336 92 257 l 92 369 q 117 504 92 442 q 189 612 143 567 q 297 683 235 657 q 431 708 358 708 q 577 677 515 708 q 678 600 639 646 q 737 500 718 554 q 756 400 756 446 l 756 311 l 200 311 m 431 606 q 345 591 385 606 q 276 550 306 576 q 227 488 246 524 q 203 411 208 453 l 647 411 q 626 492 644 456 q 577 553 607 528 q 509 592 547 578 q 431 606 471 606 m 626 956 l 515 792 l 343 792 l 232 956 l 349 956 l 421 833 l 438 833 l 510 956 l 626 956 z "},"ë":{"ha":850,"x_min":92,"x_max":756,"o":"m 200 311 q 264 146 204 208 q 431 83 324 83 q 515 94 479 83 q 577 125 551 106 q 619 170 603 144 q 644 225 635 196 l 747 197 q 640 41 718 101 q 428 -19 561 -19 q 292 6 354 -19 q 186 79 231 32 q 117 192 142 126 q 92 336 92 257 l 92 369 q 117 504 92 442 q 189 612 143 567 q 297 683 235 657 q 431 708 358 708 q 577 677 515 708 q 678 600 639 646 q 737 500 718 554 q 756 400 756 446 l 756 311 l 200 311 m 431 606 q 345 591 385 606 q 276 550 306 576 q 227 488 246 524 q 203 411 208 453 l 647 411 q 626 492 644 456 q 577 553 607 528 q 509 592 547 578 q 431 606 471 606 m 190 894 q 219 963 190 935 q 288 992 247 992 q 356 963 328 992 q 385 894 385 935 q 356 826 385 854 q 288 797 328 797 q 219 826 247 797 q 190 894 190 854 m 468 894 q 497 963 468 935 q 565 992 525 992 q 634 963 606 992 q 663 894 663 935 q 634 826 663 854 q 565 797 606 797 q 497 826 525 797 q 468 894 468 854 z "},"ē":{"ha":850,"x_min":92,"x_max":756,"o":"m 200 311 q 264 146 204 208 q 431 83 324 83 q 515 94 479 83 q 577 125 551 106 q 619 170 603 144 q 644 225 635 196 l 747 197 q 640 41 718 101 q 428 -19 561 -19 q 292 6 354 -19 q 186 79 231 32 q 117 192 142 126 q 92 336 92 257 l 92 369 q 117 504 92 442 q 189 612 143 567 q 297 683 235 657 q 431 708 358 708 q 577 677 515 708 q 678 600 639 646 q 737 500 718 554 q 756 400 756 446 l 756 311 l 200 311 m 431 606 q 345 591 385 606 q 276 550 306 576 q 227 488 246 524 q 203 411 208 453 l 647 411 q 626 492 644 456 q 577 553 607 528 q 509 592 547 578 q 431 606 471 606 m 625 792 l 233 792 l 233 883 l 625 883 l 625 792 z "},"ĕ":{"ha":850,"x_min":92,"x_max":756,"o":"m 200 311 q 264 146 204 208 q 431 83 324 83 q 515 94 479 83 q 577 125 551 106 q 619 170 603 144 q 644 225 635 196 l 747 197 q 640 41 718 101 q 428 -19 561 -19 q 292 6 354 -19 q 186 79 231 32 q 117 192 142 126 q 92 336 92 257 l 92 369 q 117 504 92 442 q 189 612 143 567 q 297 683 235 657 q 431 708 358 708 q 577 677 515 708 q 678 600 639 646 q 737 500 718 554 q 756 400 756 446 l 756 311 l 200 311 m 431 606 q 345 591 385 606 q 276 550 306 576 q 227 488 246 524 q 203 411 208 453 l 647 411 q 626 492 644 456 q 577 553 607 528 q 509 592 547 578 q 431 606 471 606 m 579 956 l 579 942 q 539 833 579 875 q 429 792 499 792 q 319 833 360 792 q 279 942 279 875 l 279 956 l 375 956 l 375 939 q 389 901 375 917 q 429 885 403 885 q 469 901 456 885 q 483 939 483 917 l 483 956 l 579 956 z "},"ę":{"ha":850,"x_min":90,"x_max":754,"o":"m 199 311 q 263 146 203 208 q 429 83 322 83 q 514 94 478 83 q 576 125 550 106 q 617 170 601 144 q 643 225 633 196 l 746 197 q 651 52 718 110 q 471 -17 583 -6 l 453 -94 q 451 -106 451 -101 q 483 -136 451 -136 l 542 -136 l 542 -228 l 464 -228 q 390 -202 424 -228 q 356 -125 356 -176 q 360 -92 356 -112 l 376 -17 q 260 21 313 -8 q 169 96 207 50 q 111 203 132 142 q 90 336 90 264 l 90 369 q 116 504 90 442 q 188 612 142 567 q 295 683 233 657 q 429 708 357 708 q 576 677 514 708 q 677 600 638 646 q 735 500 717 554 q 754 400 754 446 l 754 311 l 199 311 m 429 606 q 344 591 383 606 q 274 550 304 576 q 226 488 244 524 q 201 411 207 453 l 646 411 q 624 492 643 456 q 576 553 606 528 q 508 592 546 578 q 429 606 469 606 z "},"ė":{"ha":850,"x_min":92,"x_max":756,"o":"m 200 311 q 264 146 204 208 q 431 83 324 83 q 515 94 479 83 q 577 125 551 106 q 619 170 603 144 q 644 225 635 196 l 747 197 q 640 41 718 101 q 428 -19 561 -19 q 292 6 354 -19 q 186 79 231 32 q 117 192 142 126 q 92 336 92 257 l 92 369 q 117 504 92 442 q 189 612 143 567 q 297 683 235 657 q 431 708 358 708 q 577 677 515 708 q 678 600 639 646 q 737 500 718 554 q 756 400 756 446 l 756 311 l 200 311 m 431 606 q 345 591 385 606 q 276 550 306 576 q 227 488 246 524 q 203 411 208 453 l 647 411 q 626 492 644 456 q 577 553 607 528 q 509 592 547 578 q 431 606 471 606 m 332 894 q 360 963 332 935 q 429 992 389 992 q 498 963 469 992 q 526 894 526 935 q 498 826 526 854 q 429 797 469 797 q 360 826 389 797 q 332 894 332 854 z "},"ẹ":{"ha":850,"x_min":92,"x_max":756,"o":"m 200 311 q 264 146 204 208 q 431 83 324 83 q 515 94 479 83 q 577 125 551 106 q 619 170 603 144 q 644 225 635 196 l 747 197 q 640 41 718 101 q 428 -19 561 -19 q 292 6 354 -19 q 186 79 231 32 q 117 192 142 126 q 92 336 92 257 l 92 369 q 117 504 92 442 q 189 612 143 567 q 297 683 235 657 q 431 708 358 708 q 577 677 515 708 q 678 600 639 646 q 737 500 718 554 q 756 400 756 446 l 756 311 l 200 311 m 431 606 q 345 591 385 606 q 276 550 306 576 q 227 488 246 524 q 203 411 208 453 l 647 411 q 626 492 644 456 q 577 553 607 528 q 509 592 547 578 q 431 606 471 606 m 329 -185 q 358 -116 329 -144 q 426 -87 386 -87 q 495 -116 467 -87 q 524 -185 524 -144 q 495 -253 524 -225 q 426 -282 467 -282 q 358 -253 386 -282 q 329 -185 329 -225 z "},"ẻ":{"ha":850,"x_min":90,"x_max":754,"o":"m 361 758 l 333 886 l 333 894 l 439 894 q 474 875 449 875 q 508 889 493 875 q 522 928 522 903 q 505 972 522 958 q 467 986 488 986 q 420 969 436 986 q 400 931 404 951 l 333 956 q 376 1025 344 997 q 468 1053 408 1053 q 560 1019 522 1053 q 597 926 597 985 q 569 843 597 878 q 492 808 540 808 q 417 853 435 808 l 408 853 l 429 758 l 361 758 m 199 311 q 263 146 203 208 q 429 83 322 83 q 514 94 478 83 q 576 125 550 106 q 617 170 601 144 q 643 225 633 196 l 746 197 q 638 41 717 101 q 426 -19 560 -19 q 291 6 353 -19 q 185 79 229 32 q 115 192 140 126 q 90 336 90 257 l 90 369 q 116 504 90 442 q 188 612 142 567 q 295 683 233 657 q 429 708 357 708 q 576 677 514 708 q 677 600 638 646 q 735 500 717 554 q 754 400 754 446 l 754 311 l 199 311 m 429 606 q 344 591 383 606 q 274 550 304 576 q 226 488 244 524 q 201 411 207 453 l 646 411 q 624 492 643 456 q 576 553 606 528 q 508 592 546 578 q 429 606 469 606 z "},"ẽ":{"ha":850,"x_min":92,"x_max":756,"o":"m 200 311 q 264 146 204 208 q 431 83 324 83 q 515 94 479 83 q 577 125 551 106 q 619 170 603 144 q 644 225 635 196 l 747 197 q 640 41 718 101 q 428 -19 561 -19 q 292 6 354 -19 q 186 79 231 32 q 117 192 142 126 q 92 336 92 257 l 92 369 q 117 504 92 442 q 189 612 143 567 q 297 683 235 657 q 431 708 358 708 q 577 677 515 708 q 678 600 639 646 q 737 500 718 554 q 756 400 756 446 l 756 311 l 200 311 m 431 606 q 345 591 385 606 q 276 550 306 576 q 227 488 246 524 q 203 411 208 453 l 647 411 q 626 492 644 456 q 577 553 607 528 q 509 592 547 578 q 431 606 471 606 m 522 888 q 536 867 529 874 q 556 860 543 860 q 582 874 569 860 l 649 950 l 717 892 l 660 824 q 614 783 640 800 q 551 765 588 765 q 485 785 508 765 q 439 847 463 804 q 423 871 429 864 q 406 878 417 878 q 375 861 390 878 l 311 788 l 243 846 l 300 914 q 346 955 319 938 q 410 972 372 972 q 474 952 450 972 q 522 888 497 932 z "},"ế":{"ha":850,"x_min":92,"x_max":810,"o":"m 200 311 q 264 146 204 208 q 431 83 324 83 q 515 94 479 83 q 577 125 551 106 q 619 170 603 144 q 644 225 635 196 l 747 197 q 640 41 718 101 q 428 -19 561 -19 q 292 6 354 -19 q 186 79 231 32 q 117 192 142 126 q 92 336 92 257 l 92 369 q 117 504 92 442 q 189 612 143 567 q 297 683 235 657 q 431 708 358 708 q 577 677 515 708 q 678 600 639 646 q 737 500 718 554 q 756 400 756 446 l 756 311 l 200 311 m 431 606 q 345 591 385 606 q 276 550 306 576 q 227 488 246 524 q 203 411 208 453 l 647 411 q 626 492 644 456 q 577 553 607 528 q 509 592 547 578 q 431 606 471 606 m 510 792 l 438 914 l 421 914 l 349 792 l 232 792 l 343 956 l 515 956 l 626 792 l 510 792 m 810 1078 l 693 914 l 593 914 l 685 1078 l 810 1078 z "},"ề":{"ha":850,"x_min":50,"x_max":756,"o":"m 200 311 q 264 146 204 208 q 431 83 324 83 q 515 94 479 83 q 577 125 551 106 q 619 170 603 144 q 644 225 635 196 l 747 197 q 640 41 718 101 q 428 -19 561 -19 q 292 6 354 -19 q 186 79 231 32 q 117 192 142 126 q 92 336 92 257 l 92 369 q 117 504 92 442 q 189 612 143 567 q 297 683 235 657 q 431 708 358 708 q 577 677 515 708 q 678 600 639 646 q 737 500 718 554 q 756 400 756 446 l 756 311 l 200 311 m 431 606 q 345 591 385 606 q 276 550 306 576 q 227 488 246 524 q 203 411 208 453 l 647 411 q 626 492 644 456 q 577 553 607 528 q 509 592 547 578 q 431 606 471 606 m 510 792 l 438 914 l 421 914 l 349 792 l 232 792 l 343 956 l 515 956 l 626 792 l 510 792 m 175 1078 l 267 914 l 167 914 l 50 1078 l 175 1078 z "},"ể":{"ha":850,"x_min":90,"x_max":829,"o":"m 593 914 l 565 1042 l 565 1050 l 671 1050 q 706 1031 681 1031 q 740 1044 725 1031 q 754 1083 754 1058 q 737 1128 754 1114 q 699 1142 719 1142 q 652 1124 668 1142 q 632 1086 636 1107 l 565 1111 q 608 1181 576 1153 q 700 1208 640 1208 q 792 1174 754 1208 q 829 1082 829 1140 q 801 999 829 1033 q 724 964 772 964 q 649 1008 667 964 l 640 1008 l 661 914 l 593 914 m 199 311 q 263 146 203 208 q 429 83 322 83 q 514 94 478 83 q 576 125 550 106 q 617 170 601 144 q 643 225 633 196 l 746 197 q 638 41 717 101 q 426 -19 560 -19 q 291 6 353 -19 q 185 79 229 32 q 115 192 140 126 q 90 336 90 257 l 90 369 q 116 504 90 442 q 188 612 142 567 q 295 683 233 657 q 429 708 357 708 q 576 677 514 708 q 677 600 638 646 q 735 500 717 554 q 754 400 754 446 l 754 311 l 199 311 m 429 606 q 344 591 383 606 q 274 550 304 576 q 226 488 244 524 q 201 411 207 453 l 646 411 q 624 492 643 456 q 576 553 606 528 q 508 592 546 578 q 429 606 469 606 m 510 792 l 438 914 l 421 914 l 349 792 l 232 792 l 343 956 l 515 956 l 626 792 l 510 792 z "},"ễ":{"ha":850,"x_min":92,"x_max":756,"o":"m 200 311 q 264 146 204 208 q 431 83 324 83 q 515 94 479 83 q 577 125 551 106 q 619 170 603 144 q 644 225 635 196 l 747 197 q 640 41 718 101 q 428 -19 561 -19 q 292 6 354 -19 q 186 79 231 32 q 117 192 142 126 q 92 336 92 257 l 92 369 q 117 504 92 442 q 189 612 143 567 q 297 683 235 657 q 431 708 358 708 q 577 677 515 708 q 678 600 639 646 q 737 500 718 554 q 756 400 756 446 l 756 311 l 200 311 m 431 606 q 345 591 385 606 q 276 550 306 576 q 227 488 246 524 q 203 411 208 453 l 647 411 q 626 492 644 456 q 577 553 607 528 q 509 592 547 578 q 431 606 471 606 m 510 792 l 438 914 l 421 914 l 349 792 l 232 792 l 343 956 l 515 956 l 626 792 l 510 792 m 472 1119 q 486 1099 479 1106 q 506 1092 493 1092 q 532 1106 519 1092 l 599 1182 l 667 1124 l 610 1056 q 564 1015 590 1032 q 501 997 538 997 q 435 1017 458 997 q 389 1079 413 1036 q 373 1103 379 1096 q 356 1110 367 1110 q 325 1093 340 1110 l 261 1019 l 193 1078 l 250 1146 q 296 1187 269 1169 q 360 1204 322 1204 q 424 1184 400 1204 q 472 1119 447 1164 z "},"ệ":{"ha":850,"x_min":92,"x_max":756,"o":"m 200 311 q 264 146 204 208 q 431 83 324 83 q 515 94 479 83 q 577 125 551 106 q 619 170 603 144 q 644 225 635 196 l 747 197 q 640 41 718 101 q 428 -19 561 -19 q 292 6 354 -19 q 186 79 231 32 q 117 192 142 126 q 92 336 92 257 l 92 369 q 117 504 92 442 q 189 612 143 567 q 297 683 235 657 q 431 708 358 708 q 577 677 515 708 q 678 600 639 646 q 737 500 718 554 q 756 400 756 446 l 756 311 l 200 311 m 431 606 q 345 591 385 606 q 276 550 306 576 q 227 488 246 524 q 203 411 208 453 l 647 411 q 626 492 644 456 q 577 553 607 528 q 509 592 547 578 q 431 606 471 606 m 510 792 l 438 914 l 421 914 l 349 792 l 232 792 l 343 956 l 515 956 l 626 792 l 510 792 m 329 -185 q 358 -116 329 -144 q 426 -87 386 -87 q 495 -116 467 -87 q 524 -185 524 -144 q 495 -253 524 -225 q 426 -282 467 -282 q 358 -253 386 -282 q 329 -185 329 -225 z "},"ĝ":{"ha":850,"x_min":72,"x_max":753,"o":"m 644 106 l 628 106 q 537 12 594 43 q 411 -19 479 -19 q 281 4 342 -19 q 173 72 219 28 q 99 183 126 117 q 72 333 72 249 l 72 356 q 100 505 72 439 q 174 616 128 571 q 281 685 219 661 q 408 708 342 708 q 540 676 483 708 q 628 581 596 643 l 644 581 l 644 689 l 753 689 l 753 -169 q 723 -247 753 -217 q 646 -278 693 -278 l 197 -278 l 197 -178 l 607 -178 q 644 -136 644 -178 l 644 106 m 414 83 q 504 101 463 83 q 577 153 546 119 q 626 233 608 186 q 644 336 644 279 l 644 353 q 626 455 644 408 q 577 535 608 501 q 503 587 546 568 q 414 606 461 606 q 323 588 365 606 q 249 536 281 569 q 201 457 218 503 q 183 356 183 411 l 183 333 q 201 229 183 275 q 249 151 218 183 q 322 101 281 118 q 414 83 364 83 m 482 792 l 410 914 l 393 914 l 321 792 l 204 792 l 315 956 l 488 956 l 599 792 l 482 792 z "},"ğ":{"ha":850,"x_min":72,"x_max":753,"o":"m 644 106 l 628 106 q 537 12 594 43 q 411 -19 479 -19 q 281 4 342 -19 q 173 72 219 28 q 99 183 126 117 q 72 333 72 249 l 72 356 q 100 505 72 439 q 174 616 128 571 q 281 685 219 661 q 408 708 342 708 q 540 676 483 708 q 628 581 596 643 l 644 581 l 644 689 l 753 689 l 753 -169 q 723 -247 753 -217 q 646 -278 693 -278 l 197 -278 l 197 -178 l 607 -178 q 644 -136 644 -178 l 644 106 m 414 83 q 504 101 463 83 q 577 153 546 119 q 626 233 608 186 q 644 336 644 279 l 644 353 q 626 455 644 408 q 577 535 608 501 q 503 587 546 568 q 414 606 461 606 q 323 588 365 606 q 249 536 281 569 q 201 457 218 503 q 183 356 183 411 l 183 333 q 201 229 183 275 q 249 151 218 183 q 322 101 281 118 q 414 83 364 83 m 560 956 l 560 942 q 519 833 560 875 q 410 792 479 792 q 300 833 340 792 q 260 942 260 875 l 260 956 l 356 956 l 356 939 q 369 901 356 917 q 410 885 383 885 q 450 901 436 885 q 464 939 464 917 l 464 956 l 560 956 z "},"ġ":{"ha":850,"x_min":72,"x_max":753,"o":"m 644 106 l 628 106 q 537 12 594 43 q 411 -19 479 -19 q 281 4 342 -19 q 173 72 219 28 q 99 183 126 117 q 72 333 72 249 l 72 356 q 100 505 72 439 q 174 616 128 571 q 281 685 219 661 q 408 708 342 708 q 540 676 483 708 q 628 581 596 643 l 644 581 l 644 689 l 753 689 l 753 -169 q 723 -247 753 -217 q 646 -278 693 -278 l 197 -278 l 197 -178 l 607 -178 q 644 -136 644 -178 l 644 106 m 414 83 q 504 101 463 83 q 577 153 546 119 q 626 233 608 186 q 644 336 644 279 l 644 353 q 626 455 644 408 q 577 535 608 501 q 503 587 546 568 q 414 606 461 606 q 323 588 365 606 q 249 536 281 569 q 201 457 218 503 q 183 356 183 411 l 183 333 q 201 229 183 275 q 249 151 218 183 q 322 101 281 118 q 414 83 364 83 m 313 894 q 341 963 313 935 q 410 992 369 992 q 478 963 450 992 q 507 894 507 935 q 478 826 507 854 q 410 797 450 797 q 341 826 369 797 q 313 894 313 854 z "},"ģ":{"ha":850,"x_min":72,"x_max":753,"o":"m 644 106 l 628 106 q 537 12 594 43 q 411 -19 479 -19 q 281 4 342 -19 q 173 72 219 28 q 99 183 126 117 q 72 333 72 249 l 72 356 q 100 505 72 439 q 174 616 128 571 q 281 685 219 661 q 408 708 342 708 q 540 676 483 708 q 628 581 596 643 l 644 581 l 644 689 l 753 689 l 753 -169 q 723 -247 753 -217 q 646 -278 693 -278 l 197 -278 l 197 -178 l 607 -178 q 644 -136 644 -178 l 644 106 m 414 83 q 504 101 463 83 q 577 153 546 119 q 626 233 608 186 q 644 336 644 279 l 644 353 q 626 455 644 408 q 577 535 608 501 q 503 587 546 568 q 414 606 461 606 q 323 588 365 606 q 249 536 281 569 q 201 457 218 503 q 183 356 183 411 l 183 333 q 201 229 183 275 q 249 151 218 183 q 322 101 281 118 q 414 83 364 83 m 507 894 q 478 826 507 854 q 410 797 450 797 q 341 826 369 797 q 313 894 313 854 l 313 1031 q 342 1108 313 1078 q 419 1139 372 1139 l 490 1139 l 490 1064 l 425 1064 q 388 1022 388 1064 l 388 988 q 411 992 397 992 q 478 963 450 992 q 507 894 507 935 z "},"ḡ":{"ha":850,"x_min":72,"x_max":753,"o":"m 644 106 l 628 106 q 537 12 594 43 q 411 -19 479 -19 q 281 4 342 -19 q 173 72 219 28 q 99 183 126 117 q 72 333 72 249 l 72 356 q 100 505 72 439 q 174 616 128 571 q 281 685 219 661 q 408 708 342 708 q 540 676 483 708 q 628 581 596 643 l 644 581 l 644 689 l 753 689 l 753 -169 q 723 -247 753 -217 q 646 -278 693 -278 l 197 -278 l 197 -178 l 607 -178 q 644 -136 644 -178 l 644 106 m 414 83 q 504 101 463 83 q 577 153 546 119 q 626 233 608 186 q 644 336 644 279 l 644 353 q 626 455 644 408 q 577 535 608 501 q 503 587 546 568 q 414 606 461 606 q 323 588 365 606 q 249 536 281 569 q 201 457 218 503 q 183 356 183 411 l 183 333 q 201 229 183 275 q 249 151 218 183 q 322 101 281 118 q 414 83 364 83 m 606 792 l 214 792 l 214 883 l 606 883 l 606 792 z "},"ǧ":{"ha":850,"x_min":72,"x_max":753,"o":"m 644 106 l 628 106 q 537 12 594 43 q 411 -19 479 -19 q 281 4 342 -19 q 173 72 219 28 q 99 183 126 117 q 72 333 72 249 l 72 356 q 100 505 72 439 q 174 616 128 571 q 281 685 219 661 q 408 708 342 708 q 540 676 483 708 q 628 581 596 643 l 644 581 l 644 689 l 753 689 l 753 -169 q 723 -247 753 -217 q 646 -278 693 -278 l 197 -278 l 197 -178 l 607 -178 q 644 -136 644 -178 l 644 106 m 414 83 q 504 101 463 83 q 577 153 546 119 q 626 233 608 186 q 644 336 644 279 l 644 353 q 626 455 644 408 q 577 535 608 501 q 503 587 546 568 q 414 606 461 606 q 323 588 365 606 q 249 536 281 569 q 201 457 218 503 q 183 356 183 411 l 183 333 q 201 229 183 275 q 249 151 218 183 q 322 101 281 118 q 414 83 364 83 m 606 956 l 494 792 l 322 792 l 211 956 l 328 956 l 400 833 l 417 833 l 489 956 l 606 956 z "},"ĥ":{"ha":850,"x_min":121,"x_max":729,"o":"m 229 0 l 121 0 l 121 972 l 229 972 l 229 564 l 246 564 q 335 669 278 631 q 476 708 393 708 q 659 634 589 708 q 729 411 729 560 l 729 0 l 621 0 l 621 389 q 572 551 621 497 q 440 606 524 606 q 285 538 342 606 q 229 358 229 471 l 229 0 m 399 1075 l 326 1197 l 310 1197 l 238 1075 l 121 1075 l 232 1239 l 404 1239 l 515 1075 l 399 1075 z "},"ḥ":{"ha":850,"x_min":121,"x_max":729,"o":"m 229 0 l 121 0 l 121 972 l 229 972 l 229 564 l 246 564 q 335 669 278 631 q 476 708 393 708 q 659 634 589 708 q 729 411 729 560 l 729 0 l 621 0 l 621 389 q 572 551 621 497 q 440 606 524 606 q 285 538 342 606 q 229 358 229 471 l 229 0 m 328 -185 q 356 -116 328 -144 q 425 -87 385 -87 q 494 -116 465 -87 q 522 -185 522 -144 q 494 -253 522 -225 q 425 -282 465 -282 q 356 -253 385 -282 q 328 -185 328 -225 z "},"ḫ":{"ha":850,"x_min":121,"x_max":729,"o":"m 229 0 l 121 0 l 121 972 l 229 972 l 229 564 l 246 564 q 335 669 278 631 q 476 708 393 708 q 659 634 589 708 q 729 411 729 560 l 729 0 l 621 0 l 621 389 q 572 551 621 497 q 440 606 524 606 q 285 538 342 606 q 229 358 229 471 l 229 0 m 575 -87 l 575 -101 q 535 -210 575 -168 q 425 -251 494 -251 q 315 -210 356 -251 q 275 -101 275 -168 l 275 -87 l 371 -87 l 371 -104 q 385 -142 371 -126 q 425 -158 399 -158 q 465 -142 451 -158 q 479 -104 479 -126 l 479 -87 l 575 -87 z "},"ħ":{"ha":850,"x_min":38,"x_max":729,"o":"m 38 881 l 121 881 l 121 972 l 229 972 l 229 881 l 476 881 l 476 781 l 229 781 l 229 564 l 246 564 q 335 669 278 631 q 476 708 393 708 q 659 634 589 708 q 729 411 729 560 l 729 0 l 621 0 l 621 389 q 572 551 621 497 q 440 606 524 606 q 285 538 342 606 q 229 358 229 471 l 229 0 l 121 0 l 121 781 l 38 781 l 38 881 z "},"ì":{"ha":850,"x_min":138,"x_max":713,"o":"m 138 100 l 379 100 l 379 589 l 163 589 l 163 689 l 488 689 l 488 100 l 713 100 l 713 0 l 138 0 l 138 100 m 390 956 l 482 792 l 382 792 l 265 956 l 390 956 z "},"í":{"ha":850,"x_min":138,"x_max":713,"o":"m 138 100 l 379 100 l 379 589 l 163 589 l 163 689 l 488 689 l 488 100 l 713 100 l 713 0 l 138 0 l 138 100 m 603 956 l 486 792 l 386 792 l 478 956 l 603 956 z "},"î":{"ha":850,"x_min":138,"x_max":713,"o":"m 138 100 l 379 100 l 379 589 l 163 589 l 163 689 l 488 689 l 488 100 l 713 100 l 713 0 l 138 0 l 138 100 m 514 792 l 442 914 l 425 914 l 353 792 l 236 792 l 347 956 l 519 956 l 631 792 l 514 792 z "},"ĩ":{"ha":850,"x_min":136,"x_max":713,"o":"m 138 100 l 379 100 l 379 589 l 163 589 l 163 689 l 488 689 l 488 100 l 713 100 l 713 0 l 138 0 l 138 100 m 415 888 q 429 867 422 874 q 449 860 436 860 q 475 874 463 860 l 542 950 l 610 892 l 553 824 q 507 783 533 800 q 444 765 481 765 q 378 785 401 765 q 332 847 356 804 q 316 871 322 864 q 299 878 310 878 q 268 861 283 878 l 204 788 l 136 846 l 193 914 q 239 955 213 938 q 303 972 265 972 q 367 952 343 972 q 415 888 390 932 z "},"ï":{"ha":850,"x_min":138,"x_max":713,"o":"m 138 100 l 379 100 l 379 589 l 163 589 l 163 689 l 488 689 l 488 100 l 713 100 l 713 0 l 138 0 l 138 100 m 197 894 q 226 963 197 935 q 294 992 254 992 q 363 963 335 992 q 392 894 392 935 q 363 826 392 854 q 294 797 335 797 q 226 826 254 797 q 197 894 197 854 m 475 894 q 503 963 475 935 q 572 992 532 992 q 641 963 613 992 q 669 894 669 935 q 641 826 669 854 q 572 797 613 797 q 503 826 532 797 q 475 894 475 854 z "},"ī":{"ha":850,"x_min":138,"x_max":713,"o":"m 488 792 l 163 792 l 163 883 l 488 883 l 488 792 m 138 100 l 379 100 l 379 589 l 163 589 l 163 689 l 488 689 l 488 100 l 713 100 l 713 0 l 138 0 l 138 100 z "},"ǐ":{"ha":850,"x_min":138,"x_max":713,"o":"m 138 100 l 379 100 l 379 589 l 163 589 l 163 689 l 488 689 l 488 100 l 713 100 l 713 0 l 138 0 l 138 100 m 600 956 l 489 792 l 317 792 l 206 956 l 322 956 l 394 833 l 411 833 l 483 956 l 600 956 z "},"į":{"ha":850,"x_min":138,"x_max":779,"o":"m 138 100 l 379 100 l 379 589 l 163 589 l 163 689 l 488 689 l 488 100 l 713 100 l 713 0 l 690 -94 q 689 -106 689 -101 q 721 -136 689 -136 l 779 -136 l 779 -228 l 701 -228 q 626 -202 660 -228 q 593 -125 593 -176 q 597 -92 593 -112 l 617 0 l 138 0 l 138 100 m 335 894 q 363 963 335 935 q 432 992 392 992 q 501 963 472 992 q 529 894 529 935 q 501 826 529 854 q 432 797 472 797 q 363 826 392 797 q 335 894 335 854 z "},"ỉ":{"ha":850,"x_min":138,"x_max":713,"o":"m 390 758 l 363 886 l 363 894 l 468 894 q 503 875 478 875 q 537 889 522 875 q 551 928 551 903 q 534 972 551 958 q 496 986 517 986 q 449 969 465 986 q 429 931 433 951 l 363 956 q 406 1025 374 997 q 497 1053 438 1053 q 589 1019 551 1053 q 626 926 626 985 q 598 843 626 878 q 521 808 569 808 q 446 853 464 808 l 438 853 l 458 758 l 390 758 m 138 100 l 379 100 l 379 589 l 163 589 l 163 689 l 488 689 l 488 100 l 713 100 l 713 0 l 138 0 l 138 100 z "},"ị":{"ha":850,"x_min":138,"x_max":713,"o":"m 335 894 q 363 963 335 935 q 432 992 392 992 q 501 963 472 992 q 529 894 529 935 q 501 826 529 854 q 432 797 472 797 q 363 826 392 797 q 335 894 335 854 m 138 100 l 379 100 l 379 589 l 163 589 l 163 689 l 488 689 l 488 100 l 713 100 l 713 0 l 138 0 l 138 100 m 335 -185 q 363 -116 335 -144 q 432 -87 392 -87 q 501 -116 472 -87 q 529 -185 529 -144 q 501 -253 529 -225 q 432 -282 472 -282 q 363 -253 392 -282 q 335 -185 335 -225 z "},"ĭ":{"ha":850,"x_min":138,"x_max":713,"o":"m 138 100 l 379 100 l 379 589 l 163 589 l 163 689 l 488 689 l 488 100 l 713 100 l 713 0 l 138 0 l 138 100 m 582 956 l 582 942 q 542 833 582 875 q 432 792 501 792 q 322 833 363 792 q 282 942 282 875 l 282 956 l 378 956 l 378 939 q 392 901 378 917 q 432 885 406 885 q 472 901 458 885 q 486 939 486 917 l 486 956 l 582 956 z "},"ı":{"ha":850,"x_min":138,"x_max":713,"o":"m 138 100 l 379 100 l 379 589 l 163 589 l 163 689 l 488 689 l 488 100 l 713 100 l 713 0 l 138 0 l 138 100 z "},"ĵ":{"ha":850,"x_min":186,"x_max":608,"o":"m 219 689 l 603 689 l 603 -169 q 573 -247 603 -217 q 496 -278 543 -278 l 186 -278 l 186 -178 l 457 -178 q 494 -136 494 -178 l 494 589 l 219 589 l 219 689 m 492 792 l 419 914 l 403 914 l 331 792 l 214 792 l 325 956 l 497 956 l 608 792 l 492 792 z "},"ķ":{"ha":850,"x_min":190,"x_max":751,"o":"m 299 403 l 322 403 l 585 689 l 718 689 l 718 681 l 432 365 l 432 340 l 751 8 l 751 0 l 618 0 l 325 303 l 299 303 l 299 0 l 190 0 l 190 972 l 299 972 l 299 403 m 356 -157 q 384 -88 356 -117 q 453 -60 413 -60 q 522 -88 493 -60 q 550 -157 550 -117 l 550 -293 q 520 -371 550 -340 q 443 -401 490 -401 l 372 -401 l 372 -326 l 438 -326 q 475 -285 475 -326 l 475 -250 q 451 -254 464 -254 q 384 -226 413 -254 q 356 -157 356 -197 z "},"ĸ":{"ha":850,"x_min":190,"x_max":751,"o":"m 299 403 l 322 403 l 585 689 l 718 689 l 718 681 l 432 365 l 432 340 l 751 8 l 751 0 l 618 0 l 325 303 l 299 303 l 299 0 l 190 0 l 190 689 l 299 689 l 299 403 z "},"ĺ":{"ha":850,"x_min":121,"x_max":729,"o":"m 121 100 l 371 100 l 371 872 l 129 872 l 129 972 l 479 972 l 479 100 l 729 100 l 729 0 l 121 0 l 121 100 m 594 1244 l 478 1081 l 378 1081 l 469 1244 l 594 1244 z "},"ľ":{"ha":850,"x_min":121,"x_max":729,"o":"m 121 100 l 371 100 l 371 872 l 129 872 l 129 972 l 479 972 l 479 100 l 729 100 l 729 0 l 121 0 l 121 100 m 535 876 q 563 945 535 917 q 632 974 592 974 q 701 945 672 974 q 729 876 729 917 l 729 740 q 699 663 729 693 q 622 632 669 632 l 551 632 l 551 707 l 617 707 q 654 749 654 707 l 654 783 q 631 779 643 779 q 563 808 592 779 q 535 876 535 836 z "},"ļ":{"ha":850,"x_min":121,"x_max":729,"o":"m 121 100 l 371 100 l 371 872 l 129 872 l 129 972 l 479 972 l 479 100 l 729 100 l 729 0 l 121 0 l 121 100 m 328 -157 q 356 -88 328 -117 q 425 -60 385 -60 q 494 -88 465 -60 q 522 -157 522 -117 l 522 -293 q 492 -371 522 -340 q 415 -401 463 -401 l 344 -401 l 344 -326 l 410 -326 q 447 -285 447 -326 l 447 -250 q 424 -254 436 -254 q 356 -226 385 -254 q 328 -157 328 -197 z "},"ḷ":{"ha":850,"x_min":121,"x_max":729,"o":"m 121 100 l 371 100 l 371 872 l 129 872 l 129 972 l 479 972 l 479 100 l 729 100 l 729 0 l 121 0 l 121 100 m 328 -185 q 356 -116 328 -144 q 425 -87 385 -87 q 494 -116 465 -87 q 522 -185 522 -144 q 494 -253 522 -225 q 425 -282 465 -282 q 356 -253 385 -282 q 328 -185 328 -225 z "},"ḹ":{"ha":850,"x_min":121,"x_max":729,"o":"m 479 1075 l 129 1075 l 129 1167 l 479 1167 l 479 1075 m 121 100 l 371 100 l 371 872 l 129 872 l 129 972 l 479 972 l 479 100 l 729 100 l 729 0 l 121 0 l 121 100 m 328 -186 q 356 -117 328 -146 q 425 -89 385 -89 q 494 -117 465 -89 q 522 -186 522 -146 q 494 -255 522 -226 q 425 -283 465 -283 q 356 -255 385 -283 q 328 -186 328 -226 z "},"ḻ":{"ha":850,"x_min":121,"x_max":729,"o":"m 121 100 l 371 100 l 371 872 l 129 872 l 129 972 l 479 972 l 479 100 l 729 100 l 729 0 l 121 0 l 121 100 m 621 -179 l 229 -179 l 229 -87 l 621 -87 l 621 -179 z "},"ł":{"ha":850,"x_min":121,"x_max":729,"o":"m 121 100 l 371 100 l 371 382 l 283 338 l 235 432 l 371 500 l 371 872 l 129 872 l 129 972 l 479 972 l 479 556 l 569 601 l 617 508 l 479 438 l 479 100 l 729 100 l 729 0 l 121 0 l 121 100 z "},"ŀ":{"ha":850,"x_min":121,"x_max":729,"o":"m 121 100 l 371 100 l 371 872 l 129 872 l 129 972 l 479 972 l 479 100 l 729 100 l 729 0 l 121 0 l 121 100 m 535 486 q 563 555 535 526 q 632 583 592 583 q 701 555 672 583 q 729 486 729 526 q 701 417 729 446 q 632 389 672 389 q 563 417 592 389 q 535 486 535 446 z "},"ṃ":{"ha":850,"x_min":67,"x_max":783,"o":"m 783 0 l 675 0 l 675 494 q 653 574 675 543 q 582 606 631 606 q 508 572 536 606 q 479 467 479 538 l 479 0 l 371 0 l 371 500 q 346 576 371 546 q 279 606 321 606 q 202 569 229 606 q 175 475 175 533 l 175 0 l 67 0 l 67 689 l 175 689 l 175 614 l 192 614 q 244 685 210 663 q 326 708 279 708 q 409 682 376 708 q 454 614 442 656 l 471 614 q 621 708 518 708 q 741 659 699 708 q 783 531 783 610 l 783 0 m 328 -185 q 356 -116 328 -144 q 425 -87 385 -87 q 494 -116 465 -87 q 522 -185 522 -144 q 494 -253 522 -225 q 425 -282 465 -282 q 356 -253 385 -282 q 328 -185 328 -225 z "},"ń":{"ha":850,"x_min":121,"x_max":729,"o":"m 229 0 l 121 0 l 121 689 l 229 689 l 229 572 l 246 572 q 468 708 310 708 q 658 634 588 708 q 729 411 729 560 l 729 0 l 621 0 l 621 389 q 572 551 621 497 q 440 606 524 606 q 285 538 342 606 q 229 358 229 471 l 229 0 m 633 956 l 517 792 l 417 792 l 508 956 l 633 956 z "},"ň":{"ha":850,"x_min":121,"x_max":729,"o":"m 229 0 l 121 0 l 121 689 l 229 689 l 229 572 l 246 572 q 468 708 310 708 q 658 634 588 708 q 729 411 729 560 l 729 0 l 621 0 l 621 389 q 572 551 621 497 q 440 606 524 606 q 285 538 342 606 q 229 358 229 471 l 229 0 m 657 956 l 546 792 l 374 792 l 263 956 l 379 956 l 451 833 l 468 833 l 540 956 l 657 956 z "},"ñ":{"ha":850,"x_min":121,"x_max":729,"o":"m 229 0 l 121 0 l 121 689 l 229 689 l 229 572 l 246 572 q 468 708 310 708 q 658 634 588 708 q 729 411 729 560 l 729 0 l 621 0 l 621 389 q 572 551 621 497 q 440 606 524 606 q 285 538 342 606 q 229 358 229 471 l 229 0 m 526 888 q 540 867 533 874 q 560 860 547 860 q 586 874 574 860 l 653 950 l 721 892 l 664 824 q 618 783 644 800 q 556 765 592 765 q 490 785 513 765 q 443 847 467 804 q 427 871 433 864 q 410 878 421 878 q 379 861 394 878 l 315 788 l 247 846 l 304 914 q 350 955 324 938 q 414 972 376 972 q 478 952 454 972 q 526 888 501 932 z "},"ņ":{"ha":850,"x_min":121,"x_max":729,"o":"m 229 0 l 121 0 l 121 689 l 229 689 l 229 572 l 246 572 q 468 708 310 708 q 658 634 588 708 q 729 411 729 560 l 729 0 l 621 0 l 621 389 q 572 551 621 497 q 440 606 524 606 q 285 538 342 606 q 229 358 229 471 l 229 0 m 343 -158 q 372 -90 343 -118 q 440 -61 400 -61 q 509 -90 481 -61 q 538 -158 538 -118 l 538 -294 q 508 -372 538 -342 q 431 -403 478 -403 l 360 -403 l 360 -328 l 425 -328 q 463 -286 463 -328 l 463 -251 q 439 -256 451 -256 q 372 -227 400 -256 q 343 -158 343 -199 z "},"ṅ":{"ha":850,"x_min":121,"x_max":729,"o":"m 229 0 l 121 0 l 121 689 l 229 689 l 229 572 l 246 572 q 468 708 310 708 q 658 634 588 708 q 729 411 729 560 l 729 0 l 621 0 l 621 389 q 572 551 621 497 q 440 606 524 606 q 285 538 342 606 q 229 358 229 471 l 229 0 m 371 894 q 399 963 371 935 q 468 992 428 992 q 537 963 508 992 q 565 894 565 935 q 537 826 565 854 q 468 797 508 797 q 399 826 428 797 q 371 894 371 854 z "},"ṇ":{"ha":850,"x_min":121,"x_max":729,"o":"m 229 0 l 121 0 l 121 689 l 229 689 l 229 572 l 246 572 q 468 708 310 708 q 658 634 588 708 q 729 411 729 560 l 729 0 l 621 0 l 621 389 q 572 551 621 497 q 440 606 524 606 q 285 538 342 606 q 229 358 229 471 l 229 0 m 328 -185 q 356 -116 328 -144 q 425 -87 385 -87 q 494 -116 465 -87 q 522 -185 522 -144 q 494 -253 522 -225 q 425 -282 465 -282 q 356 -253 385 -282 q 328 -185 328 -225 z "},"ṉ":{"ha":850,"x_min":121,"x_max":729,"o":"m 229 0 l 121 0 l 121 689 l 229 689 l 229 572 l 246 572 q 468 708 310 708 q 658 634 588 708 q 729 411 729 560 l 729 0 l 621 0 l 621 389 q 572 551 621 497 q 440 606 524 606 q 285 538 342 606 q 229 358 229 471 l 229 0 m 621 -179 l 229 -179 l 229 -87 l 621 -87 l 621 -179 z "},"ŉ":{"ha":850,"x_min":104,"x_max":729,"o":"m 104 1042 q 133 1110 104 1082 q 201 1139 161 1139 q 270 1110 242 1139 q 299 1042 299 1082 l 299 906 q 269 828 299 858 q 192 797 239 797 l 121 797 l 121 872 l 186 872 q 224 914 224 872 l 224 949 q 200 944 213 944 q 133 973 161 944 q 104 1042 104 1001 m 229 0 l 121 0 l 121 689 l 229 689 l 229 572 l 246 572 q 468 708 310 708 q 658 634 588 708 q 729 411 729 560 l 729 0 l 621 0 l 621 389 q 572 551 621 497 q 440 606 524 606 q 285 538 342 606 q 229 358 229 471 l 229 0 z "},"ò":{"ha":850,"x_min":79,"x_max":771,"o":"m 771 336 q 742 184 771 250 q 667 73 714 118 q 556 4 619 28 q 425 -19 493 -19 q 293 4 356 -19 q 183 73 231 28 q 108 184 136 118 q 79 336 79 250 l 79 353 q 108 503 79 438 q 184 615 136 569 q 294 685 232 661 q 425 708 357 708 q 556 685 493 708 q 666 615 618 661 q 742 503 714 569 q 771 353 771 438 l 771 336 m 425 83 q 517 101 475 83 q 592 151 560 118 q 642 231 624 185 q 660 336 660 278 l 660 353 q 642 455 660 408 q 592 535 624 501 q 517 587 560 568 q 425 606 474 606 q 333 587 376 606 q 258 535 290 568 q 208 455 226 501 q 190 353 190 408 l 190 336 q 208 231 190 278 q 258 151 226 185 q 333 101 290 118 q 425 83 375 83 m 388 956 l 479 792 l 379 792 l 263 956 l 388 956 z "},"ó":{"ha":850,"x_min":79,"x_max":771,"o":"m 771 336 q 742 184 771 250 q 667 73 714 118 q 556 4 619 28 q 425 -19 493 -19 q 293 4 356 -19 q 183 73 231 28 q 108 184 136 118 q 79 336 79 250 l 79 353 q 108 503 79 438 q 184 615 136 569 q 294 685 232 661 q 425 708 357 708 q 556 685 493 708 q 666 615 618 661 q 742 503 714 569 q 771 353 771 438 l 771 336 m 425 83 q 517 101 475 83 q 592 151 560 118 q 642 231 624 185 q 660 336 660 278 l 660 353 q 642 455 660 408 q 592 535 624 501 q 517 587 560 568 q 425 606 474 606 q 333 587 376 606 q 258 535 290 568 q 208 455 226 501 q 190 353 190 408 l 190 336 q 208 231 190 278 q 258 151 226 185 q 333 101 290 118 q 425 83 375 83 m 594 956 l 478 792 l 378 792 l 469 956 l 594 956 z "},"ô":{"ha":850,"x_min":79,"x_max":771,"o":"m 771 336 q 742 184 771 250 q 667 73 714 118 q 556 4 619 28 q 425 -19 493 -19 q 293 4 356 -19 q 183 73 231 28 q 108 184 136 118 q 79 336 79 250 l 79 353 q 108 503 79 438 q 184 615 136 569 q 294 685 232 661 q 425 708 357 708 q 556 685 493 708 q 666 615 618 661 q 742 503 714 569 q 771 353 771 438 l 771 336 m 425 83 q 517 101 475 83 q 592 151 560 118 q 642 231 624 185 q 660 336 660 278 l 660 353 q 642 455 660 408 q 592 535 624 501 q 517 587 560 568 q 425 606 474 606 q 333 587 376 606 q 258 535 290 568 q 208 455 226 501 q 190 353 190 408 l 190 336 q 208 231 190 278 q 258 151 226 185 q 333 101 290 118 q 425 83 375 83 m 506 792 l 433 914 l 417 914 l 344 792 l 228 792 l 339 956 l 511 956 l 622 792 l 506 792 z "},"õ":{"ha":850,"x_min":79,"x_max":771,"o":"m 771 336 q 742 184 771 250 q 667 73 714 118 q 556 4 619 28 q 425 -19 493 -19 q 293 4 356 -19 q 183 73 231 28 q 108 184 136 118 q 79 336 79 250 l 79 353 q 108 503 79 438 q 184 615 136 569 q 294 685 232 661 q 425 708 357 708 q 556 685 493 708 q 666 615 618 661 q 742 503 714 569 q 771 353 771 438 l 771 336 m 425 83 q 517 101 475 83 q 592 151 560 118 q 642 231 624 185 q 660 336 660 278 l 660 353 q 642 455 660 408 q 592 535 624 501 q 517 587 560 568 q 425 606 474 606 q 333 587 376 606 q 258 535 290 568 q 208 455 226 501 q 190 353 190 408 l 190 336 q 208 231 190 278 q 258 151 226 185 q 333 101 290 118 q 425 83 375 83 m 468 888 q 482 867 475 874 q 501 860 489 860 q 528 874 515 860 l 594 950 l 663 892 l 606 824 q 560 783 586 800 q 497 765 533 765 q 431 785 454 765 q 385 847 408 804 q 369 871 375 864 q 351 878 363 878 q 321 861 336 878 l 257 788 l 189 846 l 246 914 q 292 955 265 938 q 356 972 318 972 q 419 952 396 972 q 468 888 443 932 z "},"ö":{"ha":850,"x_min":79,"x_max":771,"o":"m 771 336 q 742 184 771 250 q 667 73 714 118 q 556 4 619 28 q 425 -19 493 -19 q 293 4 356 -19 q 183 73 231 28 q 108 184 136 118 q 79 336 79 250 l 79 353 q 108 503 79 438 q 184 615 136 569 q 294 685 232 661 q 425 708 357 708 q 556 685 493 708 q 666 615 618 661 q 742 503 714 569 q 771 353 771 438 l 771 336 m 425 83 q 517 101 475 83 q 592 151 560 118 q 642 231 624 185 q 660 336 660 278 l 660 353 q 642 455 660 408 q 592 535 624 501 q 517 587 560 568 q 425 606 474 606 q 333 587 376 606 q 258 535 290 568 q 208 455 226 501 q 190 353 190 408 l 190 336 q 208 231 190 278 q 258 151 226 185 q 333 101 290 118 q 425 83 375 83 m 189 894 q 217 963 189 935 q 286 992 246 992 q 355 963 326 992 q 383 894 383 935 q 355 826 383 854 q 286 797 326 797 q 217 826 246 797 q 189 894 189 854 m 467 894 q 495 963 467 935 q 564 992 524 992 q 633 963 604 992 q 661 894 661 935 q 633 826 661 854 q 564 797 604 797 q 495 826 524 797 q 467 894 467 854 z "},"ō":{"ha":850,"x_min":79,"x_max":771,"o":"m 771 336 q 742 184 771 250 q 667 73 714 118 q 556 4 619 28 q 425 -19 493 -19 q 293 4 356 -19 q 183 73 231 28 q 108 184 136 118 q 79 336 79 250 l 79 353 q 108 503 79 438 q 184 615 136 569 q 294 685 232 661 q 425 708 357 708 q 556 685 493 708 q 666 615 618 661 q 742 503 714 569 q 771 353 771 438 l 771 336 m 425 83 q 517 101 475 83 q 592 151 560 118 q 642 231 624 185 q 660 336 660 278 l 660 353 q 642 455 660 408 q 592 535 624 501 q 517 587 560 568 q 425 606 474 606 q 333 587 376 606 q 258 535 290 568 q 208 455 226 501 q 190 353 190 408 l 190 336 q 208 231 190 278 q 258 151 226 185 q 333 101 290 118 q 425 83 375 83 m 621 792 l 229 792 l 229 883 l 621 883 l 621 792 z "},"ő":{"ha":850,"x_min":79,"x_max":771,"o":"m 771 336 q 742 184 771 250 q 667 73 714 118 q 556 4 619 28 q 425 -19 493 -19 q 293 4 356 -19 q 183 73 231 28 q 108 184 136 118 q 79 336 79 250 l 79 353 q 108 503 79 438 q 184 615 136 569 q 294 685 232 661 q 425 708 357 708 q 556 685 493 708 q 666 615 618 661 q 742 503 714 569 q 771 353 771 438 l 771 336 m 425 83 q 517 101 475 83 q 592 151 560 118 q 642 231 624 185 q 660 336 660 278 l 660 353 q 642 455 660 408 q 592 535 624 501 q 517 587 560 568 q 425 606 474 606 q 333 587 376 606 q 258 535 290 568 q 208 455 226 501 q 190 353 190 408 l 190 336 q 208 231 190 278 q 258 151 226 185 q 333 101 290 118 q 425 83 375 83 m 483 956 l 367 792 l 267 792 l 358 956 l 483 956 m 683 956 l 567 792 l 467 792 l 558 956 l 683 956 z "},"ǒ":{"ha":850,"x_min":79,"x_max":771,"o":"m 771 336 q 742 184 771 250 q 667 73 714 118 q 556 4 619 28 q 425 -19 493 -19 q 293 4 356 -19 q 183 73 231 28 q 108 184 136 118 q 79 336 79 250 l 79 353 q 108 503 79 438 q 184 615 136 569 q 294 685 232 661 q 425 708 357 708 q 556 685 493 708 q 666 615 618 661 q 742 503 714 569 q 771 353 771 438 l 771 336 m 425 83 q 517 101 475 83 q 592 151 560 118 q 642 231 624 185 q 660 336 660 278 l 660 353 q 642 455 660 408 q 592 535 624 501 q 517 587 560 568 q 425 606 474 606 q 333 587 376 606 q 258 535 290 568 q 208 455 226 501 q 190 353 190 408 l 190 336 q 208 231 190 278 q 258 151 226 185 q 333 101 290 118 q 425 83 375 83 m 622 956 l 511 792 l 339 792 l 228 956 l 344 956 l 417 833 l 433 833 l 506 956 l 622 956 z "},"ǫ":{"ha":850,"x_min":79,"x_max":771,"o":"m 771 336 q 747 196 771 258 q 683 89 724 133 q 587 17 642 44 q 471 -17 532 -10 l 453 -94 q 451 -106 451 -101 q 483 -136 451 -136 l 542 -136 l 542 -228 l 464 -228 q 390 -202 424 -228 q 356 -125 356 -176 q 360 -92 356 -112 l 376 -17 q 261 18 315 -8 q 167 90 207 44 q 103 197 126 135 q 79 336 79 258 l 79 353 q 108 503 79 438 q 184 615 136 569 q 294 685 232 661 q 425 708 357 708 q 556 685 493 708 q 666 615 618 661 q 742 503 714 569 q 771 353 771 438 l 771 336 m 425 83 q 517 101 475 83 q 592 151 560 118 q 642 231 624 185 q 660 336 660 278 l 660 353 q 642 455 660 408 q 592 535 624 501 q 517 587 560 568 q 425 606 474 606 q 333 587 376 606 q 258 535 290 568 q 208 455 226 501 q 190 353 190 408 l 190 336 q 208 231 190 278 q 258 151 226 185 q 333 101 290 118 q 425 83 375 83 z "},"ọ":{"ha":850,"x_min":79,"x_max":771,"o":"m 771 336 q 742 184 771 250 q 667 73 714 118 q 556 4 619 28 q 425 -19 493 -19 q 293 4 356 -19 q 183 73 231 28 q 108 184 136 118 q 79 336 79 250 l 79 353 q 108 503 79 438 q 184 615 136 569 q 294 685 232 661 q 425 708 357 708 q 556 685 493 708 q 666 615 618 661 q 742 503 714 569 q 771 353 771 438 l 771 336 m 425 83 q 517 101 475 83 q 592 151 560 118 q 642 231 624 185 q 660 336 660 278 l 660 353 q 642 455 660 408 q 592 535 624 501 q 517 587 560 568 q 425 606 474 606 q 333 587 376 606 q 258 535 290 568 q 208 455 226 501 q 190 353 190 408 l 190 336 q 208 231 190 278 q 258 151 226 185 q 333 101 290 118 q 425 83 375 83 m 328 -185 q 356 -116 328 -144 q 425 -87 385 -87 q 494 -116 465 -87 q 522 -185 522 -144 q 494 -253 522 -225 q 425 -282 465 -282 q 356 -253 385 -282 q 328 -185 328 -225 z "},"ỏ":{"ha":850,"x_min":79,"x_max":771,"o":"m 378 758 l 350 886 l 350 894 l 456 894 q 490 875 465 875 q 524 889 510 875 q 539 928 539 903 q 522 972 539 958 q 483 986 504 986 q 437 969 453 986 q 417 931 421 951 l 350 956 q 393 1025 361 997 q 485 1053 425 1053 q 576 1019 539 1053 q 614 926 614 985 q 585 843 614 878 q 508 808 557 808 q 433 853 451 808 l 425 853 l 446 758 l 378 758 m 771 336 q 742 184 771 250 q 667 73 714 118 q 556 4 619 28 q 425 -19 493 -19 q 293 4 356 -19 q 183 73 231 28 q 108 184 136 118 q 79 336 79 250 l 79 353 q 108 503 79 438 q 184 615 136 569 q 294 685 232 661 q 425 708 357 708 q 556 685 493 708 q 666 615 618 661 q 742 503 714 569 q 771 353 771 438 l 771 336 m 425 83 q 517 101 475 83 q 592 151 560 118 q 642 231 624 185 q 660 336 660 278 l 660 353 q 642 455 660 408 q 592 535 624 501 q 517 587 560 568 q 425 606 474 606 q 333 587 376 606 q 258 535 290 568 q 208 455 226 501 q 190 353 190 408 l 190 336 q 208 231 190 278 q 258 151 226 185 q 333 101 290 118 q 425 83 375 83 z "},"ố":{"ha":850,"x_min":79,"x_max":806,"o":"m 771 336 q 742 184 771 250 q 667 73 714 118 q 556 4 619 28 q 425 -19 493 -19 q 293 4 356 -19 q 183 73 231 28 q 108 184 136 118 q 79 336 79 250 l 79 353 q 108 503 79 438 q 184 615 136 569 q 294 685 232 661 q 425 708 357 708 q 556 685 493 708 q 666 615 618 661 q 742 503 714 569 q 771 353 771 438 l 771 336 m 425 83 q 517 101 475 83 q 592 151 560 118 q 642 231 624 185 q 660 336 660 278 l 660 353 q 642 455 660 408 q 592 535 624 501 q 517 587 560 568 q 425 606 474 606 q 333 587 376 606 q 258 535 290 568 q 208 455 226 501 q 190 353 190 408 l 190 336 q 208 231 190 278 q 258 151 226 185 q 333 101 290 118 q 425 83 375 83 m 506 792 l 433 914 l 417 914 l 344 792 l 228 792 l 339 956 l 511 956 l 622 792 l 506 792 m 806 1078 l 689 914 l 589 914 l 681 1078 l 806 1078 z "},"ồ":{"ha":850,"x_min":46,"x_max":771,"o":"m 771 336 q 742 184 771 250 q 667 73 714 118 q 556 4 619 28 q 425 -19 493 -19 q 293 4 356 -19 q 183 73 231 28 q 108 184 136 118 q 79 336 79 250 l 79 353 q 108 503 79 438 q 184 615 136 569 q 294 685 232 661 q 425 708 357 708 q 556 685 493 708 q 666 615 618 661 q 742 503 714 569 q 771 353 771 438 l 771 336 m 425 83 q 517 101 475 83 q 592 151 560 118 q 642 231 624 185 q 660 336 660 278 l 660 353 q 642 455 660 408 q 592 535 624 501 q 517 587 560 568 q 425 606 474 606 q 333 587 376 606 q 258 535 290 568 q 208 455 226 501 q 190 353 190 408 l 190 336 q 208 231 190 278 q 258 151 226 185 q 333 101 290 118 q 425 83 375 83 m 506 792 l 433 914 l 417 914 l 344 792 l 228 792 l 339 956 l 511 956 l 622 792 l 506 792 m 171 1078 l 263 914 l 163 914 l 46 1078 l 171 1078 z "},"ổ":{"ha":850,"x_min":79,"x_max":825,"o":"m 589 914 l 561 1042 l 561 1050 l 667 1050 q 701 1031 676 1031 q 735 1044 721 1031 q 750 1083 750 1058 q 733 1128 750 1114 q 694 1142 715 1142 q 648 1124 664 1142 q 628 1086 632 1107 l 561 1111 q 604 1181 572 1153 q 696 1208 636 1208 q 788 1174 750 1208 q 825 1082 825 1140 q 797 999 825 1033 q 719 964 768 964 q 644 1008 663 964 l 636 1008 l 657 914 l 589 914 m 771 336 q 742 184 771 250 q 667 73 714 118 q 556 4 619 28 q 425 -19 493 -19 q 293 4 356 -19 q 183 73 231 28 q 108 184 136 118 q 79 336 79 250 l 79 353 q 108 503 79 438 q 184 615 136 569 q 294 685 232 661 q 425 708 357 708 q 556 685 493 708 q 666 615 618 661 q 742 503 714 569 q 771 353 771 438 l 771 336 m 425 83 q 517 101 475 83 q 592 151 560 118 q 642 231 624 185 q 660 336 660 278 l 660 353 q 642 455 660 408 q 592 535 624 501 q 517 587 560 568 q 425 606 474 606 q 333 587 376 606 q 258 535 290 568 q 208 455 226 501 q 190 353 190 408 l 190 336 q 208 231 190 278 q 258 151 226 185 q 333 101 290 118 q 425 83 375 83 m 506 792 l 433 914 l 417 914 l 344 792 l 228 792 l 339 956 l 511 956 l 622 792 l 506 792 z "}}}
